<svg width="24" height="24" viewBox="0 0 24 24" fill="none" xmlns="http://www.w3.org/2000/svg">
<g clip-path="url(#clip0_172_318)">
<path d="M4.24998 0.299805H19.75C22.0972 0.299805 24 2.20261 24 4.54978V19.4498C24 21.797 22.0972 23.6998 19.75 23.6998H4.24998C1.90281 23.6998 0 21.797 0 19.4498V4.54978C0 2.20257 1.90281 0.299805 4.24998 0.299805Z" fill="#00005B"/>
<path d="M9.64147 14.2998H5.92231L5.16565 16.6549C5.14442 16.7433 5.0633 16.8041 4.97243 16.7998H3.08874C2.98133 16.7998 2.94375 16.7407 2.97604 16.6227L6.19604 7.38738C6.22824 7.2908 6.26043 7.19637 6.29263 7.07284C6.33481 6.85806 6.35636 6.63972 6.35702 6.42082C6.34929 6.36632 6.38715 6.31585 6.44166 6.30811C6.45098 6.3068 6.4604 6.3068 6.46973 6.30811H9.02966C9.10459 6.30811 9.14757 6.33497 9.15849 6.38863L12.8132 16.6388C12.8454 16.7462 12.8132 16.7999 12.7166 16.7998H10.6235C10.5492 16.808 10.4802 16.7598 10.4626 16.6871L9.64147 14.2998ZM7.7738 8.14409H7.75768L6.50192 12.314H9.04573L7.7738 8.14409Z" fill="#9999FF"/>
<path d="M18.7381 13.3829H15.5664C15.6053 13.6967 15.7095 13.9989 15.8724 14.2699C16.0524 14.5383 16.307 14.7482 16.6049 14.8737C17.0086 15.0483 17.4452 15.1339 17.8849 15.1245C18.2337 15.1178 18.5813 15.0797 18.9233 15.0105C19.2292 14.9692 19.529 14.8911 19.8162 14.7778C19.8697 14.7351 19.8967 14.7617 19.8967 14.8583V16.3878C19.8994 16.4295 19.891 16.4711 19.8725 16.5086C19.8541 16.5379 19.8293 16.5626 19.8001 16.581C19.4816 16.7221 19.1464 16.8219 18.8026 16.8782C18.3356 16.9659 17.8609 17.0064 17.3858 16.999C16.6236 16.999 15.9849 16.8809 15.4699 16.6448C14.983 16.4303 14.553 16.105 14.2141 15.6949C13.8976 15.3084 13.6621 14.8622 13.5218 14.3827C13.3829 13.9095 13.3124 13.4188 13.3125 12.9257C13.311 12.3872 13.3953 11.8519 13.5621 11.3399C13.7227 10.8404 13.9768 10.376 14.3107 9.97136C15.0467 9.07964 16.0595 8.70801 17.1926 8.70801C18.169 8.70801 19.1706 9.03137 19.8008 9.81034C20.0646 10.1507 20.2662 10.5349 20.3965 10.9454C20.5234 11.3409 20.5885 11.7536 20.5897 12.169C20.5897 12.4052 20.5816 12.6199 20.5655 12.813C20.5495 13.0062 20.5361 13.1457 20.5253 13.2316C20.5166 13.3051 20.4544 13.3604 20.3804 13.3604C20.316 13.3604 20.206 13.3685 20.0504 13.3845C19.8947 13.4006 19.7015 13.4113 19.4708 13.4167C19.2397 13.4222 18.9957 13.3829 18.7381 13.3829ZM15.5664 11.9162H17.6755C17.9331 11.9162 18.1236 11.9135 18.2471 11.9081C18.3297 11.8999 18.4094 11.8735 18.4806 11.8308V11.7341C18.4774 11.6082 18.4557 11.4835 18.4162 11.3639C18.2377 10.7993 17.7038 10.4236 17.1121 10.4462C16.5585 10.4127 16.0374 10.7096 15.7839 11.2028C15.6735 11.4274 15.6001 11.6683 15.5664 11.9162Z" fill="#9999FF"/>
</g>
<defs>
<clipPath id="clip0_172_318">
<rect width="24" height="24" fill="white"/>
</clipPath>
</defs>
</svg>
