<svg width="48" height="48" viewBox="0 0 48 48" fill="none" xmlns="http://www.w3.org/2000/svg">
<path d="M45.75 3H7.09641C6.76637 2.42809 6.2568 1.98109 5.64677 1.72836C5.03673 1.47563 4.36034 1.4313 3.72254 1.60225C3.08474 1.77319 2.52119 2.14986 2.11933 2.67381C1.71747 3.19776 1.49977 3.83969 1.5 4.5V43.5C1.50089 44.2954 1.81725 45.0579 2.37967 45.6203C2.94208 46.1827 3.70463 46.4991 4.5 46.5H39.75C39.8485 46.5 39.946 46.4806 40.037 46.4429C40.128 46.4052 40.2107 46.35 40.2803 46.2803C40.35 46.2107 40.4052 46.128 40.4429 46.037C40.4806 45.946 40.5 45.8485 40.5 45.75V42H45.75C45.8485 42 45.946 41.9806 46.037 41.9429C46.128 41.9052 46.2107 41.85 46.2803 41.7803C46.35 41.7107 46.4052 41.628 46.4429 41.537C46.4806 41.446 46.5 41.3485 46.5 41.25V3.75C46.5 3.65151 46.4806 3.55398 46.4429 3.46298C46.4052 3.37199 46.35 3.28931 46.2803 3.21966C46.2107 3.15002 46.128 3.09478 46.037 3.05709C45.946 3.0194 45.8485 3 45.75 3ZM4.5 3C4.89769 3.00046 5.27895 3.15864 5.56016 3.43984C5.84136 3.72105 5.99955 4.10232 6 4.5V40.5H4.5C3.97312 40.4996 3.45554 40.6388 3 40.9036V4.5C3.00045 4.10232 3.15864 3.72105 3.43984 3.43984C3.72105 3.15864 4.10232 3.00046 4.5 3ZM39 45H4.5C4.10218 45 3.72064 44.842 3.43934 44.5607C3.15804 44.2794 3 43.8978 3 43.5C3 43.1022 3.15804 42.7206 3.43934 42.4393C3.72064 42.158 4.10218 42 4.5 42H39V45ZM45 40.5H7.5V4.5H45V40.5Z" fill="white"/>
<path d="M11.625 13.5C10.9288 13.5 10.2611 13.7766 9.76884 14.2688C9.27656 14.7611 9 15.4288 9 16.125C9 16.8212 9.27656 17.4889 9.76884 17.9812C10.2611 18.4734 10.9288 18.75 11.625 18.75H12.375C13.0273 18.7505 13.6563 18.5072 14.1384 18.0679C14.3476 18.2838 14.5981 18.4554 14.8749 18.5726C15.1518 18.6898 15.4494 18.7501 15.75 18.75V17.25C15.5512 17.2498 15.3605 17.1707 15.2199 17.0301C15.0793 16.8895 15.0002 16.6988 15 16.5V12.75C15 11.9544 14.6839 11.1913 14.1213 10.6287C13.5587 10.0661 12.7956 9.75 12 9.75C11.2044 9.75 10.4413 10.0661 9.87868 10.6287C9.31607 11.1913 9 11.9544 9 12.75H10.5C10.5 12.3522 10.658 11.9706 10.9393 11.6893C11.2206 11.408 11.6022 11.25 12 11.25C12.3978 11.25 12.7794 11.408 13.0607 11.6893C13.342 11.9706 13.5 12.3522 13.5 12.75V13.5H11.625ZM12.375 17.25H11.625C11.3266 17.25 11.0405 17.1315 10.8295 16.9205C10.6185 16.7095 10.5 16.4234 10.5 16.125C10.5 15.8266 10.6185 15.5405 10.8295 15.3295C11.0405 15.1185 11.3266 15 11.625 15H13.5V16.125C13.4997 16.4233 13.381 16.7092 13.1701 16.9201C12.9592 17.131 12.6733 17.2497 12.375 17.25Z" fill="white"/>
<path d="M19.8678 15.75H23.6322L24.7937 19.0023L26.2063 18.4977L22.4563 7.99773C22.4042 7.85206 22.3084 7.72604 22.182 7.63693C22.0556 7.54783 21.9047 7.5 21.75 7.5C21.5953 7.5 21.4444 7.54783 21.318 7.63693C21.1915 7.72604 21.0957 7.85206 21.0437 7.99773L17.2937 18.4977L18.7063 19.0023L19.8678 15.75ZM21.75 10.4799L23.0965 14.25H20.4035L21.75 10.4799Z" fill="white"/>
<path d="M27.75 9H43.5V10.5H27.75V9Z" fill="white"/>
<path d="M27.75 12H31.5V13.5H27.75V12Z" fill="white"/>
<path d="M33 12H43.5V13.5H33V12Z" fill="white"/>
<path d="M27.75 15H36V16.5H27.75V15Z" fill="white"/>
<path d="M12.2197 29.4697C12.15 29.5393 12.0948 29.622 12.0571 29.713C12.0194 29.804 12 29.9015 12 30C12 30.0985 12.0194 30.196 12.0571 30.287C12.0948 30.378 12.15 30.4607 12.2197 30.5303L18.9697 37.2803C19.0393 37.35 19.122 37.4052 19.213 37.4429C19.304 37.4806 19.4015 37.5 19.5 37.5C19.5985 37.5 19.696 37.4806 19.787 37.4429C19.878 37.4052 19.9607 37.35 20.0303 37.2803L25.2803 32.0303C25.35 31.9607 25.4052 31.878 25.4429 31.787C25.4806 31.696 25.5 31.5985 25.5 31.5C25.5 31.4015 25.4806 31.304 25.4429 31.213C25.4052 31.122 25.35 31.0393 25.2803 30.9697L21.1417 26.831L21.7224 24.7018C21.8409 24.2671 21.8576 23.8108 21.7712 23.3686C21.6848 22.9263 21.4975 22.5099 21.224 22.1518C20.9504 21.7937 20.598 21.5035 20.1941 21.3037C19.7901 21.1039 19.3456 21 18.8949 21C18.2586 21.002 17.64 21.2102 17.1319 21.5935C16.6239 21.9767 16.2537 22.5142 16.0769 23.1256L15.0822 26.6071L12.2197 29.4697ZM23.6894 31.5L19.5 35.6894L13.8106 30L18 25.8106L19.4655 27.2761L18.7764 29.8027L20.2236 30.1974L20.6871 28.4978L23.6894 31.5ZM17.5193 23.5377C17.6056 23.2392 17.7863 22.9768 18.0343 22.7897C18.2823 22.6026 18.5843 22.501 18.8949 22.5C19.1149 22.5 19.332 22.5507 19.5291 22.6483C19.7263 22.7458 19.8984 22.8875 20.0319 23.0623C20.1654 23.2371 20.2568 23.4404 20.299 23.6563C20.3412 23.8722 20.3331 24.0949 20.2752 24.3072L19.92 25.6094L18.5303 24.2197C18.3897 24.079 18.1989 24 18 24C17.8011 24 17.6103 24.079 17.4697 24.2197L17.2663 24.4231L17.5193 23.5377Z" fill="white"/>
<path d="M11.25 37.5C11.8465 37.4993 12.4184 37.2621 12.8403 36.8403C13.2621 36.4184 13.4993 35.8465 13.5 35.25V34.9541C13.5004 34.5099 13.3689 34.0755 13.1221 33.7061L11.874 31.834C11.8055 31.7312 11.7127 31.647 11.6039 31.5887C11.495 31.5305 11.3735 31.5 11.25 31.5C11.1265 31.5 11.005 31.5305 10.8961 31.5887C10.7873 31.647 10.6945 31.7312 10.626 31.834L9.37784 33.7061C9.13108 34.0755 8.99958 34.5099 9 34.9541V35.25C9.00067 35.8465 9.23793 36.4184 9.65975 36.8403C10.0816 37.2621 10.6535 37.4993 11.25 37.5ZM10.5 34.9541C10.4999 34.8061 10.5437 34.6613 10.6259 34.5381L11.25 33.6021L11.874 34.5381C11.9563 34.6612 12.0001 34.806 12 34.9541V35.25C12 35.4489 11.921 35.6397 11.7803 35.7803C11.6397 35.921 11.4489 36 11.25 36C11.0511 36 10.8603 35.921 10.7197 35.7803C10.579 35.6397 10.5 35.4489 10.5 35.25V34.9541Z" fill="white"/>
<path d="M36 30H37.5V31.5H36V30Z" fill="white"/>
<path d="M39 30H43.5V31.5H39V30Z" fill="white"/>
<path d="M36 33H37.5V34.5H36V33Z" fill="white"/>
<path d="M39 33H43.5V34.5H39V33Z" fill="white"/>
<path d="M36 36H37.5V37.5H36V36Z" fill="white"/>
<path d="M39 36H43.5V37.5H39V36Z" fill="white"/>
<path d="M42.75 21H36.75C36.6515 21 36.554 21.0194 36.463 21.0571C36.372 21.0948 36.2893 21.15 36.2197 21.2197C36.15 21.2893 36.0948 21.372 36.0571 21.463C36.0194 21.554 36 21.6515 36 21.75V27.75C36 27.8485 36.0194 27.946 36.0571 28.037C36.0948 28.128 36.15 28.2107 36.2197 28.2803C36.2893 28.35 36.372 28.4052 36.463 28.4429C36.554 28.4806 36.6515 28.5 36.75 28.5H42.75C42.8485 28.5 42.946 28.4806 43.037 28.4429C43.128 28.4052 43.2107 28.35 43.2803 28.2803C43.35 28.2107 43.4052 28.128 43.4429 28.037C43.4806 27.946 43.5 27.8485 43.5 27.75V21.75C43.5 21.6515 43.4806 21.554 43.4429 21.463C43.4052 21.372 43.35 21.2893 43.2803 21.2197C43.2107 21.15 43.128 21.0948 43.037 21.0571C42.946 21.0194 42.8485 21 42.75 21ZM42 27H37.5V22.5H42V27Z" fill="white"/>
<path d="M27 30H28.5V31.5H27V30Z" fill="white"/>
<path d="M30 30H34.5V31.5H30V30Z" fill="white"/>
<path d="M27 33H28.5V34.5H27V33Z" fill="white"/>
<path d="M30 33H34.5V34.5H30V33Z" fill="white"/>
<path d="M27 36H28.5V37.5H27V36Z" fill="white"/>
<path d="M30 36H34.5V37.5H30V36Z" fill="white"/>
<path d="M27.75 28.5H33.75C33.8485 28.5 33.946 28.4806 34.037 28.4429C34.128 28.4052 34.2107 28.35 34.2803 28.2803C34.35 28.2107 34.4052 28.128 34.4429 28.037C34.4806 27.946 34.5 27.8485 34.5 27.75V21.75C34.5 21.6515 34.4806 21.554 34.4429 21.463C34.4052 21.372 34.35 21.2893 34.2803 21.2197C34.2107 21.15 34.128 21.0948 34.037 21.0571C33.946 21.0194 33.8485 21 33.75 21H27.75C27.6515 21 27.554 21.0194 27.463 21.0571C27.372 21.0948 27.2893 21.15 27.2197 21.2197C27.15 21.2893 27.0948 21.372 27.0571 21.463C27.0194 21.554 27 21.6515 27 21.75V27.75C27 27.8485 27.0194 27.946 27.0571 28.037C27.0948 28.128 27.15 28.2107 27.2197 28.2803C27.2893 28.35 27.372 28.4052 27.463 28.4429C27.554 28.4806 27.6515 28.5 27.75 28.5ZM28.5 22.5H33V27H28.5V22.5Z" fill="white"/>
</svg>
