<svg width="170" height="170" viewBox="0 0 170 170" fill="none" xmlns="http://www.w3.org/2000/svg">
<g clip-path="url(#clip0_184_634)">
<path d="M169.947 83.6183C169.92 82.9542 169.894 82.3167 169.809 81.6527V81.6261C169.198 74.4861 166.791 67.6277 162.807 61.7042C161.038 59.0214 158.961 56.5564 156.666 54.3464C153.234 51.0527 149.334 48.3699 145.042 46.3246C138.29 43.1424 130.905 41.538 123.431 41.5911C117.289 41.5646 111.175 42.643 105.389 44.7467C100.741 46.3777 96.3686 48.7577 92.4958 51.8017C91.6936 52.4658 90.8915 53.1299 90.1424 53.8471L89.5315 54.458L88.7027 55.3452L88.1237 55.9242L87.1249 56.9761C86.3758 57.8049 85.6852 58.6389 85.0212 59.4411L84.9946 59.4146C83.6399 61.0455 82.3915 62.788 81.4511 64.3127C80.8136 65.3114 80.208 66.3314 79.6236 67.3567L71.4902 83.7671H71.5168L71.0758 84.6224L70.1886 86.4233C68.4196 90.0464 66.5071 93.643 64.3768 96.6074C59.6168 101.808 54.2511 104.385 47.3343 104.385C46.8615 104.385 46.3674 104.358 45.868 104.332C41.6924 104.167 38.1224 103.168 34.9668 101.288C31.9758 99.5717 29.5162 97.0536 27.9118 94.0096C26.2808 91.0186 25.5052 87.6717 25.6168 84.2983V84.0486C25.8399 78.683 27.8852 74.4755 32.0343 70.8789C33.033 69.9917 34.0796 69.2746 35.1899 68.6105C35.328 68.5255 35.4927 68.4458 35.6308 68.3608C38.728 66.6714 42.2183 65.8427 46.2027 65.8427L47.4458 65.8692C53.8368 66.1189 58.7349 68.1111 62.6661 71.9839L74.9221 49.9317C71.8249 47.8864 68.5046 46.1971 65.0143 44.9221C64.8761 44.8689 64.738 44.7839 64.5999 44.7574C64.159 44.5927 63.7127 44.4227 63.2718 44.2846C59.3405 42.983 55.2499 42.1542 51.1274 41.8196C51.0158 41.8196 50.9043 41.793 50.7927 41.793C50.1552 41.7399 49.4911 41.6814 48.8536 41.6549C48.163 41.6283 47.4405 41.6017 46.7499 41.6017H46.3621C38.9458 41.5486 31.6146 43.1796 24.9208 46.3352C17.7277 49.7405 11.5865 55.053 7.1824 61.6936C2.44896 68.7752 -0.0691617 77.1052 -0.0107242 85.6264C-0.0372867 96.7242 4.00021 106.435 12.0274 114.622C20.4371 123.202 31.3118 127.818 44.4018 128.376C45.2305 128.403 46.0646 128.429 46.8933 128.429C54.283 128.429 61.1415 127.101 67.288 124.471C68.8074 123.807 70.3055 123.058 71.8249 122.203C72.6537 121.73 73.4293 121.204 74.2315 120.684L74.784 120.296L75.7508 119.632C76.9143 118.803 77.9927 117.889 79.0711 116.922L79.4324 116.561C80.0699 115.982 80.6755 115.371 81.2599 114.76L83.4752 112.269L84.304 111.217L84.7183 110.638L85.1062 110.085C88.3733 104.608 99.0249 84.5746 99.0249 84.5746V84.548L99.6624 83.3314L100.188 82.3646C101.74 79.5171 102.871 77.493 104.396 75.3627L104.422 75.2777C107.907 70.2149 113.942 66.5917 121.051 65.9808C132.951 64.9555 143.379 72.7861 144.319 83.4377C145.286 94.1158 136.404 103.609 124.509 104.635C122.102 104.826 119.696 104.688 117.342 104.162L117.289 104.188C108.545 102.361 102.983 96.0283 100.247 93.1489L88.793 114.234C88.793 114.234 92.363 117.804 94.7962 119.6C97.2612 121.401 100.411 123.143 102.93 124.248C109.267 126.99 116.099 128.424 123.016 128.424C123.871 128.424 123.707 128.424 124.594 128.371C137.652 127.845 149.302 122.835 157.712 114.261C165.654 106.101 169.968 96.8039 170.026 85.7911V85.4564L169.947 83.6183Z" fill="#F9F9F9"/>
</g>
<defs>
<clipPath id="clip0_184_634">
<rect width="170" height="170" fill="white"/>
</clipPath>
</defs>
</svg>
