<svg width="128" height="128" viewBox="0 0 128 128" fill="none" xmlns="http://www.w3.org/2000/svg">
<g clip-path="url(#clip0_197_346)">
<path d="M0 0H128V128H0V0Z" fill="#F9F9F9"/>
<g clip-path="url(#clip1_197_346)">
<path d="M70.6858 73.0142C68.6955 74.3411 66.3836 75.0425 64 75.0425C61.6166 75.0425 59.3047 74.3411 57.3144 73.0142L24.5327 51.1591C24.3508 51.0378 24.1736 50.9114 24 50.7814V86.5934C24 90.6994 27.332 93.958 31.3645 93.958H96.6353C100.741 93.958 104 90.6259 104 86.5934V50.7812C103.826 50.9116 103.648 51.0383 103.466 51.1597L70.6858 73.0142Z" fill="#0F152F"/>
<path d="M27.1328 47.2595L59.9145 69.1148C61.1555 69.9422 62.5777 70.3557 63.9998 70.3557C65.4222 70.3557 66.8445 69.942 68.0855 69.1148L100.867 47.2595C102.829 45.9525 104 43.765 104 41.404C104 37.3445 100.697 34.042 96.638 34.042H31.362C27.3027 34.0421 24 37.3446 24 41.4079C24 43.765 25.1712 45.9525 27.1328 47.2595Z" fill="#0F152F"/>
</g>
</g>
<defs>
<clipPath id="clip0_197_346">
<path d="M0 24C0 15.5992 0 11.3988 1.6349 8.19014C3.073 5.36771 5.36771 3.073 8.19014 1.6349C11.3988 0 15.5992 0 24 0H104C112.401 0 116.601 0 119.81 1.6349C122.632 3.073 124.927 5.36771 126.365 8.19014C128 11.3988 128 15.5992 128 24V104C128 112.401 128 116.601 126.365 119.81C124.927 122.632 122.632 124.927 119.81 126.365C116.601 128 112.401 128 104 128H24C15.5992 128 11.3988 128 8.19014 126.365C5.36771 124.927 3.073 122.632 1.6349 119.81C0 116.601 0 112.401 0 104V24Z" fill="white"/>
</clipPath>
<clipPath id="clip1_197_346">
<rect width="80" height="80" fill="white" transform="translate(24 24)"/>
</clipPath>
</defs>
</svg>
