<?xml version="1.0" encoding="utf-8"?>
<!-- Generator: Adobe Illustrator 25.3.1, SVG Export Plug-In . SVG Version: 6.00 Build 0)  -->
<svg version="1.1" id="Layer_1" xmlns="http://www.w3.org/2000/svg" xmlns:xlink="http://www.w3.org/1999/xlink" x="0px" y="0px"
	 viewBox="0 0 324.7 324.8" style="enable-background:new 0 0 324.7 324.8;" xml:space="preserve">
<style type="text/css">
	.st0{fill-rule:evenodd;clip-rule:evenodd;fill:#FFFFFF;}
	.st1{fill:#FFFFFF;}
</style>
<g>
	<g>
		<g>
			<path class="st0" d="M0,162.4C0,72.7,72.7,0,162.4,0C252,0,324.7,72.7,324.7,162.4S252,324.8,162.3,324.8
				C72.7,324.7,0,252,0,162.4 M4.5,162.4c0,87.2,70.7,157.9,157.9,157.9s157.9-70.7,157.9-157.9S249.6,4.5,162.4,4.5
				S4.5,75.2,4.5,162.4z"/>
		</g>
		<g>
			<path class="st1" d="M33.3,164.1h-0.6c-0.1-1.7-0.2-1.9-2-1.9l-8.5-0.1c-1.8,0-1.9,0.2-2.1,1.9h-0.6v-5.6h0.6
				c0.1,1.7,0.2,1.9,2,1.9l8.5,0.1c1.8,0,1.9-0.2,2.1-1.9h0.6V164.1z"/>
			<path class="st1" d="M21.8,139.2c-0.1,1.2,0.1,1.7,1.1,1.9c0.6,0.2,1.6,0.3,3.5,0.5l8.5,0.9l-0.1,0.7l-12,7.8l0,0l5.3,0.6
				c1.9,0.2,3,0.3,3.6,0.3c1.1,0,1.4-0.4,1.6-1.9l0.6,0.1l-0.6,5l-0.6-0.1c0.1-1.2-0.1-1.8-1.2-2c-0.6-0.1-1.7-0.3-3.6-0.5l-4.6-0.5
				c-1.5-0.2-1.6-0.1-2.2,0.2c-0.6,0.4-0.8,0.8-1,1.8l-0.6-0.1l0.3-3.1l11.6-7.6v-0.1l-5.2-0.6c-1.9-0.2-2.9-0.2-3.5-0.2
				c-1,0-1.3,0.5-1.5,1.9l-0.6-0.1l0.6-5L21.8,139.2z"/>
			<path class="st1" d="M27.9,124.4c-1,0-1.6,0.1-2,0.2c-0.6,0.2-0.8,0.5-1.2,2.1l-0.4,1.5l10.2,2.4c1.6,0.4,1.9,0.3,2.5-1.7
				l0.6,0.1l-1.4,5.9l-0.6-0.1c0.3-1.9,0.2-2.1-1.5-2.5L24,129.9l-0.3,1.3c-0.4,1.7-0.3,2.2,0.1,2.6c0.3,0.3,0.8,0.6,1.7,1.1
				l-0.1,0.6c-1.2-0.4-2.5-0.8-3.7-1.1l0.1-0.4c0.5-0.2,0.7-0.4,0.8-1l2-8.2c0.1-0.6,0-0.8-0.3-1.2l0.1-0.4c1,0.2,2.5,0.5,3.7,0.7
				L27.9,124.4z"/>
			<path class="st1" d="M39.7,112.1c0.6,0.4,2.3,1.4,2.9,1.8l-3.5,9.6l-0.6-0.2c0.5-1.9,0.4-2.1-1.2-2.7l-8-2.9
				c-1.8-0.7-1.9-0.5-2.6,1l-0.6-0.2l3.2-8.9c0.5,0.2,1.9,0.6,2.9,0.9l-0.1,0.6c-0.9-0.1-1.4-0.1-2,0c-0.5,0.1-0.9,0.6-1.4,2.1
				l-0.5,1.5c-0.2,0.6-0.2,0.7,0.4,0.9l4.5,1.6l0.7-1.9c0.7-1.8,0.5-2-0.7-2.7l0.2-0.6l3.8,1.4l-0.2,0.6c-1.5-0.3-1.7-0.2-2.3,1.6
				l-0.7,1.9l3.8,1.4c0.9,0.3,1.4,0.4,1.8,0.1c0.4-0.3,0.7-1,1-2c0.6-1.5,0.6-2.1,0.2-2.8c-0.3-0.5-0.8-1.1-1.5-1.7L39.7,112.1z"/>
			<path class="st1" d="M49.8,99.3c-0.1,0.2-0.2,0.4-0.3,0.7c-0.8,1.4-1.6,2-3.3,2.2c-1.3,0.2-2.8,0.3-4,0.4
				c-0.7,0.1-1.1,0.3-1.6,1.3l-0.3,0.6l3,1.5c1.6,0.8,1.8,0.7,2.7-0.8l0.5,0.3l-2.5,5l-0.5-0.3c0.7-1.6,0.6-1.8-1-2.6l-7.7-3.8
				c-1.6-0.8-1.8-0.7-2.6,0.7l-0.5-0.3l2.3-4.7c0.7-1.4,1.3-2.2,2.2-2.7s2-0.6,3.1,0c1.6,0.8,2.1,2.3,2.1,4c0.8,0,2.5-0.2,3.6-0.3
				c1.3-0.2,2-0.3,2.7-0.6c0.8-0.2,1.3-0.6,1.6-0.9L49.8,99.3z M40.1,103.2c0.5-1,0.6-1.7,0.5-2.3c-0.2-1-0.8-1.7-1.8-2.2
				c-2.1-1-3.5,0-4.2,1.4c-0.3,0.6-0.4,0.9-0.3,1.1c0,0.2,0.2,0.4,0.7,0.6l4.7,2.3L40.1,103.2z"/>
			<path class="st1" d="M55.4,90.1l-0.5-0.3c0.6-1.2,0.6-1.5-0.3-1.7c-0.8-0.2-2-0.5-3.4-0.8l-2.5,3.8c0.6,0.8,1.2,1.6,1.8,2.3
				c0.9,1.1,1.1,1.1,2.1-0.2l0.5,0.3l-2.5,3.9L50.2,97c0.6-1.2,0.6-1.5-0.5-3.2l-7-9.8l0.2-0.7c3.8,0.9,7.9,1.9,11.8,2.8
				c1.9,0.4,2.2,0.3,3.1-0.8l0.5,0.3L55.4,90.1z M44.8,85.6L44.8,85.6c1.1,1.6,2.3,3.2,3.4,4.7l2.1-3.3L44.8,85.6z"/>
			<path class="st1" d="M65.3,71.9c0.6,0.9,1.4,2.3,1.7,3c-0.3,0.6-1.1,2.2-2.1,3.4c-3.4,4-7.7,3.5-10.3,1.3
				c-3.4-2.9-3.4-7.4-0.4-11c1.1-1.3,2.4-2.1,2.9-2.5c1,0.7,1.8,1.1,2.7,1.7l-0.3,0.6c-2.1-1-3.6-0.6-5.1,1.1
				c-2.3,2.7-1.2,6.1,1.2,8.2c3,2.6,6.6,2.5,8.7,0.1c1.4-1.7,1.2-3.3,0.3-5.5L65.3,71.9z"/>
			<path class="st1" d="M71.1,56.7c-0.9-0.6-1.4-0.8-1.8-0.9c-0.6-0.1-1,0-2.1,1.1l-1.1,1l7.1,7.6c1.1,1.2,1.4,1.3,3,0l0.4,0.4
				l-4.5,4.2l-0.4-0.4c1.3-1.4,1.3-1.7,0.2-2.9l-7.1-7.6l-1,0.9c-1.3,1.2-1.5,1.6-1.3,2.2c0.1,0.4,0.3,1,0.8,1.8l-0.4,0.4
				c-0.8-1-1.7-2.1-2.4-3l0.3-0.3c0.6,0.2,0.8,0,1.2-0.4l6-5.8c0.4-0.4,0.5-0.6,0.4-1.1l0.3-0.3c0.7,0.7,1.8,1.8,2.7,2.6L71.1,56.7z
				"/>
			<path class="st1" d="M81.2,62l-0.4-0.5c1.3-1.2,1.4-1.4,0.2-2.8L75.9,52c-1.1-1.4-1.3-1.4-2.8-0.5L72.7,51l4.5-3.4l0.4,0.5
				c-1.3,1.2-1.4,1.4-0.3,2.8l5.2,6.7c1.1,1.4,1.3,1.4,2.8,0.5l0.4,0.5L81.2,62z"/>
			<path class="st1" d="M96.3,43.1c2.4,3.9,1.2,8-2.1,10c-3.3,2-7.4,1.1-9.6-2.3c-2-3.2-1.6-7.7,2.2-10
				C89.8,38.8,94.1,39.5,96.3,43.1z M86.1,49.1c2.1,3.4,5.5,4.7,8.1,3.1c2-1.2,2.8-4,0.6-7.5c-2.4-3.8-5.6-4.6-8-3.1
				C84.8,42.9,84,45.8,86.1,49.1z"/>
			<path class="st1" d="M110.7,29.6c-1.1,0.5-1.4,1-1.1,1.9c0.2,0.6,0.5,1.5,1.4,3.3l3.5,7.8l-0.6,0.3L101,36.4l0,0l2.2,4.9
				c0.8,1.8,1.3,2.7,1.6,3.2c0.5,0.9,1.1,1,2.4,0.5l0.2,0.5l-4.6,2.1l-0.2-0.5c1.1-0.6,1.5-1,1.1-2c-0.2-0.6-0.6-1.6-1.4-3.4
				l-1.9-4.3c-0.6-1.4-0.7-1.5-1.3-1.8c-0.6-0.3-1.1-0.3-2,0.1l-0.2-0.5l2.9-1.3l12.5,6.1h0.1l-2.1-4.8c-0.8-1.8-1.3-2.6-1.6-3.2
				c-0.5-0.8-1.1-0.9-2.4-0.3l-0.2-0.5l4.6-2.1V29.6z"/>
			<path class="st1" d="M128,23.7c2.6-0.6,4.7-0.6,6.3,0.4c1.2,0.8,2.3,2.1,2.8,4c0.6,2.5,0.1,4.5-1.2,6.1c-1.3,1.6-3.2,2.6-5.7,3.2
				l-4.9,1.2l-0.1-0.6c1.7-0.5,1.9-0.7,1.5-2.5l-2-8.3c-0.4-1.8-0.6-1.8-2.2-1.6l-0.1-0.6L128,23.7z M128.3,34.9
				c0.4,1.6,1.2,1.8,2.7,1.4c3.9-0.9,5-4.2,4.2-7.5c-0.5-2.1-1.7-3.8-3.6-4.4c-1.1-0.4-2.3-0.3-3.7,0c-0.9,0.2-1.4,0.4-1.6,0.6
				s-0.2,0.4,0,1.2L128.3,34.9z"/>
			<path class="st1" d="M152.4,30.2c0,0.7-0.2,2.7-0.4,3.4l-10.2,1.2l-0.1-0.6c1.9-0.4,2.1-0.6,1.9-2.3l-1-8.4
				c-0.2-1.9-0.4-1.9-2.1-1.9l-0.1-0.6l9.6-1c0.1,0.5,0.3,2,0.5,3l-0.6,0.2c-0.3-0.9-0.6-1.3-0.9-1.7c-0.3-0.4-0.9-0.5-2.5-0.3
				l-1.6,0.2c-0.7,0.1-0.7,0.1-0.6,0.8l0.6,4.8l2-0.2c1.9-0.2,2-0.4,2.1-1.8l0.6-0.1l0.5,4.1l-0.6,0.1c-0.5-1.5-0.6-1.6-2.4-1.4
				l-2,0.2l0.5,4c0.1,1,0.3,1.4,0.7,1.7c0.4,0.2,1.2,0.1,2.2,0c1.6-0.2,2.2-0.4,2.6-1c0.3-0.5,0.6-1.2,0.8-2.1L152.4,30.2z"/>
			<path class="st1" d="M163.1,22.8c-0.4-1.4-0.9-2.8-2.8-2.8c-1.6,0-2.4,1.2-2.4,2.3c0,1.6,1,2.3,2.7,3.1c1.7,0.8,3.7,1.8,3.7,4.2
				c0,2.2-1.9,4-4.7,4c-0.9,0-1.6-0.2-2.1-0.3c-0.5-0.2-0.9-0.3-1-0.4c-0.2-0.4-0.5-2.3-0.6-3.3l0.6-0.2c0.3,1.3,1.3,3.4,3.5,3.4
				c1.6,0,2.5-1,2.5-2.6s-1.2-2.3-2.8-3.2c-1.4-0.7-3.5-1.8-3.5-4.2c0-2,1.6-3.8,4.4-3.8c1,0,1.9,0.2,2.7,0.5
				c0.1,0.8,0.2,1.6,0.4,2.9L163.1,22.8z"/>
			<path class="st1" d="M167.6,33.4v-0.6c1.7,0,1.9-0.1,2-1.9l0.5-8.5c0.1-1.8-0.1-1.9-1.8-2.2v-0.6l5.6,0.3v0.6
				c-1.7,0-1.9,0.1-2,1.9l-0.5,8.5c-0.1,1.8,0.1,1.9,1.8,2.2v0.6L167.6,33.4z"/>
			<path class="st1" d="M191,30.4c-1.3,0-1.4,0.1-1.6,1.3l-0.3,1.8c-0.1,0.7-0.2,1.4-0.2,2c-1.4,0.1-3.1,0.3-4.8,0
				c-4.6-0.7-7.2-4.1-6.6-8.3c0.8-4.9,5.1-6.6,9.2-5.9c1.7,0.3,3.3,1,3.9,1.3c-0.1,0.7-0.1,1.9-0.2,3.3h-0.6
				c-0.1-2.6-1.6-3.6-3.6-3.9c-3.2-0.5-5.9,1.5-6.6,5.3c-0.5,3,0.7,6.8,4.8,7.5c0.7,0.1,1.4,0.1,1.9-0.1c0.5-0.2,0.7-0.4,0.9-1.3
				l0.3-1.8c0.2-1.5,0.1-1.7-1.9-2.2l0.1-0.6l5.3,0.9L191,30.4z"/>
			<path class="st1" d="M210.6,28.3c-1.2-0.3-1.7-0.2-2.1,0.7c-0.3,0.6-0.6,1.5-1.2,3.4l-2.5,8.2l-0.6-0.2l-5.4-13.3l0,0l-1.5,5.1
				c-0.6,1.9-0.8,2.9-0.9,3.5c-0.2,1.1,0.2,1.5,1.5,2l-0.2,0.6l-4.8-1.5l0.2-0.6c1.2,0.3,1.8,0.2,2.2-0.8c0.2-0.6,0.6-1.6,1.2-3.4
				l1.4-4.5c0.4-1.5,0.4-1.6,0.2-2.2c-0.3-0.6-0.7-0.9-1.6-1.3l0.2-0.6l3,0.9l5.4,12.8h0.1l1.5-5c0.6-1.9,0.8-2.8,0.9-3.4
				c0.2-0.9-0.2-1.4-1.6-1.9l0.2-0.6l4.8,1.5L210.6,28.3z"/>
			<path class="st1" d="M228.6,39.4c0.2-0.8,0.3-1.3,0.2-1.8c0-0.7-0.4-1-1.8-1.8l-1.4-0.7c-0.6-0.3-0.6-0.3-0.9,0.3l-2.3,4.5l2,1
				c1.7,0.9,1.9,0.7,2.7-0.4l0.5,0.3l-1.8,3.6l-0.5-0.3c0.4-1.4,0.4-1.7-1.3-2.5l-2-1l-1.7,3.4c-0.8,1.6-0.7,1.8,0.9,2.8l-0.3,0.5
				l-5.2-2.6l0.3-0.5c1.6,0.6,1.8,0.6,2.6-1l3.8-7.6c0.8-1.7,0.7-1.8-0.7-2.7l0.3-0.5l8.4,4.2c-0.3,0.7-0.9,1.9-1.2,2.9L228.6,39.4z
				"/>
			<path class="st1" d="M243.1,52.5c-2.5,3.8-6.8,4.4-10,2.3c-3.2-2.1-4.1-6.3-1.9-9.7c2.1-3.2,6.3-4.7,10-2.2
				C244.2,44.9,245.4,49,243.1,52.5z M233.3,45.8c-2.2,3.3-2,7,0.5,8.6c2,1.3,4.8,0.8,7.1-2.6c2.5-3.7,1.8-7-0.5-8.6
				C238.5,42,235.5,42.5,233.3,45.8z"/>
			<path class="st1" d="M261.3,59.9c-1-0.8-1.6-0.9-2.2-0.3c-0.4,0.4-1.1,1.1-2.3,2.5l-1.2,1.3c-1.6,1.9-3.1,3-4.9,3.2
				c-1.4,0.1-2.8-0.5-3.8-1.4c-0.9-0.8-1.7-1.8-1.9-3c-0.3-1.6,0.3-3.2,1.9-5l3.5-4c1.3-1.4,1.2-1.6,0-2.8l0.4-0.4l4.2,3.6l-0.4,0.4
				c-1.3-1-1.5-1-2.8,0.4l-3.2,3.7c-2.2,2.6-2.5,4.9-0.5,6.7c2.3,2,4.7,0.7,7-1.9l1.1-1.2c1.3-1.5,1.8-2.2,2.2-2.7
				c0.4-0.7,0.3-1.2-0.8-2.3l0.4-0.4l3.8,3.3L261.3,59.9z"/>
			<path class="st1" d="M274.1,74.1c-0.8-0.9-1.4-1.1-2.1-0.5c-0.5,0.4-1.3,1-2.8,2.3l-6.4,5.7l-0.4-0.5l2.4-14.2l0,0l-4,3.5
				c-1.5,1.3-2.2,2-2.6,2.5c-0.7,0.8-0.6,1.3,0.3,2.5l-0.4,0.4l-3.3-3.8l0.4-0.4c0.9,0.9,1.4,1.1,2.3,0.5c0.5-0.4,1.3-1,2.8-2.3
				l3.5-3.1c1.2-1,1.2-1.1,1.3-1.7c0.1-0.7-0.1-1.1-0.7-1.9l0.4-0.4l2.1,2.4l-2.2,13.7l0,0l3.9-3.5c1.5-1.3,2.1-2,2.6-2.4
				c0.6-0.7,0.5-1.3-0.4-2.4l0.4-0.4l3.3,3.8L274.1,74.1z"/>
			<path class="st1" d="M280.9,82.6c1.5,2.2,2.1,4.2,1.8,6c-0.3,1.4-1.2,2.9-2.8,4c-2.1,1.4-4.2,1.6-6.2,1c-1.9-0.6-3.5-2.1-5-4.3
				l-2.8-4.2l0.5-0.3c1.1,1.5,1.3,1.5,2.8,0.5l7.1-4.7c1.5-1,1.5-1.2,0.7-2.6l0.5-0.3L280.9,82.6z M270.4,86.7
				c-1.3,0.9-1.3,1.7-0.4,3c2.2,3.3,5.7,3.2,8.5,1.3c1.8-1.2,3-2.9,2.8-4.9c0-1.1-0.5-2.3-1.3-3.5c-0.5-0.7-0.9-1.1-1.1-1.2
				s-0.5,0-1.2,0.4L270.4,86.7z"/>
			<path class="st1" d="M278.7,106.5l0.5-0.3c0.7,1.1,1,1.2,1.6,0.6s1.5-1.5,2.4-2.5l-2-4.1c-1,0.1-2,0.2-2.9,0.4
				c-1.4,0.2-1.5,0.4-0.9,1.9l-0.5,0.3l-2.1-4.1l0.5-0.3c0.8,1.1,1,1.3,3,1.2l12-1l0.5,0.5c-2.7,2.8-5.7,5.9-8.4,8.7
				c-1.3,1.4-1.4,1.8-0.9,3.1l-0.5,0.3L278.7,106.5z M288,99.6L288,99.6c-2,0.2-3.9,0.4-5.8,0.6l1.7,3.5L288,99.6z"/>
			<path class="st1" d="M295.3,119.5c0.9-0.6,1.3-0.9,1.5-1.3c0.4-0.5,0.4-0.9-0.2-2.4l-0.5-1.4l-9.8,3.6c-1.6,0.6-1.7,0.8-1.1,2.8
				l-0.6,0.2l-2.1-5.7l0.6-0.2c0.8,1.8,1,1.9,2.6,1.3l9.8-3.6l-0.5-1.2c-0.6-1.7-0.9-2-1.5-2.1c-0.4-0.1-1-0.1-2,0l-0.2-0.6
				c1.2-0.3,2.6-0.7,3.7-1.1l0.1,0.4c-0.4,0.4-0.3,0.7-0.1,1.3l2.9,7.9c0.2,0.5,0.4,0.7,0.9,0.8l0.2,0.4c-0.9,0.3-2.3,1-3.5,1.5
				L295.3,119.5z"/>
			<path class="st1" d="M286.4,126.7l0.6-0.2c0.6,1.7,0.7,1.8,2.5,1.3l8.2-2.2c1.7-0.5,1.8-0.7,1.5-2.4l0.6-0.2l1.4,5.4l-0.6,0.2
				c-0.6-1.7-0.7-1.8-2.5-1.3l-8.2,2.2c-1.8,0.5-1.8,0.7-1.5,2.4l-0.6,0.2L286.4,126.7z"/>
			<path class="st1" d="M297.9,148c-4.5,0.7-7.8-2-8.4-5.9c-0.6-3.8,1.9-7.3,5.9-7.9c3.8-0.6,7.7,1.5,8.4,5.9
				C304.4,143.7,302.1,147.4,297.9,148z M296.3,136.3c-3.9,0.6-6.5,3.2-6,6.2c0.4,2.3,2.6,4.1,6.7,3.5c4.4-0.7,6.4-3.4,6-6.1
				C302.6,137.5,300.3,135.7,296.3,136.3z"/>
			<path class="st1" d="M304.8,166.3c-0.1-1.2-0.4-1.7-1.3-1.7c-0.6-0.1-1.6-0.1-3.6,0l-8.6,0.3v-0.7l10.8-9.4l0,0l-5.3,0.2
				c-2,0.1-3,0.2-3.6,0.3c-1.1,0.1-1.3,0.6-1.3,2.1h-0.6l-0.2-5h0.6c0.1,1.2,0.4,1.8,1.4,1.8c0.7,0,1.7,0.1,3.6,0l4.7-0.2
				c1.6-0.1,1.6-0.1,2.1-0.5s0.7-0.9,0.7-1.9h0.6l0.1,3.1l-10.3,9.2v0.1l5.2-0.2c2-0.1,2.9-0.2,3.5-0.3c1-0.1,1.2-0.7,1.2-2.1h0.6
				l0.2,5L304.8,166.3z"/>
		</g>
		<g>
			<g>
				<path class="st0" d="M115,279.7l-0.4,6.8h-19v-1.2c0.3,0,0.8-0.1,1.3-0.1c0.5-0.1,0.9-0.1,1.1-0.2c0.3-0.2,0.6-0.4,0.7-0.6
					c0.1-0.3,0.2-0.6,0.2-1v-16.5c0-0.4-0.1-0.7-0.2-0.9s-0.4-0.5-0.7-0.7c-0.3-0.1-0.7-0.3-1.2-0.4s-0.9-0.2-1.2-0.2v-1.2h17.7v5.5
					h-1.2c-0.2-0.8-0.7-1.7-1.4-2.6c-0.7-0.9-1.4-1.4-2-1.5c-0.3,0-0.7-0.1-1.2-0.1s-1,0-1.6,0h-3.6v9.1h2.6c0.8,0,1.4-0.1,1.8-0.2
					c0.4-0.2,0.7-0.4,1-0.8c0.2-0.3,0.4-0.7,0.6-1.3c0.2-0.5,0.3-1,0.3-1.5h1.2v9h-1.2c-0.1-0.5-0.2-1.1-0.4-1.6
					c-0.2-0.6-0.4-1-0.6-1.2c-0.3-0.4-0.7-0.7-1.1-0.8c-0.4-0.1-1-0.2-1.7-0.2h-2.6v6.9c0,0.7,0,1.2,0.1,1.6s0.3,0.7,0.6,0.9
					c0.3,0.2,0.7,0.3,1.1,0.4c0.5,0.1,1.2,0.1,2.1,0.1c0.4,0,0.8,0,1.4,0s1.1,0,1.5-0.1c0.4,0,0.8-0.1,1.3-0.2s0.7-0.3,0.9-0.5
					c0.5-0.5,1-1.3,1.6-2.4c0.5-1.1,0.9-1.8,1-2.3L115,279.7L115,279.7z"/>
			</g>
			<g>
				<path class="st0" d="M127.5,278.6c0.4,0.4,0.8,0.8,1,1.3s0.4,1.1,0.4,1.9c0,1.5-0.5,2.7-1.6,3.6s-2.5,1.4-4.3,1.4
					c-0.9,0-1.8-0.2-2.5-0.5c-0.8-0.3-1.3-0.7-1.7-0.9l-0.3,1.1h-1.2l-0.2-5.5h1.1c0.1,0.4,0.3,0.9,0.5,1.5c0.3,0.6,0.6,1.1,1,1.5
					c0.4,0.5,0.9,0.9,1.5,1.2c0.6,0.3,1.2,0.5,2,0.5c1,0,1.8-0.2,2.4-0.7s0.8-1.1,0.8-2c0-0.5-0.1-0.8-0.3-1.2
					c-0.2-0.3-0.4-0.6-0.8-0.9c-0.4-0.2-0.8-0.5-1.3-0.7s-1.1-0.4-1.7-0.6c-0.5-0.2-1.1-0.4-1.7-0.6c-0.6-0.3-1.1-0.6-1.6-0.9
					c-0.5-0.4-0.9-0.8-1.2-1.4c-0.3-0.5-0.5-1.2-0.5-1.9c0-1.3,0.5-2.4,1.5-3.3s2.2-1.4,3.9-1.4c0.6,0,1.2,0.1,1.9,0.2
					c0.6,0.2,1.2,0.4,1.6,0.6l0.4-0.9h1.2l0.2,5.1h-1.1c-0.2-1.1-0.7-2.1-1.5-2.8c-0.7-0.7-1.6-1.1-2.7-1.1c-0.9,0-1.6,0.2-2.1,0.7
					c-0.5,0.4-0.7,1-0.7,1.6c0,0.5,0.1,0.9,0.2,1.2s0.4,0.6,0.7,0.8c0.3,0.2,0.7,0.4,1.2,0.6s1.1,0.4,1.8,0.6c0.7,0.2,1.4,0.5,2,0.8
					C126.5,277.9,127.1,278.3,127.5,278.6"/>
			</g>
			<g>
				<path class="st0" d="M141.1,285.7c-0.7,0.3-1.4,0.5-2,0.7s-1.4,0.3-2.3,0.3c-1.3,0-2.3-0.3-2.8-1s-0.8-1.6-0.8-2.9V272h-2.9
					v-1.6h2.9v-5h2.9v5h4.6v1.6h-4.5v8.9c0,0.7,0,1.2,0.1,1.7c0,0.4,0.2,0.8,0.3,1.2c0.2,0.3,0.4,0.6,0.8,0.7
					c0.3,0.2,0.8,0.2,1.4,0.2c0.3,0,0.7,0,1.2-0.1c0.5,0,0.9-0.1,1.1-0.2V285.7L141.1,285.7z"/>
			</g>
			<g>
				<path class="st0" d="M148.3,284.6c0,0.6-0.2,1.1-0.6,1.5c-0.4,0.4-1,0.6-1.6,0.6s-1.1-0.2-1.6-0.6s-0.7-0.9-0.7-1.5
					s0.2-1.1,0.7-1.6c0.4-0.4,1-0.7,1.6-0.7s1.1,0.2,1.6,0.7C148,283.4,148.3,284,148.3,284.6"/>
			</g>
			<g>
				<path class="st0" d="M172.9,286.4h-15.1v-2.2c0.3-0.3,0.7-0.7,1.2-1.1s1.1-0.9,1.8-1.4c0.4-0.3,0.9-0.6,1.6-1
					c0.6-0.3,1.3-0.7,2.1-1.1c0.9-0.5,1.5-0.9,2-1.2c0.5-0.3,0.9-0.8,1.2-1.3c0.2-0.3,0.5-0.8,0.6-1.3c0.2-0.5,0.2-1.2,0.2-2.1
					c0-1.3-0.4-2.3-1.1-3c-0.7-0.6-1.6-0.9-2.8-0.9c-0.7,0-1.4,0.1-2,0.4s-1.1,0.7-1.4,1.1c0.1,0.3,0.2,0.8,0.3,1.2
					c0.1,0.5,0.2,0.9,0.2,1.4c0,0.4-0.2,0.8-0.5,1.1c-0.3,0.3-0.8,0.5-1.5,0.5c-0.5,0-1-0.2-1.2-0.6c-0.3-0.4-0.4-0.9-0.4-1.5
					s0.2-1.2,0.5-1.7c0.3-0.6,0.8-1.1,1.4-1.6c0.6-0.5,1.3-0.9,2.2-1.2c0.9-0.3,1.8-0.5,2.8-0.5c2.2,0,4,0.5,5.3,1.5s1.9,2.3,1.9,4
					c0,0.8-0.1,1.5-0.3,2.1s-0.6,1.2-1.1,1.7c-0.6,0.5-1.2,1-2,1.4s-1.9,0.9-3.5,1.6c-0.9,0.4-1.8,0.9-2.6,1.3
					c-0.8,0.5-1.5,0.9-2,1.3h12.4L172.9,286.4L172.9,286.4z"/>
			</g>
			<g>
				<path class="st0" d="M188.6,277.7c0-2.6-0.4-4.6-1.3-6c-0.9-1.4-2.1-2.1-3.6-2.1s-2.7,0.7-3.6,2.1c-0.9,1.4-1.3,3.4-1.3,6
					c0,2.4,0.4,4.4,1.3,5.9c0.9,1.5,2.1,2.2,3.6,2.2s2.8-0.7,3.7-2.2C188.2,282.1,188.6,280.2,188.6,277.7 M190.1,271.3
					c0.7,0.8,1.2,1.8,1.5,2.9s0.5,2.3,0.5,3.5c0,1.5-0.2,2.8-0.6,3.9c-0.4,1.2-1,2.1-1.7,2.9c-0.8,0.8-1.6,1.4-2.7,1.8
					c-1,0.4-2.2,0.6-3.5,0.6c-1.4,0-2.6-0.2-3.7-0.7c-1.1-0.5-2-1.1-2.7-1.9s-1.2-1.8-1.6-3c-0.3-1.1-0.5-2.3-0.5-3.6
					c0-1.3,0.2-2.5,0.5-3.5c0.3-1.1,0.9-2.1,1.6-2.9c0.7-0.8,1.6-1.5,2.7-2c1.1-0.5,2.3-0.7,3.7-0.7c1.5,0,2.7,0.2,3.8,0.7
					C188.5,269.8,189.4,270.5,190.1,271.3z"/>
			</g>
			<g>
				<path class="st0" d="M208,277.7c0-2.6-0.4-4.6-1.3-6c-0.9-1.4-2.1-2.1-3.6-2.1s-2.7,0.7-3.6,2.1c-0.9,1.4-1.3,3.4-1.3,6
					c0,2.4,0.4,4.4,1.3,5.9c0.9,1.5,2.1,2.2,3.6,2.2c1.6,0,2.8-0.7,3.7-2.2C207.6,282.1,208,280.2,208,277.7 M209.5,271.3
					c0.7,0.8,1.2,1.8,1.6,2.9c0.3,1.1,0.5,2.3,0.5,3.5c0,1.5-0.2,2.8-0.6,3.9c-0.4,1.2-1,2.1-1.7,2.9s-1.6,1.4-2.7,1.8
					c-1,0.4-2.2,0.6-3.5,0.6c-1.4,0-2.6-0.2-3.7-0.7c-1.1-0.5-2-1.1-2.7-1.9s-1.2-1.8-1.6-3c-0.3-1.1-0.5-2.3-0.5-3.6
					c0-1.3,0.2-2.5,0.5-3.5c0.3-1.1,0.9-2.1,1.6-2.9c0.7-0.8,1.6-1.5,2.7-2c1.1-0.5,2.3-0.7,3.7-0.7c1.5,0,2.8,0.2,3.8,0.7
					C207.9,269.8,208.8,270.5,209.5,271.3z"/>
			</g>
			<g>
				<path class="st0" d="M229.2,286.4h-15.1v-2.2c0.3-0.3,0.7-0.7,1.2-1.1s1.1-0.9,1.9-1.4c0.4-0.3,0.9-0.6,1.6-1
					c0.6-0.3,1.3-0.7,2.1-1.1c0.9-0.5,1.5-0.9,2-1.2c0.5-0.3,0.9-0.8,1.2-1.3c0.2-0.3,0.5-0.8,0.6-1.3c0.2-0.5,0.2-1.2,0.2-2.1
					c0-1.3-0.4-2.3-1.1-3c-0.7-0.6-1.6-0.9-2.8-0.9c-0.7,0-1.4,0.1-2,0.4s-1.1,0.7-1.4,1.1c0.1,0.3,0.2,0.8,0.3,1.2
					c0.1,0.5,0.2,0.9,0.2,1.4c0,0.4-0.2,0.8-0.5,1.1c-0.3,0.3-0.8,0.5-1.5,0.5c-0.5,0-1-0.2-1.2-0.6c-0.3-0.4-0.4-0.9-0.4-1.5
					s0.2-1.2,0.5-1.7c0.3-0.6,0.8-1.1,1.4-1.6c0.6-0.5,1.3-0.9,2.2-1.2c0.9-0.3,1.8-0.5,2.8-0.5c2.2,0,4,0.5,5.3,1.5s1.9,2.3,1.9,4
					c0,0.8-0.1,1.5-0.4,2.1c-0.2,0.6-0.6,1.2-1.1,1.7c-0.6,0.5-1.2,1-2,1.4s-1.9,0.9-3.5,1.6c-0.9,0.4-1.8,0.9-2.6,1.3
					c-0.8,0.5-1.5,0.9-2,1.3h12.4L229.2,286.4L229.2,286.4z"/>
			</g>
		</g>
		<g>
			<g>
				<path class="st0" d="M115.3,112.3c0,0,10-4.4,13.7-8.5c1.6,4.8,4.6,14.6,8.7,18.5c-3.2,0.7-8.5,4.3-10.6,6.6
					C125,123.1,120.1,115.2,115.3,112.3 M170.2,83.6c-5.7-0.4-9.7,0-17.4,2c-0.7-13.2-9.6-25.2-9.6-25.2c0.7-0.3,14-5.6,22.6-4.3
					C169.3,61.2,170.2,75.9,170.2,83.6z M178.6,245.1c1.2,1.1,3,2.3,5.3,3.1h-44.6c4.5-2.1,8.1-4.3,8.6-6.6c1-4.9,2.9-15.6,0-25.8
					c-2.9-7.6-10.3-12.9-18.7-16.5c-2.1,0.5-5.4,1.5-8.7,3.4c2.2,1.8,4.4,3.3,4.6,3.4c0,0-8.8,6.2-10.9,11.5
					c-1.3-1.7-6.3-6.7-8.3-7.4c0.9-2,5.7-9.1,11-11.3c0.5,0.8,1.4,1.8,2.4,2.7c1.5-1.5,3.6-2.9,6.2-3.7c-9-3.2-18.7-4.8-25.5-5.6
					c-0.2,2.4-0.2,5,0,8.4c-13.7-2.3-27.9,3.6-27.9,3.6c-0.1-0.7-2.8-14.7,0.3-22.7c5.9-2.2,21.3,0.3,29.1,2
					c-0.6,2.2-1.1,4.1-1.4,6.2c6.7-1,12.8-1.2,18.3-0.8c-2.1-2.9-5.8-6.7-12.3-9.7c-6.3-2.9-10.8-6.5-13.8-9.4
					c-2.8,1.2-5.5,2.6-7.1,3.8c-1.4-8.4-6-20.2-11.7-25.1c0,0,14.5-3.5,20.5-8c0.9,6.9,2.5,20.7,7.1,27c-2.1,0-5,0.9-7.9,2
					c3.6,2.7,9.2,6,16.2,7.8c-0.7-2.6-0.3-5.4,0.2-7.1c-1.1,0-2.1,0.1-3.3,0.3c-0.4-3.4-0.8-10.2,0.4-12.6c3.6-1,9.5,0.8,9.8,0.9
					c0,0-3.2,5.8-2.8,11.8c-1.5-0.2-2.7-0.4-3.8-0.4c-0.2,2.9,0.7,5.6,1.6,7.6c7.8,1.6,12.9,8.1,15.4,12.2c4.9,0.9,9.1,2.2,12.8,3.5
					c-0.1-1.6-0.4-4.5-1.5-6.7c-0.9,0.3-2,0.6-3.3,1.2c-1-5.9-5.5-10.8-5.5-10.8c0.3-0.2,5.6-3.3,9.3-3.1c1.7,2.1,2.9,8.7,3.4,12.1
					c-1.3,0.1-2.4,0.2-3.6,0.5c1.2,1.7,2.3,4.9,3,7.5c3,1.1,5.6,2.3,7.7,3.2c1.8-14.2-5.2-25.7-9.9-31.8c-3.3,2.4-6.3,5-7.7,6.4
					c-2.6-9.9-17.1-22.9-17.1-22.9c0.6-0.3,12.3-6.4,16.2-11.4c9.1,5.2,16.2,18.9,17.5,22.7c-1.6,0.4-4.3,2-7.1,4
					c2.1,1.6,4.7,3.8,7.4,6.9c1.3,1.4,2.4,3.1,3.4,5c1.4-1.2,3.3-3.2,4.6-5.7c-2-0.7-3.8-1.3-4.8-1.4c4.1-4.5,5.9-16.2,5.9-16.2
					c0.3,0.2,7.3,4.1,11.1,4.5c0.4,6.3-4.2,14.4-5.7,16.3c-0.7-0.7-2.6-1.6-4.7-2.4c-0.8,2.6-2.3,5.4-4.7,8.2
					c2.9,6.2,5.1,13.6,7.3,20.4c17.6-14.6,12.5-41.8,8.9-54.4c-2.4,1.6-4.9,3.5-8,6.4c-7.5-13.6-22.5-21.9-22.5-21.9
					c0.5-0.6,10.9-12.7,20.1-15.5c6,3.7,14.6,18.8,18.5,26.8c-2.4,1-4.5,2-6.5,3.2c4.3,6,7.3,13.6,9,21.3c2.3-2.2,5-4.3,7.7-6
					c-1-0.8-1.8-1.4-2.4-1.6c0.9-2,5.7-9.1,11-11.3c1.8,3,7.9,7.1,8.2,7.3c0,0-8.8,6.2-10.9,11.5c-0.7-0.9-2.5-2.8-4.3-4.4
					c-4.1,4.9-6.6,11.3-7.8,14.9c0.5,6.5,0,12.7-1.5,17.9c4.1-2.5,9.7-4.1,15.9-5c0.6-6,5.6-10.5,9.9-13.3c-1.7-2.1-3.5-3.8-5.7-5.6
					c5.5-5.8,16.9-16.4,23.1-17.9c7.1,4.9,12.7,18,13,18.7c0,0-15,3-25.1,12.6c-1.5-2.6-2.9-4.6-4.2-6.3c-3.8,4.6-5,9.3-5.4,11.4
					c7.5-0.5,15.3-0.2,22.2,0.7c0.6-3.4,1-6.7,0.6-8.3c3.9-0.4,19.4,0.2,27.9,6.3c-2.9,5.6-3.5,18.9-3.5,19.5c0,0-18-7.7-28-5.9
					c0.6-1.7,1.6-5.4,2.4-9.2c-14.2-0.3-23.1,1.7-30.2,5.3c4.7,0.4,7.8,1.1,9.8,1.7c0.7-1.5,1.2-2.9,1.2-3.7
					c2.2,0.4,10.3,2.9,14,7.4c-2.3,2.6-4.6,9.5-4.7,9.9c0,0-8.4-6.7-14-7.2c0.7-0.9,2-3.3,3.1-5.5c-4-0.6-9.1-0.6-13.1-0.5
					c-2.6,1.7-5,3.6-7.5,5.7c-3,2.6-5.2,6-6.7,9.9c1.1,1.7,1.9,4.1,1.9,6.8c0,4.4-1.9,8.1-4.4,9
					C173.6,236.5,175.4,241.9,178.6,245.1z M174,220.4c0.2-2.6-0.7-4.8-2-4.9c-1.4-0.1-2.6,1.9-2.9,4.4c-0.2,2.6,0.7,4.8,2,4.9
					C172.5,225,173.8,223,174,220.4z M170.3,211.8c-3.1,0.5-4.9,5.1-4,10.1c0.5-5.2,1.4-7.4,3.6-8.8
					C171.4,212.1,170.3,211.8,170.3,211.8z M141.1,110.3c-5.4-13-18.1-22-18.1-22c0.5-0.5,11.1-10.4,19.7-12
					c5.1,3.9,11.3,18.4,14.1,26.1c-3,0.9-5.5,1.8-8.1,3.2c0.7,3.7,0.7,7.5,0,8.6c-0.2-2.7-1-5.4-1.8-7.6
					C145.1,107.6,143.3,108.8,141.1,110.3z M75.6,159.3c-1.8,2.4-2.4,12.9-2.2,20.1c-11.8-4.8-28.4-3.1-28.4-3.1
					c2-4.6,2.8-16.1,2.2-20.1C51.6,158.7,69,159.6,75.6,159.3z M119.3,135.9c-4.8,0.3-14.4,3-18.4,6.2c-0.7-8.9-9.4-22.1-13.7-28.8
					c8.6-0.5,23.8-8.1,23.8-8.1C109.7,113.8,114.3,127.6,119.3,135.9z M191.3,93.9c-6.5-0.9-9.7-0.8-14.3,0.1
					c-0.8-6.6-1.8-19.5,0.5-24.2c6.8-2,18.2,1.2,18.8,1.3C196.3,71.2,190.4,82.5,191.3,93.9z M111.2,101.5c0,0-8-11.6-14.9-14.3
					c2.2-1.7,8.9-8.2,9.8-10.8c2.6,1.3,11.8,7.5,14.7,14.5C116.9,93.2,111.5,101.1,111.2,101.5z M205.2,134.5
					c9-4.8,18.2-22.1,18.2-22.1c0.4,0.5,9.1,10.5,14.9,13.1c-2.9,10.1-14.6,20.2-17.9,22.3c-0.7-1.3-2.6-3.3-4.9-5.4
					c-3.2,3.7-7.2,9.1-8.4,14.5c1.1-6.2,3.7-11.8,6.6-16.1C210.4,138.1,206.9,135.5,205.2,134.5z M248.4,183.8
					c0.8-3.4-3.5-14.7-7.1-22.1c14.6-0.5,31.3-10,31.3-10c0,5.7,4.5,18.3,7.1,22.1C273.9,173.2,255.2,180.4,248.4,183.8z
					 M233.6,142.8c8-5.1,18.1-15.1,20.6-23.2c0,0,10,13.3,17.3,17.5c-6.6,4-20.1,11.8-24.5,19.3
					C244.9,151.7,237.7,145.1,233.6,142.8z M195.4,104.1c2.9-5.9,9.1-22.2,8.5-27.3c3.4,2.2,14.3,6,19.3,6c0,0-8.2,14.6-8.5,27.3
					C208.2,107.1,198.3,103.4,195.4,104.1z M188.8,133.2c-1.6,6.4-5.2,14-8.3,17.7c3.4-6.5,4.6-14.1,5-19c-2.7-0.9-5.4-1.6-7.4-1.5
					c4.3-6.5,5.4-20.3,6.1-27.2c6.2,4.3,20.8,7.3,20.8,7.3c-5.6,5.2-9.8,17.1-10.8,25.6C192.9,135.1,191,134.1,188.8,133.2z
					 M160.2,95.3c3.4,0.4,11.1-1.5,13.5-2.8c-0.7,3.4,2.3,14.9,3.9,19.1c-2-0.7-8.9,1.1-13.5,2.8C164.7,105.8,160.2,95.3,160.2,95.3
					z M252.3,99.5c0,0-8.1,6.1-11.4,14.6c-4.3-2.9-6.7-3.9-10.3-4.8c1.7-5,5.4-14.6,8.7-17.2C244.8,93,251.9,99.2,252.3,99.5z
					 M75.8,136.9c-2.8-7.4-15.2-16.3-15.2-16.3c0.4-0.3,9-6,11.6-10.1c7.5,3.3,14.1,13.3,15.4,16.1
					C84.8,127.5,77.7,134.6,75.8,136.9z"/>
			</g>
			<g>
				<rect x="79.3" y="246.8" class="st0" width="166.1" height="2.5"/>
			</g>
		</g>
		<g>
			<path class="st1" d="M69.7,263c-0.3,0-0.6-0.1-0.9-0.3c-24.3-22.7-39.5-53.3-42.9-86.2c-0.1-0.7,0.4-1.3,1.1-1.4
				c0.7-0.1,1.3,0.4,1.4,1.1c3.3,32.3,18.2,62.4,42.1,84.7c0.5,0.5,0.5,1.3,0.1,1.8C70.4,262.8,70,263,69.7,263z"/>
		</g>
		<g>
			<path class="st1" d="M255,262.9c-0.3,0-0.7-0.1-0.9-0.4c-0.5-0.5-0.4-1.3,0.1-1.8c23.9-22.3,38.9-52.5,42.1-84.9
				c0.1-0.7,0.7-1.2,1.4-1.1c0.7,0.1,1.2,0.7,1.1,1.4c-3.3,33-18.5,63.7-42.9,86.5C255.6,262.8,255.3,262.9,255,262.9z"/>
		</g>
	</g>
</g>
</svg>
