<svg width="128" height="128" viewBox="0 0 128 128" fill="none" xmlns="http://www.w3.org/2000/svg">
<g clip-path="url(#clip0_197_291)">
<path d="M0 0H128V128H0V0Z" fill="#F9F9F9"/>
<path d="M43.0645 61.675C44.1098 59.883 45.3827 58.2333 46.8677 56.7482C48.6656 54.9503 50.703 53.4641 52.9442 52.3156V43.0652H60.1181V33.1855H43.0645V61.675ZM52.9442 56.0975C47.1368 59.7171 43.2316 66.1005 43.0704 73.4096C43.068 73.4878 43.0668 73.566 43.0656 73.6442C43.0645 73.7224 43.0645 73.8007 43.0645 73.8789H52.9442C52.9442 69.1488 55.932 65.1014 60.1181 63.5263V53.3053C57.5285 53.7924 55.1048 54.7595 52.9442 56.1082V56.0975ZM43.0893 84.9355H60.1181V94.8152H43.0893V84.9355ZM63.9996 52.945C63.8028 52.945 63.6073 52.9473 63.4117 52.9544V62.8401C63.6061 62.8294 63.8016 62.8247 63.9996 62.8247C70.095 62.8247 75.055 67.7847 75.055 73.8801C75.055 79.9755 70.095 84.9355 63.9996 84.9355H63.4117V94.8152H63.9996C75.5433 94.8152 84.9347 85.4238 84.9347 73.8801C84.9347 62.3364 75.5433 52.945 63.9996 52.945ZM63.4117 33.1855H81.9942V43.0652H63.4117V33.1855Z" fill="#0F152F"/>
</g>
<defs>
<clipPath id="clip0_197_291">
<path d="M0 24C0 15.5992 0 11.3988 1.6349 8.19014C3.073 5.36771 5.36771 3.073 8.19014 1.6349C11.3988 0 15.5992 0 24 0H104C112.401 0 116.601 0 119.81 1.6349C122.632 3.073 124.927 5.36771 126.365 8.19014C128 11.3988 128 15.5992 128 24V104C128 112.401 128 116.601 126.365 119.81C124.927 122.632 122.632 124.927 119.81 126.365C116.601 128 112.401 128 104 128H24C15.5992 128 11.3988 128 8.19014 126.365C5.36771 124.927 3.073 122.632 1.6349 119.81C0 116.601 0 112.401 0 104V24Z" fill="white"/>
</clipPath>
</defs>
</svg>
