<svg width="64" height="64" viewBox="0 0 64 64" fill="none" xmlns="http://www.w3.org/2000/svg">
<path d="M4 32C4 37.5379 5.64217 42.9514 8.71885 47.556C11.7955 52.1605 16.1685 55.7494 21.2849 57.8686C26.4012 59.9879 32.0311 60.5424 37.4625 59.462C42.894 58.3816 47.8831 55.7148 51.799 51.799C55.7149 47.8831 58.3816 42.894 59.462 37.4625C60.5424 32.031 59.9879 26.4012 57.8686 21.2849C55.7494 16.1685 52.1605 11.7955 47.556 8.71884C42.9514 5.64216 37.5379 3.99999 32 3.99999C24.5764 4.00793 17.4591 6.96047 12.2098 12.2098C6.96048 17.4591 4.00794 24.5764 4 32ZM39.414 18.586C39.7889 18.961 39.9996 19.4697 39.9996 20C39.9996 20.5303 39.7889 21.0389 39.414 21.414L28.828 32L39.414 42.586C39.7783 42.9632 39.9799 43.4684 39.9753 43.9928C39.9708 44.5172 39.7605 45.0188 39.3896 45.3896C39.0188 45.7604 38.5172 45.9708 37.9928 45.9753C37.4684 45.9799 36.9632 45.7783 36.586 45.414L24.586 33.414C24.2111 33.0389 24.0004 32.5303 24.0004 32C24.0004 31.4697 24.2111 30.961 24.586 30.586L36.586 18.586C36.9611 18.211 37.4697 18.0004 38 18.0004C38.5303 18.0004 39.0389 18.211 39.414 18.586Z" fill="white" fill-opacity="0.3"/>
</svg>
