<svg width="128" height="128" viewBox="0 0 128 128" fill="none" xmlns="http://www.w3.org/2000/svg">
<g clip-path="url(#clip0_197_351)">
<path d="M110.545 0H17.4545C12.8253 0 8.38568 1.83896 5.11232 5.11232C1.83896 8.38568 0 12.8253 0 17.4545L0 110.545C0 115.175 1.83896 119.614 5.11232 122.888C8.38568 126.161 12.8253 128 17.4545 128H110.545C115.175 128 119.614 126.161 122.888 122.888C126.161 119.614 128 115.175 128 110.545V17.4545C128 12.8253 126.161 8.38568 122.888 5.11232C119.614 1.83896 115.175 0 110.545 0ZM43.6364 101.295C43.6373 101.649 43.5682 102.001 43.4331 102.329C43.2979 102.658 43.0993 102.956 42.8487 103.207C42.598 103.458 42.3002 103.658 41.9724 103.794C41.6446 103.93 41.2931 104 40.9382 104H29.44C29.0844 104.001 28.7322 103.932 28.4035 103.796C28.0749 103.66 27.7762 103.461 27.5248 103.21C27.2734 102.958 27.0742 102.66 26.9385 102.331C26.8029 102.002 26.7336 101.65 26.7345 101.295V53.0909C26.7345 52.3734 27.0196 51.6852 27.527 51.1779C28.0343 50.6705 28.7225 50.3855 29.44 50.3855H40.9382C41.6545 50.3874 42.3407 50.6733 42.8465 51.1804C43.3523 51.6876 43.6364 52.3746 43.6364 53.0909V101.295ZM35.1855 45.8182C33.0278 45.8182 30.9187 45.1784 29.1247 43.9797C27.3307 42.781 25.9325 41.0772 25.1068 39.0838C24.2811 37.0904 24.065 34.897 24.486 32.7808C24.9069 30.6647 25.9459 28.7209 27.4716 27.1952C28.9972 25.6695 30.941 24.6305 33.0572 24.2096C35.1734 23.7887 37.3668 24.0047 39.3602 24.8304C41.3536 25.6561 43.0573 27.0543 44.256 28.8483C45.4547 30.6423 46.0945 32.7515 46.0945 34.9091C46.0945 37.8024 44.9452 40.5771 42.8993 42.623C40.8535 44.6688 38.0787 45.8182 35.1855 45.8182ZM103.738 101.484C103.739 101.811 103.675 102.134 103.551 102.437C103.426 102.739 103.243 103.013 103.012 103.245C102.781 103.476 102.506 103.659 102.204 103.784C101.902 103.908 101.578 103.972 101.251 103.971H88.8873C88.5604 103.972 88.2365 103.908 87.9343 103.784C87.6321 103.659 87.3575 103.476 87.1264 103.245C86.8952 103.013 86.712 102.739 86.5874 102.437C86.4627 102.134 86.399 101.811 86.4 101.484V78.9018C86.4 75.5273 87.3891 64.1236 77.5782 64.1236C69.9782 64.1236 68.4291 71.9273 68.1236 75.4327V101.513C68.1237 102.166 67.8667 102.793 67.408 103.259C66.9494 103.724 66.3261 103.99 65.6727 104H53.7309C53.4046 104 53.0815 103.936 52.7802 103.811C52.4788 103.685 52.2051 103.502 51.9747 103.271C51.7443 103.04 51.5618 102.766 51.4376 102.464C51.3134 102.162 51.25 101.839 51.2509 101.513V52.88C51.25 52.5537 51.3134 52.2304 51.4376 51.9287C51.5618 51.627 51.7443 51.3527 51.9747 51.1217C52.2051 50.8906 52.4788 50.7073 52.7802 50.5822C53.0815 50.4571 53.4046 50.3927 53.7309 50.3927H65.6727C66.3324 50.3927 66.965 50.6548 67.4315 51.1212C67.898 51.5877 68.16 52.2203 68.16 52.88V57.0836C70.9818 52.8436 75.1636 49.5855 84.0873 49.5855C103.855 49.5855 103.724 68.0436 103.724 78.1818L103.738 101.484Z" fill="#F9F9F9"/>
</g>
<defs>
<clipPath id="clip0_197_351">
<rect width="128" height="128" fill="white"/>
</clipPath>
</defs>
</svg>
