<svg width="512" height="512" viewBox="0 0 512 512" fill="none" xmlns="http://www.w3.org/2000/svg">
<g clip-path="url(#clip0_135_320)">
<path d="M440.022 476.573L428.962 421.03C428.154 416.966 424.204 414.325 420.141 415.138C416.077 415.947 413.44 419.897 414.248 423.96L425.264 479.285C425.652 482.172 426.084 488.834 422.652 492.786C416.796 499.531 404.208 496.052 372.06 496.997V426.29C372.06 422.146 368.702 418.788 364.558 418.788C360.414 418.788 357.056 422.146 357.056 426.29V496.997H217.186C213.042 496.997 209.684 500.355 209.684 504.499C209.684 508.643 213.042 512.001 217.186 512.001H409.679C420.401 512.001 428.576 508.846 433.979 502.624C440.146 495.523 441.615 484.533 440.022 476.573Z" fill="white"/>
<path d="M422.127 386.692C418.125 371.685 419.528 352.233 400.111 337.024C389.02 328.358 385.601 328.956 321.973 310.187L302.251 296.85V284.417C338.231 264.895 355.523 230.282 355.523 196.337V194.952C380.084 190.411 392.077 165.693 378.389 147.189C378.397 147.077 378.791 119.383 377.548 107.744C364.975 1.755 231.73 -37.075 164.08 41.735C161.35 44.851 161.661 49.591 164.777 52.321C167.894 55.051 172.633 54.739 175.364 51.624C231.123 -12.809 337.187 12.555 359.557 93.744L359.679 94.194C364.734 112.868 363.087 125.862 363.411 135.728C358.968 133.897 354.031 132.837 348.825 132.737C343.446 129.792 338.872 124.695 336.422 117.975C335.165 114.278 334.685 112.392 334.308 106.178C334.159 100.311 331.478 94.781 326.953 91.005C311.297 77.942 297.882 97.962 212.99 88.014L201.684 86.442C189.48 84.542 178.187 93.703 177.863 106.246C177.69 109.869 177.486 112.08 176.372 116.108C173.909 124.352 169.035 128.512 169.379 128.154C167.465 130.083 165.362 131.64 163.35 132.737C158.143 132.837 153.203 133.896 148.759 135.729C148.792 113.821 148.88 99.521 157.757 79.282C159.42 75.488 157.694 71.063 153.899 69.399C150.105 67.736 145.681 69.462 144.016 73.257C137.979 87.025 134.535 101.734 133.875 117.058C133.875 117.159 133.636 145.17 133.783 147.191C120.046 165.761 132.155 190.427 156.653 194.954C157.118 260.473 208.72 283.421 209.485 284.181C209.55 284.217 209.617 284.252 209.682 284.288V296.967L190.264 310.098C131.972 327.292 126.895 328.757 126.205 329.014C109.878 335.102 97.499 348.104 93.768 366.799C70.928 481.532 71.896 476.598 71.841 476.985C68.971 497.262 79.681 512 102.256 512H182.178C186.322 512 189.68 508.642 189.68 504.498C189.68 500.354 186.322 496.996 182.178 496.996H155.148V426.29C155.148 422.146 151.79 418.788 147.646 418.788C143.502 418.788 140.144 422.146 140.144 426.29V496.997H102.255C90.11 496.997 85.007 491.676 86.671 479.284C110.404 363.887 107.125 363.293 116.924 352.658C120.824 348.421 125.835 345.206 131.217 343.158C186.148 326.955 188.526 326.254 188.555 326.245C188.571 326.24 188.605 326.23 188.676 326.209C203.137 366.42 202.163 364.713 203.578 367.192C207.46 373.998 216.349 377.279 224.705 372.448C226.747 371.639 244.427 364.63 247.024 363.6V426.288C247.024 430.432 250.382 433.79 254.526 433.79C258.67 433.79 262.028 430.432 262.028 426.288V363.262C294.548 375.078 285.272 371.576 289.099 373.37C296.952 377.049 306.627 373.302 309.678 364.749L323.415 326.254C389.575 345.769 372.53 340.822 375.394 341.586C375.999 341.948 398.635 345.589 403.45 369.727L407.411 389.621C408.22 393.685 412.17 396.324 416.233 395.514C420.298 394.705 422.935 390.755 422.127 386.692ZM355.523 148.797C373.63 154.183 373.619 174.178 355.523 179.562V148.797ZM156.656 179.563C138.547 174.179 138.55 154.179 156.656 148.796V179.563ZM177.553 227.395C169.924 208.147 171.66 197.908 171.66 145.27C183.585 138.238 192.393 124.888 192.869 106.559C192.954 103.179 196.097 100.752 199.371 101.266L201.675 101.616C208.814 101.959 245.742 110.705 312.803 101.267C314.424 101.016 316.082 101.473 317.343 102.524C319.174 104.053 319.255 105.741 319.34 107.197C319.818 120.483 324.719 132.461 334.537 140.956L334.483 140.91C335.87 142.161 338.309 143.973 340.516 145.268C340.516 145.522 340.519 195.41 340.519 196.338C340.519 256.855 276.917 300.964 217.342 271.369C217.31 271.353 217.265 271.33 217.22 271.309L217.218 271.308C199.732 262.223 185.219 246.811 177.553 227.395ZM216.676 359.774C216.462 359.754 217.186 361.254 202.394 320.008L215.521 311.132L242.823 349.128C217.058 359.443 218.137 358.691 216.676 359.774ZM254.763 340.031L224.689 298.178V290.686C241.078 296.105 254.448 295.673 255.362 295.757V295.692C255.407 295.692 255.452 295.695 255.498 295.695L255.499 295.758C269.422 295.519 277.493 293.971 287.247 290.768V298.258L254.763 340.031ZM295.532 359.745C295.363 359.897 295.089 359.308 293.491 358.727C291.437 357.981 269.937 350.174 266.777 349.026L296.363 310.98L309.713 320.008L295.532 359.745Z" fill="white"/>
<path d="M188.555 326.245C188.559 326.244 188.527 326.253 188.555 326.245Z" fill="white"/>
</g>
<defs>
<clipPath id="clip0_135_320">
<rect width="512.001" height="512.001" fill="white"/>
</clipPath>
</defs>
</svg>
