<svg width="100" height="100" viewBox="0 0 100 100" fill="none" xmlns="http://www.w3.org/2000/svg">
<g filter="url(#filter0_dd_218_298)">
<circle cx="50" cy="50" r="36" fill="#050115"/>
</g>
<path d="M49.9255 69.5605C49.7506 69.5605 49.5829 69.491 49.4592 69.3674C49.3356 69.2437 49.2661 69.076 49.2661 68.9011V59.9781C49.2661 59.8032 49.3356 59.6355 49.4592 59.5118C49.5829 59.3882 49.7506 59.3187 49.9255 59.3187C50.1003 59.3187 50.268 59.3882 50.3917 59.5118C50.5153 59.6355 50.5848 59.8032 50.5848 59.9781V68.8836C50.5871 68.9716 50.5718 69.0592 50.5397 69.1413C50.5077 69.2233 50.4595 69.2981 50.398 69.3612C50.3365 69.4243 50.2631 69.4744 50.1819 69.5087C50.1007 69.5429 50.0135 69.5605 49.9255 69.5605Z" fill="white"/>
<path d="M49.9253 69.5605C49.7632 69.5607 49.6067 69.5012 49.4857 69.3934L45.5297 65.9297C45.4647 65.872 45.4118 65.802 45.3739 65.7238C45.336 65.6457 45.3139 65.5608 45.3088 65.474C45.3037 65.3873 45.3157 65.3004 45.3442 65.2183C45.3726 65.1362 45.417 65.0606 45.4747 64.9956C45.5325 64.9307 45.6024 64.8778 45.6806 64.8398C45.7588 64.8019 45.8437 64.7798 45.9304 64.7747C46.0171 64.7696 46.104 64.7816 46.1861 64.8101C46.2682 64.8386 46.3439 64.883 46.4088 64.9407L50.3648 68.4044C50.4304 68.4608 50.4841 68.5296 50.5229 68.6068C50.5617 68.6841 50.5848 68.7682 50.591 68.8544C50.5971 68.9406 50.5861 69.0272 50.5586 69.1092C50.5311 69.1911 50.4877 69.2668 50.4308 69.3319C50.3678 69.404 50.2901 69.4617 50.2029 69.5011C50.1157 69.5406 50.021 69.5608 49.9253 69.5605Z" fill="white"/>
<path d="M49.9251 69.5605C49.7904 69.5617 49.6585 69.5216 49.5473 69.4456C49.436 69.3696 49.3507 69.2614 49.3028 69.1355C49.2549 69.0095 49.2468 68.872 49.2794 68.7413C49.3121 68.6106 49.384 68.493 49.4855 68.4044L53.4416 64.9407C53.5065 64.883 53.5822 64.8386 53.6643 64.8101C53.7464 64.7816 53.8332 64.7696 53.92 64.7747C54.0067 64.7798 54.0916 64.8019 54.1698 64.8398C54.248 64.8778 54.3179 64.9307 54.3756 64.9956C54.4334 65.0606 54.4777 65.1362 54.5062 65.2183C54.5347 65.3004 54.5467 65.3873 54.5416 65.474C54.5365 65.5608 54.5144 65.6457 54.4765 65.7238C54.4386 65.802 54.3856 65.872 54.3207 65.9297L50.3647 69.3934C50.2443 69.5023 50.0874 69.562 49.9251 69.5605Z" fill="white"/>
<path d="M52.3559 56.6945H47.4899C45.7291 56.6922 44.0411 55.9917 42.7961 54.7466C41.551 53.5015 40.8505 51.8135 40.8482 50.0527V37.3055C40.8464 36.4317 41.0169 35.5662 41.3498 34.7584C41.6827 33.9506 42.1715 33.2162 42.7883 32.5974C43.4051 31.9786 44.1378 31.4873 44.9445 31.1518C45.7512 30.8162 46.6162 30.6429 47.4899 30.6417H52.3559C53.229 30.6406 54.0938 30.8115 54.9009 31.1447C55.708 31.4779 56.4415 31.9669 57.0595 32.5837C57.6775 33.2005 58.168 33.933 58.5028 34.7394C58.8376 35.5458 59.0102 36.4103 59.0108 37.2835V50.0527C59.0102 50.9259 58.8376 51.7904 58.5028 52.5968C58.168 53.4032 57.6775 54.1357 57.0595 54.7525C56.4415 55.3693 55.708 55.8583 54.9009 56.1915C54.0938 56.5247 53.229 56.6956 52.3559 56.6945ZM47.4899 31.9604C46.0785 31.9616 44.7252 32.5228 43.7272 33.5208C42.7292 34.5188 42.168 35.8721 42.1668 37.2835V50.0527C42.1692 51.4638 42.7307 52.8164 43.7285 53.8141C44.7263 54.8119 46.0789 55.3735 47.4899 55.3758H52.3559C53.0558 55.377 53.7492 55.2402 54.3963 54.9732C55.0434 54.7063 55.6315 54.3144 56.1271 53.8201C56.6226 53.3257 57.0159 52.7386 57.2845 52.0921C57.553 51.4457 57.6915 50.7527 57.6921 50.0527V37.3055C57.6944 36.6036 57.5581 35.9083 57.2908 35.2593C57.0236 34.6103 56.6307 34.0206 56.1349 33.5239C55.639 33.0272 55.0499 32.6334 54.4014 32.3651C53.7528 32.0968 53.0577 31.9592 52.3559 31.9604H47.4899Z" fill="white"/>
<path d="M49.9255 41.5912C49.7506 41.5912 49.5829 41.5218 49.4592 41.3981C49.3356 41.2745 49.2661 41.1067 49.2661 40.9319V37.622C49.2661 37.4471 49.3356 37.2794 49.4592 37.1558C49.5829 37.0321 49.7506 36.9626 49.9255 36.9626C50.1003 36.9626 50.268 37.0321 50.3917 37.1558C50.5153 37.2794 50.5848 37.4471 50.5848 37.622V40.9319C50.5848 41.1067 50.5153 41.2745 50.3917 41.3981C50.268 41.5218 50.1003 41.5912 49.9255 41.5912Z" fill="white"/>
<defs>
<filter id="filter0_dd_218_298" x="0" y="0" width="100" height="100" filterUnits="userSpaceOnUse" color-interpolation-filters="sRGB">
<feFlood flood-opacity="0" result="BackgroundImageFix"/>
<feColorMatrix in="SourceAlpha" type="matrix" values="0 0 0 0 0 0 0 0 0 0 0 0 0 0 0 0 0 0 127 0" result="hardAlpha"/>
<feOffset dx="4" dy="4"/>
<feGaussianBlur stdDeviation="5"/>
<feComposite in2="hardAlpha" operator="out"/>
<feColorMatrix type="matrix" values="0 0 0 0 1 0 0 0 0 1 0 0 0 0 1 0 0 0 0.1 0"/>
<feBlend mode="normal" in2="BackgroundImageFix" result="effect1_dropShadow_218_298"/>
<feColorMatrix in="SourceAlpha" type="matrix" values="0 0 0 0 0 0 0 0 0 0 0 0 0 0 0 0 0 0 127 0" result="hardAlpha"/>
<feOffset dx="-4" dy="-4"/>
<feGaussianBlur stdDeviation="5"/>
<feComposite in2="hardAlpha" operator="out"/>
<feColorMatrix type="matrix" values="0 0 0 0 1 0 0 0 0 1 0 0 0 0 1 0 0 0 0.1 0"/>
<feBlend mode="normal" in2="effect1_dropShadow_218_298" result="effect2_dropShadow_218_298"/>
<feBlend mode="normal" in="SourceGraphic" in2="effect2_dropShadow_218_298" result="shape"/>
</filter>
</defs>
</svg>
