<svg width="128" height="128" viewBox="0 0 128 128" fill="none" xmlns="http://www.w3.org/2000/svg">
<g clip-path="url(#clip0_197_320)">
<path d="M101.75 0H26.25C11.7758 0 0 11.7758 0 26.25V101.75C0 116.224 11.7758 128 26.25 128H101.75C116.224 128 128 116.224 128 101.75V26.25C128 11.7758 116.224 0 101.75 0ZM97.8285 92.4723L95.82 95.8197C88.0095 103.63 67.4318 95.7155 49.858 78.142C32.2845 60.5685 24.3697 39.9908 32.1802 32.18L35.5277 30.1715C38.5605 28.352 42.4943 29.3353 44.3138 32.368L49.0532 40.267C50.5652 42.7867 50.168 46.012 48.0902 48.09C45.1612 51.019 45.1612 55.7677 48.0902 58.6965L69.3035 79.9098C72.2325 82.8388 76.9813 82.8388 79.91 79.9098C81.9878 77.8318 85.2133 77.4348 87.733 78.9465L95.632 83.686C98.6645 85.5057 99.648 89.4395 97.8285 92.4723Z" fill="#F9F9F9"/>
</g>
<defs>
<clipPath id="clip0_197_320">
<path d="M0 24C0 15.5992 0 11.3988 1.6349 8.19014C3.073 5.36771 5.36771 3.073 8.19014 1.6349C11.3988 0 15.5992 0 24 0H104C112.401 0 116.601 0 119.81 1.6349C122.632 3.073 124.927 5.36771 126.365 8.19014C128 11.3988 128 15.5992 128 24V104C128 112.401 128 116.601 126.365 119.81C124.927 122.632 122.632 124.927 119.81 126.365C116.601 128 112.401 128 104 128H24C15.5992 128 11.3988 128 8.19014 126.365C5.36771 124.927 3.073 122.632 1.6349 119.81C0 116.601 0 112.401 0 104V24Z" fill="white"/>
</clipPath>
</defs>
</svg>
