<svg width="512" height="512" viewBox="0 0 512 512" fill="none" xmlns="http://www.w3.org/2000/svg">
<g clip-path="url(#clip0_183_295)">
<path fill-rule="evenodd" clip-rule="evenodd" d="M230.1 243.96H231.243C234.693 243.98 238.031 242.742 240.632 240.477L320.296 170.544C323.139 168.053 324.875 164.535 325.123 160.763C325.371 156.992 324.111 153.277 321.62 150.434C319.129 147.592 315.61 145.856 311.839 145.608C308.068 145.36 304.353 146.62 301.51 149.111L232.63 209.57L205.047 177.637C202.568 174.807 199.071 173.073 195.317 172.812C191.564 172.551 187.861 173.786 185.014 176.245C182.168 178.705 180.409 182.191 180.123 185.943C179.837 189.694 181.047 193.406 183.487 196.269L220.462 239.076C222.906 241.908 226.367 243.663 230.095 243.96H230.1ZM256 287.613C237.046 287.608 218.52 281.982 202.763 271.448C187.006 260.913 174.728 245.942 167.48 228.429C160.232 210.915 158.34 191.646 162.044 173.058C165.748 154.469 174.881 137.396 188.288 123.999C201.695 110.601 218.774 101.48 237.366 97.7892C255.957 94.0985 275.225 96.0038 292.733 103.264C310.241 110.525 325.203 122.814 335.727 138.578C346.25 154.342 351.863 172.873 351.854 191.827C351.814 217.23 341.7 241.581 323.731 259.537C305.761 277.494 281.404 287.591 256 287.613ZM256 67.473C288.965 67.5143 320.568 80.6302 343.874 103.943C367.18 127.256 380.287 158.862 380.319 191.827C380.319 260.358 324.509 316.096 255.99 316.096C187.471 316.096 131.662 260.358 131.662 191.827C131.694 158.861 144.803 127.253 168.111 103.94C191.419 80.6267 223.024 67.5119 255.99 67.473H256ZM96.6064 293.317C95.3375 292.996 94.1451 292.425 93.0989 291.639C92.0526 290.853 91.1734 289.866 90.5124 288.736L90.4493 288.636L90.3913 288.53C89.092 286.23 88.7453 283.513 89.4254 280.961L96.0714 256.209C97.8593 249.667 97.8783 242.768 96.1265 236.217C94.3746 229.666 90.9147 223.697 86.1003 218.921L67.1644 200.021C65.2924 198.12 64.2432 195.559 64.2432 192.891C64.2432 190.223 65.2924 187.662 67.1644 185.761L85.3134 167.621C90.126 162.843 93.5852 156.875 95.338 150.324C97.0907 143.773 97.0743 136.874 95.2904 130.332L88.3564 104.478C87.6807 101.926 88.0277 99.2104 89.3233 96.91L89.3813 96.804L89.4444 96.704C90.7896 94.4829 92.9286 92.856 95.4284 92.153L120.293 85.527C126.857 83.8101 132.843 80.3718 137.633 75.5674C142.423 70.7629 145.843 64.7666 147.54 58.198L154.474 32.344C155.188 29.7814 156.88 27.6019 159.186 26.2751C161.492 24.9484 164.226 24.5805 166.8 25.251L191.611 31.863C198.144 33.6405 205.031 33.6557 211.571 31.9071C218.111 30.1585 224.072 26.7084 228.845 21.908L247.835 2.87496L247.882 2.82996C249.775 1.01386 252.296 -0.000244141 254.918 -0.000244141C257.541 -0.000244141 260.062 1.01386 261.954 2.82996L262.002 2.87596L280.202 21.148C284.972 25.9547 290.932 29.4088 297.474 31.1573C304.016 32.9059 310.905 32.8861 317.436 31.1L343.315 24.148C345.761 23.5159 348.353 23.8005 350.602 24.948L350.788 25.036L350.966 25.136C353.272 26.4732 354.957 28.6648 355.658 31.236L362.3 56.076C364.013 62.6288 367.442 68.6068 372.232 73.3951C377.022 78.1833 383.002 81.6087 389.555 83.319L415.455 90.27C418.022 90.9823 420.207 92.6745 421.538 94.9821C422.87 97.2897 423.242 100.028 422.573 102.607L415.928 127.444C414.151 133.972 414.137 140.854 415.887 147.389C417.637 153.925 421.09 159.879 425.892 164.644L444.882 183.584L444.918 183.621C446.755 185.528 447.775 188.076 447.764 190.724C447.753 193.371 446.71 195.91 444.857 197.802L426.7 216.03C421.9 220.799 418.447 226.753 416.691 233.288C414.936 239.823 414.941 246.707 416.706 253.239L423.649 279.093C424.316 281.672 423.944 284.411 422.613 286.719C421.282 289.026 419.097 290.719 416.53 291.433L391.73 298.133C385.171 299.838 379.185 303.262 374.39 308.051C369.595 312.841 366.164 318.823 364.451 325.38L357.526 351.233C356.8 353.773 355.125 355.937 352.848 357.277C350.571 358.617 347.867 359.031 345.293 358.433L345.235 358.419L320.371 351.7C313.84 349.919 306.952 349.902 300.412 351.652C293.872 353.401 287.913 356.855 283.143 361.66L264.19 380.65C262.294 382.52 259.739 383.569 257.076 383.57C254.412 383.572 251.856 382.525 249.958 380.656L231.792 362.516C228.254 358.934 224.041 356.088 219.396 354.144C214.752 352.2 209.768 351.195 204.732 351.189C201.303 351.207 197.888 351.636 194.561 352.467L168.714 359.407C167.437 359.759 166.103 359.855 164.789 359.689C163.475 359.524 162.206 359.1 161.056 358.443C159.906 357.786 158.898 356.907 158.088 355.859C157.279 354.81 156.685 353.612 156.34 352.333L149.685 327.5C147.969 320.947 144.539 314.969 139.747 310.181C134.955 305.393 128.975 301.967 122.421 300.255L96.6064 293.321V293.317ZM410.76 480.934L365.224 383.3L361.134 384.795C353.654 387.544 345.507 387.914 337.809 385.853L313.009 379.241C311.309 378.705 309.492 378.664 307.769 379.122C306.047 379.581 304.491 380.521 303.282 381.831L292.815 392.319L348.665 512L357.865 472.813C358.348 470.671 359.323 468.67 360.713 466.969C362.102 465.269 363.868 463.915 365.871 463.014C367.874 462.114 370.059 461.691 372.254 461.781C374.448 461.87 376.591 462.469 378.514 463.529L410.76 480.934ZM211.69 382.714C210.501 381.394 208.963 380.437 207.253 379.952C205.543 379.468 203.731 379.477 202.026 379.977L201.975 379.99L176.044 386.954C167.719 389.201 158.878 388.563 150.962 385.142L146.733 383.328L101.233 480.928L133.488 463.534C135.411 462.474 137.554 461.876 139.748 461.787C141.942 461.697 144.126 462.12 146.129 463.021C148.131 463.921 149.896 465.275 151.285 466.976C152.674 468.677 153.648 470.677 154.13 472.819L163.341 511.999L219.863 390.873L211.69 382.714Z" fill="#74F7FF"/>
</g>
<defs>
<clipPath id="clip0_183_295">
<rect width="512" height="512" fill="white"/>
</clipPath>
</defs>
</svg>
