<svg width="64" height="64" viewBox="0 0 64 64" fill="none" xmlns="http://www.w3.org/2000/svg">
<path d="M60 32C60 26.4621 58.3578 21.0486 55.2811 16.444C52.2045 11.8395 47.8315 8.25064 42.7151 6.13138C37.5988 4.01213 31.9689 3.45764 26.5375 4.53802C21.106 5.61841 16.1169 8.28515 12.201 12.201C8.28514 16.1169 5.6184 21.106 4.53802 26.5375C3.45763 31.9689 4.01212 37.5988 6.13138 42.7151C8.25063 47.8315 11.8395 52.2045 16.444 55.2812C21.0486 58.3578 26.4621 60 32 60C39.4236 59.9921 46.5409 57.0395 51.7902 51.7902C57.0395 46.5409 59.9921 39.4236 60 32ZM24.586 45.414C24.2111 45.039 24.0004 44.5303 24.0004 44C24.0004 43.4697 24.2111 42.9611 24.586 42.586L35.172 32L24.586 21.414C24.2217 21.0368 24.0201 20.5316 24.0247 20.0072C24.0292 19.4828 24.2395 18.9812 24.6104 18.6104C24.9812 18.2396 25.4828 18.0292 26.0072 18.0247C26.5316 18.0201 27.0368 18.2217 27.414 18.586L39.414 30.586C39.7889 30.9611 39.9996 31.4697 39.9996 32C39.9996 32.5303 39.7889 33.039 39.414 33.414L27.414 45.414C27.0389 45.789 26.5303 45.9996 26 45.9996C25.4697 45.9996 24.9611 45.789 24.586 45.414Z" fill="white" fill-opacity="0.3"/>
</svg>
