<svg width="40" height="42" viewBox="0 0 40 42" fill="none" xmlns="http://www.w3.org/2000/svg">
<rect width="40" height="42" rx="2" fill="white"/>
<g clip-path="url(#clip0_192_296)">
<path d="M6.30375 20.7703C6.30375 21.9185 6.14875 22.7942 4.5325 22.7942C2.91625 22.7942 2.67625 21.955 2.67625 20.7703V17.9772C2.67625 17.3538 2.4275 17.2904 2 17.2904V17.1231H4.0425V17.2904C3.62375 17.2904 3.3675 17.3484 3.3675 17.9772V20.7703C3.3675 21.6257 3.55375 22.4637 4.56375 22.4637C5.68875 22.4637 5.86125 21.7674 5.86125 20.7703V17.9772C5.86125 17.3538 5.605 17.2904 5.1875 17.2904V17.1231H6.98V17.2904C6.5525 17.2904 6.30375 17.3484 6.30375 17.9772V20.7703ZM10.6 22.5649C10.1531 22.73 9.68219 22.8068 9.21 22.7915C7.65625 22.7915 6.91 21.5164 6.91 19.73C6.91 18.1783 7.37625 17.0381 9.035 17.0381C9.54081 17.0439 10.0436 17.1229 10.53 17.2729L10.6 18.5898H10.4062C10.305 18.1202 9.995 17.3646 9.03125 17.3646C7.78125 17.3646 7.68 18.7989 7.68 19.6584C7.68 20.7379 7.89875 22.4097 9.6 22.4097C9.9434 22.417 10.2843 22.3452 10.6 22.1992V22.5649ZM14.7725 18.3294C14.7025 17.8855 14.3913 17.3646 13.56 17.3646C13.04 17.3646 12.5813 17.7262 12.5813 18.2795C12.5813 19.0256 13.5062 19.2685 14.1825 19.6962C14.7962 20.0821 15.2075 20.4262 15.2075 21.2236C15.2075 22.2883 14.3525 22.7915 13.2887 22.7915C12.8401 22.7758 12.3933 22.7221 11.9525 22.631L11.8975 21.449H12.0925C12.1537 21.8929 12.52 22.4137 13.3512 22.4137C14.035 22.4137 14.4762 21.9361 14.4762 21.3572C14.4762 20.4518 13.1862 20.1739 12.4637 19.5788C12.2972 19.4545 12.1635 19.2854 12.0758 19.0884C11.9881 18.8913 11.9495 18.6729 11.9637 18.4549C11.9637 17.4496 12.7337 17.0381 13.7137 17.0381C14.1191 17.0378 14.5232 17.0857 14.9187 17.1811L14.9725 18.3294H14.7725ZM18.3825 22.7146C18.2191 22.7595 18.0511 22.7822 17.8825 22.7821C17.4812 22.7821 17.3638 22.5581 17.3638 22.2424H17.3488C17.2437 22.4176 17.0976 22.5598 16.9253 22.6545C16.753 22.7493 16.5606 22.7933 16.3675 22.7821C15.8913 22.7821 15.5387 22.4232 15.5387 21.9388C15.5387 20.8593 16.8388 20.8593 17.3638 20.804V20.522C17.3638 19.9985 17.3562 19.4426 16.7762 19.4426C16.3475 19.4426 16.2925 19.6369 16.2925 19.8757C16.2972 19.9248 16.2923 19.9744 16.2782 20.0213C16.264 20.0683 16.2408 20.1115 16.2102 20.1481C16.1795 20.1847 16.1421 20.214 16.1003 20.234C16.0585 20.2541 16.0132 20.2644 15.9675 20.2643C15.9249 20.2674 15.8822 20.2611 15.842 20.2456C15.8019 20.2301 15.7651 20.2058 15.734 20.1743C15.7029 20.1428 15.6781 20.1046 15.6613 20.0623C15.6445 20.02 15.636 19.9744 15.6362 19.9283C15.6362 19.4426 16.3063 19.197 16.7825 19.197C17.73 19.197 17.9075 19.6895 17.9075 20.383V22.237C17.9075 22.4987 17.99 22.5878 18.205 22.5878C18.2679 22.5851 18.3303 22.5751 18.3913 22.5581L18.3825 22.7146ZM17.36 21.0509C17.035 21.059 16.15 21.1251 16.15 21.82C16.15 22.2073 16.385 22.4691 16.62 22.4691C17.07 22.4691 17.36 21.9981 17.36 21.4908V21.0509ZM18.535 22.5797C18.8237 22.5797 19.0588 22.5136 19.0588 22.0278V19.9917C19.0588 19.5438 18.7337 19.5222 18.535 19.5073V19.3778L19.5987 19.1983V20.1874H19.6125C19.7087 19.9175 20.02 19.2024 20.7038 19.2024C21.4375 19.2024 21.5063 19.6342 21.5063 20.3291V22.0292C21.5063 22.5149 21.7413 22.5811 22.03 22.5811V22.716H20.4375V22.5811C20.7275 22.5811 20.9625 22.5149 20.9625 22.0292V20.491C20.9625 19.85 20.9625 19.5586 20.5 19.5586C20.0925 19.5586 19.595 20.4019 19.595 21.1103V22.0278C19.595 22.5136 19.8288 22.5797 20.12 22.5797V22.7146H18.535V22.5797ZM22.8213 22.5392C23.2413 22.5392 23.4975 22.4799 23.4975 21.8524V17.9772C23.4975 17.3484 23.2475 17.2904 22.8213 17.2904V17.1231H24.64C25.9287 17.1231 27.2962 17.424 27.2962 19.9229C27.2962 22.4218 25.86 22.7079 24.64 22.7079H22.8213V22.5392ZM24.1875 21.6716C24.1875 22.2842 24.25 22.376 24.6388 22.376C25.975 22.376 26.5263 21.6042 26.5263 19.9189C26.5263 18.3753 26.115 17.4456 24.6388 17.4456C24.25 17.4456 24.1875 17.4955 24.1875 18.1499V21.6716ZM27.5788 22.5797C27.87 22.5797 28.105 22.5136 28.105 22.0278V19.9917C28.105 19.5438 27.7875 19.5222 27.5788 19.5073V19.3778L28.6437 19.1983V22.0319C28.6437 22.5176 28.8788 22.5837 29.1688 22.5837V22.7187H27.5788V22.5797ZM27.96 18.0892C27.96 18.0051 27.9831 17.9228 28.0264 17.8529C28.0698 17.783 28.1313 17.7285 28.2034 17.6964C28.2754 17.6643 28.3546 17.6559 28.431 17.6724C28.5074 17.6889 28.5776 17.7296 28.6326 17.7891C28.6876 17.8487 28.725 17.9246 28.7401 18.0071C28.7551 18.0896 28.7472 18.1751 28.7172 18.2528C28.6872 18.3304 28.6365 18.3967 28.5716 18.4433C28.5067 18.4898 28.4304 18.5145 28.3525 18.5142C28.3007 18.5148 28.2493 18.5041 28.2014 18.483C28.1535 18.4618 28.11 18.4305 28.0734 18.3909C28.0368 18.3513 28.008 18.3042 27.9885 18.2524C27.969 18.2006 27.9593 18.1451 27.96 18.0892ZM31.67 22.6472C31.4062 22.7481 31.1271 22.7939 30.8475 22.7821C29.7762 22.7821 29.1763 22.1479 29.1763 20.8931C29.1763 19.8042 29.5838 19.1997 30.5788 19.1997C31.2038 19.1997 31.76 19.5721 31.76 20.4383V20.6016H29.7488C29.7488 21.229 30.0325 22.5041 31.1863 22.5041C31.3521 22.5101 31.5172 22.4769 31.67 22.407V22.6472ZM31.145 20.3533C31.145 19.958 31.02 19.4426 30.4888 19.4426C29.9575 19.4426 29.7488 20.0767 29.7488 20.3533H31.145ZM34.0062 22.1101C34.3375 22.1101 35.105 22.125 35.105 22.9535C35.105 23.8035 34.3312 24.2812 33.4112 24.2812C32.7337 24.2812 32.0362 24.0046 32.0362 23.3367C32.0362 22.8739 32.3538 22.6728 32.575 22.5527C32.4842 22.5038 32.4081 22.4282 32.3555 22.3346C32.3028 22.241 32.2758 22.1333 32.2775 22.0238C32.2775 21.7472 32.4988 21.4638 32.575 21.3734C32.4163 21.2385 32.1737 21.0091 32.1737 20.3749C32.1737 19.4129 32.8237 19.2037 33.48 19.2037C33.729 19.1927 33.9758 19.2572 34.1925 19.3899C34.3025 19.1066 34.4675 18.5925 34.89 18.5925C34.9343 18.5893 34.9786 18.5964 35.0202 18.6132C35.0617 18.6301 35.0994 18.6563 35.1308 18.6902C35.1621 18.724 35.1864 18.7647 35.202 18.8095C35.2177 18.8544 35.2242 18.9023 35.2212 18.9501C35.224 18.9961 35.2175 19.0423 35.202 19.0853C35.1865 19.1284 35.1625 19.1673 35.1317 19.1993C35.1009 19.2313 35.0639 19.2556 35.0235 19.2706C34.983 19.2856 34.94 19.2908 34.8975 19.286C34.7175 19.286 34.675 19.1808 34.5863 19.1808C34.4338 19.1808 34.3725 19.398 34.3363 19.5168C34.545 19.7596 34.6564 20.0816 34.6463 20.4127C34.6463 21.1656 34.2112 21.5907 33.3825 21.5907C33.1692 21.601 32.9563 21.5628 32.7575 21.4787C32.6812 21.5718 32.6371 21.6905 32.6325 21.8146C32.6325 22.1128 32.9788 22.1128 33.2 22.1128L34.0062 22.1101ZM32.8125 22.6404C32.675 22.7511 32.4813 22.8779 32.4813 23.2139C32.4813 23.6538 32.8475 24.0343 33.4487 24.0343C34.0737 24.0343 34.6575 23.6848 34.6575 23.1478C34.6575 22.7673 34.3687 22.6404 34.0225 22.6404H32.8125ZM33.4137 21.3424C33.995 21.3424 34.0713 20.8499 34.0713 20.4545C34.0713 19.8946 33.8912 19.4466 33.3925 19.4466C32.8475 19.4466 32.7437 19.8797 32.7437 20.3129C32.7412 20.8796 32.9137 21.3424 33.4112 21.3424H33.4137Z" fill="#0E284B"/>
<path d="M35.1123 20.9966C35.1123 19.8767 35.6711 19.2061 36.5548 19.2061C37.4386 19.2061 37.9998 19.8807 37.9998 20.9966C37.9998 22.1125 37.4373 22.7817 36.5548 22.7817C35.6723 22.7817 35.1123 22.1098 35.1123 20.9966ZM36.5548 22.5348C37.2461 22.5348 37.3848 21.6105 37.3848 20.9912C37.3848 20.3719 37.2461 19.4462 36.5548 19.4462C35.8636 19.4462 35.7261 20.3719 35.7261 20.9912C35.7261 21.6105 35.8648 22.5348 36.5548 22.5348Z" fill="#0E284B"/>
<path d="M31.6775 23.9922H2V24.1824H31.8437C31.782 24.1258 31.7263 24.062 31.6775 23.9922ZM37.945 23.9922H35.215C35.1519 24.0619 35.0833 24.1256 35.01 24.1824H37.945V23.9922Z" fill="#C69215"/>
</g>
<defs>
<clipPath id="clip0_192_296">
<rect width="36" height="9" fill="white" transform="translate(2 16)"/>
</clipPath>
</defs>
</svg>
