<svg width="25" height="40" viewBox="0 0 25 40" fill="none" xmlns="http://www.w3.org/2000/svg">
<g clip-path="url(#clip0_184_571)">
<path d="M24.2385 11.9118L12.2376 5.95641L0.240234 11.9118V5.95641L12.2394 0.000976562L24.2402 5.95641V11.9118H24.2385Z" fill="#BF62FF"/>
<path d="M0.240234 16.9131H6.52616V30.041C6.52616 33.4328 9.4723 35.0864 12.2394 35.0864C15.0303 35.0864 17.9549 33.3888 17.9549 29.9955V16.9131H24.2402V30.3541C24.2402 33.4783 23.0977 35.8895 20.8121 37.5426C18.5253 39.1947 15.6693 39.9993 12.1865 39.9993C8.70713 39.9993 5.84936 39.1962 3.61722 37.5426C1.38276 35.891 0.240234 33.5693 0.240234 30.4876V16.9131Z" fill="white"/>
</g>
<defs>
<clipPath id="clip0_184_571">
<rect width="24" height="40" fill="white" transform="translate(0.240234)"/>
</clipPath>
</defs>
</svg>
