<svg width="48" height="48" viewBox="0 0 48 48" fill="none" xmlns="http://www.w3.org/2000/svg">
<path d="M44.3268 4.04001C42.7014 2.41457 40.0317 2.53401 38.5579 4.2981L31.9011 12.2659L36.101 16.4658L44.0689 9.80901C45.8327 8.33517 45.9522 5.66535 44.3268 4.04001Z" stroke="white" stroke-miterlimit="10" stroke-linecap="round" stroke-linejoin="round"/>
<path d="M47.2968 17.666V38.8809C47.2968 42.3184 44.5104 45.1058 41.0729 45.1058H35.3169C38.7544 45.1058 41.5409 42.3184 41.5409 38.8809V17.666H47.2968Z" stroke="white" stroke-miterlimit="10" stroke-linecap="round" stroke-linejoin="round"/>
<path d="M8.32587 14.3666C9.36017 14.3666 10.1986 13.5281 10.1986 12.4938C10.1986 11.4596 9.36017 10.6211 8.32587 10.6211C7.29158 10.6211 6.45312 11.4596 6.45312 12.4938C6.45312 13.5281 7.29158 14.3666 8.32587 14.3666Z" stroke="white" stroke-miterlimit="10" stroke-linecap="round" stroke-linejoin="round"/>
<path d="M14.9404 14.3666C15.9747 14.3666 16.8131 13.5281 16.8131 12.4938C16.8131 11.4596 15.9747 10.6211 14.9404 10.6211C13.9061 10.6211 13.0676 11.4596 13.0676 12.4938C13.0676 13.5281 13.9061 14.3666 14.9404 14.3666Z" stroke="white" stroke-miterlimit="10" stroke-linecap="round" stroke-linejoin="round"/>
<path d="M21.5546 14.3666C22.5889 14.3666 23.4274 13.5281 23.4274 12.4938C23.4274 11.4596 22.5889 10.6211 21.5546 10.6211C20.5203 10.6211 19.6819 11.4596 19.6819 12.4938C19.6819 13.5281 20.5203 14.3666 21.5546 14.3666Z" stroke="white" stroke-miterlimit="10" stroke-linecap="round" stroke-linejoin="round"/>
<path d="M31.901 12.2659L36.0002 7.35935C35.7758 7.33488 35.548 7.32129 35.317 7.32129H6.92803C3.4905 7.32129 0.703125 10.1077 0.703125 13.5462V17.6659H24.2258C25.7312 15.8364 26.1231 13.4434 31.901 12.2659Z" stroke="white" stroke-miterlimit="10" stroke-linecap="round" stroke-linejoin="round"/>
<path d="M36.101 16.4658C36.0177 16.8828 35.9116 17.2827 35.7859 17.666H41.5411V13.5463C41.5411 13.0372 41.4786 12.5429 41.3634 12.0693L36.101 16.4658Z" stroke="white" stroke-miterlimit="10" stroke-linecap="round" stroke-linejoin="round"/>
<path d="M44.9831 8.7041C44.7562 9.11332 44.4513 9.48935 44.0687 9.80894L41.3633 12.0693C41.4785 12.5429 41.541 13.0371 41.541 13.5462V17.6659H47.2969V13.5462C47.2969 11.5897 46.394 9.84523 44.9831 8.7041Z" stroke="white" stroke-miterlimit="10" stroke-linecap="round" stroke-linejoin="round"/>
<path d="M35.7857 17.666C34.1395 22.6856 29.011 24.7578 24.4452 22.2268C22.9254 21.3842 22.6308 19.3135 23.8541 18.0793C23.9867 17.9455 24.1095 17.8074 24.2257 17.666H0.703125V38.8809C0.703125 42.3184 3.4905 45.1058 6.92803 45.1058H35.317C38.7546 45.1058 41.541 42.3184 41.541 38.8809V17.666H35.7857Z" stroke="white" stroke-miterlimit="10" stroke-linecap="round" stroke-linejoin="round"/>
<path d="M31.9011 12.2661C25.6767 13.5347 25.7033 16.2138 23.8542 18.0794C22.631 19.3136 22.9255 21.3843 24.4453 22.2269C29.3598 24.9512 34.927 22.3431 36.1009 16.466L31.9011 12.2661Z" stroke="white" stroke-miterlimit="10" stroke-linecap="round" stroke-linejoin="round"/>
<path d="M15.9455 26.6616H8.85922C7.53041 26.6616 6.45312 27.7389 6.45312 29.0677V36.154C6.45312 37.4828 7.53041 38.5601 8.85922 38.5601H15.9455C17.2743 38.5601 18.3516 37.4828 18.3516 36.154V29.0677C18.3516 27.7389 17.2743 26.6616 15.9455 26.6616Z" stroke="white" stroke-miterlimit="10" stroke-linecap="round" stroke-linejoin="round"/>
<path d="M34.1772 27.0381H24.0163C22.954 27.0381 22.0928 27.8993 22.0928 28.9616C22.0928 30.024 22.954 30.8852 24.0163 30.8852H34.1773C35.2397 30.8852 36.1009 30.024 36.1009 28.9616C36.1009 27.8993 35.2396 27.0381 34.1772 27.0381Z" stroke="white" stroke-miterlimit="10" stroke-linecap="round" stroke-linejoin="round"/>
<path d="M34.1772 34.3359H24.0163C22.954 34.3359 22.0928 35.1971 22.0928 36.2595C22.0928 37.3219 22.954 38.1831 24.0163 38.1831H34.1773C35.2397 38.1831 36.1009 37.3219 36.1009 36.2595C36.1009 35.1972 35.2396 34.3359 34.1772 34.3359Z" stroke="white" stroke-miterlimit="10" stroke-linecap="round" stroke-linejoin="round"/>
</svg>
