<svg width="1618" height="1618" viewBox="0 0 1618 1618" fill="none" xmlns="http://www.w3.org/2000/svg">
<g clip-path="url(#clip0_184_623)">
<path fill-rule="evenodd" clip-rule="evenodd" d="M20.3242 809C20.3242 373.422 373.422 20.3242 809.009 20.3242C1244.59 20.3242 1597.69 373.413 1597.69 809C1597.69 1244.59 1244.59 1597.68 809.009 1597.68C373.422 1597.68 20.3242 1244.58 20.3242 809Z" fill="white"/>
<path fill-rule="evenodd" clip-rule="evenodd" d="M809.001 54.8418C1225.53 54.8418 1563.16 392.484 1563.16 809C1563.16 1225.51 1225.53 1563.16 809.001 1563.16C392.485 1563.16 54.834 1225.51 54.834 809C54.843 392.475 392.485 54.8418 809.001 54.8418ZM809.001 67.3261C399.378 67.3261 67.3183 399.386 67.3183 809C67.3183 1218.61 399.378 1550.68 809.001 1550.68C1218.61 1550.68 1550.67 1218.62 1550.67 809C1550.67 399.377 1218.62 67.3261 809.001 67.3261Z" fill="#1D5A98"/>
<path fill-rule="evenodd" clip-rule="evenodd" d="M809 338.725C1068.72 338.725 1279.27 549.262 1279.27 808.992C1279.27 1068.71 1068.72 1279.26 809 1279.26C549.27 1279.26 338.732 1068.71 338.732 808.992C338.732 549.271 549.27 338.725 809 338.725ZM809 351.218C556.163 351.218 351.208 556.173 351.208 809.001C351.208 1061.84 556.163 1266.79 809 1266.79C1061.83 1266.79 1266.78 1061.84 1266.78 809.001C1266.79 556.173 1061.84 351.218 809 351.218Z" fill="#1D5A98"/>
<path fill-rule="evenodd" clip-rule="evenodd" d="M808.999 310.084C1084.55 310.084 1307.91 533.456 1307.91 808.999C1307.91 1084.55 1084.54 1307.92 808.999 1307.92C533.447 1307.92 310.084 1084.55 310.084 808.999C310.084 533.456 533.447 310.084 808.999 310.084ZM808.999 320.773C539.352 320.773 320.773 539.352 320.773 808.991C320.773 1078.64 539.352 1297.21 808.999 1297.21C1078.64 1297.21 1297.22 1078.63 1297.22 808.991C1297.22 539.361 1078.65 320.773 808.999 320.773Z" fill="#1D5A98"/>
<path fill-rule="evenodd" clip-rule="evenodd" d="M809 84.998C1208.85 84.998 1532.99 409.133 1532.99 808.991C1532.99 1208.85 1208.86 1532.98 809 1532.98C409.133 1532.98 84.998 1208.85 84.998 808.991C84.998 409.142 409.142 84.998 809 84.998ZM809 95.6963C415.039 95.6963 95.6874 415.048 95.6874 809C95.6874 1202.95 415.039 1522.3 809 1522.3C1202.94 1522.3 1522.29 1202.95 1522.29 809C1522.3 415.048 1202.94 95.6963 809 95.6963Z" fill="#1D5A98"/>
<path fill-rule="evenodd" clip-rule="evenodd" d="M231.274 879.777L207.087 862.213L182.899 879.777L192.134 851.344L167.946 833.762H197.851L207.087 805.329L216.322 833.762H246.227L222.039 851.344L231.274 879.777ZM1435.11 879.777L1410.91 862.213L1386.73 879.777L1395.96 851.344L1371.77 833.762H1401.68L1410.91 805.329L1420.16 833.762H1450.06L1425.87 851.344L1435.11 879.777ZM940.916 1008.28V728.996H999.55V1008.28H940.916ZM624.239 1008.28V728.996H681.034V1008.28H624.239ZM700.572 1008.28V728.996H761.118V1008.28H700.572ZM780.693 1008.28V728.996H841.248V1008.28H780.693ZM921.341 728.996V1008.28H860.786V728.996H921.341ZM974.366 709.268H648.167L815.579 606.262L974.366 709.268ZM610.597 709.268H470.855V605.184H779.759L610.597 709.268ZM850.133 605.184H1151.08V709.268H1010.51L850.133 605.184ZM1108 585.457H513.927C572.094 480.521 683.322 409.6 810.957 409.6C938.582 409.6 1049.81 480.521 1108 585.457ZM567.795 991.804L564.393 1002.23L573.261 995.798L582.128 1002.23L578.745 991.804L587.612 985.369H576.653L573.27 974.94L569.886 985.369H558.919L567.795 991.804ZM519.365 927.282L515.964 937.711L524.831 931.258L533.699 937.711L530.306 927.282L539.173 920.847H528.206L524.822 910.418L521.43 920.847H510.462L519.365 927.282ZM486.059 848.517L482.657 858.946L491.525 852.493L500.392 858.946L497.009 848.517L505.876 842.064H494.917L491.525 831.635L488.132 842.064H477.174L486.059 848.517ZM604.709 1008.28H470.855V758.883L475.343 762.132L471.941 772.561L480.8 766.117L489.667 772.561L486.283 762.132L495.142 755.688H484.183L480.8 745.259L477.416 755.688H470.855V728.996H604.709V1008.28ZM604.709 1028.02V1102.15H470.855V1028.02H604.709ZM1019.1 1028.02H1151.08V1102.15H1019.1V1028.02ZM901.775 1080.84L910.661 1074.38H899.684L896.301 1063.95L892.917 1074.38H881.941L890.808 1080.84L887.424 1091.27L896.292 1084.81L905.159 1091.27L901.775 1080.84ZM980.182 1049.24L989.067 1042.78H978.091L974.707 1032.35L971.323 1042.78H960.347L969.214 1049.24L965.831 1059.65L974.698 1053.21L983.565 1059.65L980.182 1049.24ZM720.165 1080.84L716.763 1091.27L725.64 1084.81L734.507 1091.27L731.123 1080.84L740 1074.38H729.032L725.649 1063.95L722.265 1074.38H711.297L720.165 1080.84ZM641.768 1049.24L638.357 1059.65L647.233 1053.21L656.101 1059.65L652.717 1049.24L661.585 1042.78H650.617L647.233 1032.35L643.841 1042.78H632.882L641.768 1049.24ZM999.55 1028.02V1102.15H820.003L816.898 1092.6L825.766 1086.17H814.789L811.405 1075.74L808.022 1086.17H797.054L805.94 1092.6L802.825 1102.15H624.239V1028.02H999.55ZM819.088 1102.15H803.741L811.414 1096.58L819.088 1102.15ZM1054.14 991.804L1063.02 985.369H1052.06L1048.66 974.94L1045.28 985.369H1034.32L1043.17 991.804L1039.79 1002.23L1048.65 995.798L1057.52 1002.23L1054.14 991.804ZM1102.57 927.282L1111.46 920.847H1100.5L1097.1 910.418L1093.72 920.847H1082.74L1091.63 927.282L1088.22 937.711L1097.09 931.258L1105.96 937.711L1102.57 927.282ZM1135.88 848.517L1144.77 842.064H1133.79L1130.41 831.635L1127.02 842.064H1116.05L1124.91 848.517L1121.53 858.946L1130.4 852.493L1139.26 858.946L1135.88 848.517ZM1151.08 1008.28H1019.1V728.996H1151.08V755.688H1144.52L1141.14 745.259L1137.76 755.688H1126.78L1135.65 762.132L1132.26 772.561L1141.13 766.117L1150 772.561L1146.6 762.132L1151.07 758.883V1008.28H1151.08Z" fill="#CE8B2C"/>
<path fill-rule="evenodd" clip-rule="evenodd" d="M219.796 666.592C242.709 674.042 254.431 676.968 262.768 677.614C274.382 678.152 283.564 674.356 292.261 663.918C296.649 658.569 300.491 650.392 303.776 640.269C309.403 622.947 309.223 610.803 305.167 601.532C300.374 589.084 290.663 581.796 277.147 576.231C264.386 571.689 251.593 567.237 238.769 562.876C235.574 561.835 215.353 556.262 213.486 554.898C210.946 552.959 207.105 550.5 210.776 541.408L211.727 539.075C212.14 538.033 211.566 537.199 210.533 536.786L204.816 534.47C203.775 534.048 202.788 534.255 202.258 535.556C201.63 537.118 197.161 550.419 195.375 554.835C192.646 561.584 185.987 575.818 185.466 577.12C185.053 578.152 185.619 578.987 186.399 579.31L192.117 581.616C193.418 582.146 194.405 581.939 194.827 580.898L195.976 578.044C199.234 569.994 202.878 568.45 207.5 569.715C210.569 570.353 220.505 571.968 233.025 576.043L269.805 587.998C280.467 591.462 290.16 596.084 294.657 605.795C298.175 613.119 298.426 624.113 295.572 632.9C293.23 640.098 286.319 650.518 276.061 653.964C269.078 656.406 260.3 655.32 252.752 653.166C249.019 651.954 227.532 645.564 218.737 642.701L207.805 639.156C200.21 636.669 192.707 633.905 185.314 630.872C183.204 630.055 181.23 626.384 183.402 617.687L184.344 613.882C184.613 612.796 183.94 612.051 183.124 611.844L176.599 610.22C175.513 609.951 174.831 610.355 174.49 611.719C174.086 613.352 170.909 629.597 169.275 636.113C167.175 644.541 162.014 661.737 161.61 663.37C161.341 664.456 161.745 665.138 162.562 665.336L169.356 667.032C170.442 667.301 171.124 666.889 171.393 665.803L172.614 660.911C174.651 652.753 178.726 652.618 183.617 653.839L219.796 666.592ZM335.781 424.364C326.141 418.108 310.695 410.165 301.083 401.46C298.247 398.695 297.475 396.416 301.595 390.752L303.246 388.482C303.901 387.575 303.56 386.624 302.645 385.969L297.888 382.513C296.524 381.526 295.743 381.643 294.917 382.783C293.768 384.371 288.679 392.799 285.215 397.555C279.947 404.816 272.183 414.061 271.034 415.649C270.209 416.78 270.334 417.561 271.017 418.064L276.455 422.004C277.595 422.829 278.376 422.704 279.202 421.573L282.002 417.722C284.802 413.872 288.635 411.467 292.171 412.302C295.716 413.145 310.327 420.864 315.964 424.526C323.79 428.941 331.23 433.438 344.621 442.126L360.13 452.205L359.52 453.138C354.628 453.973 312.948 457.976 305.265 458.999C296.183 460.121 241.892 465.021 240.501 465.111C238.482 465.138 237.1 466.233 234.955 469.527C233.124 472.345 231.185 477.999 228.959 482.316C227.541 485.054 226.267 487.54 224.05 490.439C222.066 493.49 220.864 496.416 220.559 496.892C219.957 497.825 220.352 498.758 221.052 499.216L225.98 502.384C226.922 502.995 227.694 502.833 228.304 501.891L229.677 499.782C233.949 493.203 241.758 489.918 250.221 495.42L274.894 511.44C301.442 528.681 316.448 540.313 319.258 542.189C324.481 546.048 324.023 550.922 322.668 553.372L319.545 559.008C319.132 559.744 319.24 560.121 319.733 560.39L326.097 563.926C327.326 564.609 327.954 564.636 328.224 564.142C329.31 562.176 334.686 550.742 336.588 547.314C340.529 540.205 346.694 530.817 347.646 529.103C348.319 527.874 347.834 527.604 346.856 527.057L340.968 523.799C339.99 523.251 339.496 522.982 338.823 524.212L335.969 529.354C334.614 531.796 330.423 533.007 324.373 530.62C321.896 529.893 299.88 515.65 285.781 506.495L253.587 485.592L253.892 485.116C260.57 484.111 298.301 481.553 308.541 480.18C313.28 479.579 331.823 477.263 351.765 474.84C369.536 472.686 384.354 470.954 387.073 470.37C388.384 469.886 391.561 468.602 392.934 466.493C394.765 463.675 392.88 461.44 390.762 460.067L335.781 424.364ZM400.706 354.134C399.369 352.698 375.352 327.119 373.449 325.073C369.635 320.576 370.712 318.036 376.249 312.885L379.732 309.636C380.755 308.684 380.387 307.868 379.624 307.051L375.038 302.132C374.472 301.522 373.673 301.486 372.857 302.258C371.214 303.784 361.342 314.141 355.4 319.688C345.958 328.878 332.496 339.9 331.266 341.048C330.449 341.811 330.414 342.601 331.176 343.427L335.574 348.139C336.337 348.955 337.118 349.377 338.141 348.426L341.83 344.988C350.437 336.965 354.189 337.297 356.289 339.55C358.963 342.422 379.965 363.531 383.026 366.816L391.435 375.836C397.933 382.8 420.371 407.123 421.879 409.16C424.912 413.235 421.825 416.493 416.7 421.277L412.195 425.477C411.369 426.24 411.539 427.236 412.114 427.855L416.314 432.361C417.265 433.384 418.253 433.617 419.069 432.854C420.299 431.715 431.608 420.011 438.581 413.522C447.799 404.924 459.035 395.599 460.669 394.073C461.692 393.122 461.324 392.314 460.561 391.488L455.975 386.579C455.4 385.969 454.817 385.744 453.785 386.705L450.716 389.568C444.774 395.114 439.64 394.54 434.839 390.205C431.769 387.324 409.789 363.755 408.649 362.535L400.706 354.134ZM448.14 246.02C447.341 244.871 446.551 244.737 445.178 245.697C443.805 246.658 430.279 257.149 424.778 261.009C418.809 265.191 405.706 273.34 404.566 274.139C403.641 274.785 403.507 275.566 403.991 276.248L408.012 281.983C408.497 282.675 409.206 283.204 410.121 282.558L412.419 280.951C415.408 278.869 418.522 279.417 422.13 280.646C425.343 281.822 445.393 298.857 456.262 307.266L461.189 311.449C466.359 315.487 500.482 342.072 514.474 352.824C516.377 354.287 518.603 355.202 520.497 354.008C522.399 352.824 523.144 351.37 523.117 349.736C523.091 345.464 513.469 286.713 512.491 280.386C511.001 272.721 503.785 234.2 505.993 227.002C507.034 223.592 509.709 220.262 514.412 217.767L518.37 215.667C519.357 215.137 519.33 213.89 518.8 212.902L516.036 207.706C515.372 206.467 514.618 206.234 513.631 206.763C512.15 207.553 501.407 214.213 496.955 216.582C491.265 219.607 478.009 225.71 476.519 226.491C475.532 227.02 475.433 228.025 475.828 228.761L478.852 234.451C479.517 235.69 480.27 235.914 481.258 235.385L483.977 233.94C488.186 231.696 489.829 232.414 490.493 233.644C491.803 236.121 493.482 244.674 500.94 276.688C501.981 280.996 508.739 317.731 510.436 323.619L509.727 324.059C505.93 321.151 479.911 299.081 474.302 294.333C455.418 278.384 445.627 270.693 441.929 265.415C439.838 262.427 442.961 259.564 445.941 257.472L451.218 253.775C452.143 253.138 452.502 252.195 451.855 251.28L448.14 246.02ZM580.702 188.571L608.964 179.425C612.717 178.243 616.766 178.424 620.398 179.937C626.367 182.62 644.182 193.085 644.99 193.687C646.247 194.746 647.306 194.378 647.745 193.929L651.344 190.617C651.775 190.168 651.596 189.639 650.967 188.67C649.801 187 634.534 166.77 633.188 164.563C631.563 161.565 630.845 161.215 630.325 161.403C629.266 161.771 626.008 163.485 623.36 164.392L566.718 184.604C562.742 185.968 545.564 192.08 541.579 193.444C540.52 193.812 540.529 194.701 540.718 195.221L542.908 201.585C543.365 202.904 543.814 203.344 544.604 203.066L547.251 202.15C557.851 198.506 559.529 197.609 562.24 202.904C563.416 205.462 569.608 222.586 574.446 236.632L580.1 253.057L593.697 293.741C595.169 297.376 594.81 298.731 582.595 303.658L580.262 304.601C578.96 305.13 578.655 305.857 579.068 306.889L582.263 314.177C582.676 315.218 583.251 315.882 584.552 315.362C587.666 314.096 601.605 307.464 606.316 305.66C661.54 284.461 675.873 282.387 677.722 281.75C678.781 281.382 679.652 279.605 679.724 278.097L678.817 245.428C678.808 244.539 678.009 243.929 677.381 243.857L672.328 242.96C671.35 242.709 670.111 243.426 669.429 245.733C668.245 250.885 663.075 265.999 661.504 268.314C654.952 278.573 647.629 281.391 635.97 285.403C624.581 289.325 616.62 291.183 612.339 278.725C611.154 275.279 605.329 260.102 602.143 250.831L599.038 241.82C601.685 240.904 610.957 237.709 619.546 236.83C626.986 236.049 630.029 239.738 633.637 245.904C634.265 246.873 634.794 246.693 635.593 246.415L640.978 243.974C641.777 243.705 642.217 243.256 641.849 242.188C640.395 238.84 636.787 230.906 634.767 225.072C633.951 222.685 629.113 208.639 628.817 206.081C628.718 204.932 627.74 204.672 626.681 205.031L620.757 206.772C619.698 207.14 619.528 207.499 619.896 208.549C622.714 216.762 621.35 221.384 615.103 225.611C613.164 226.876 597.808 233.051 596.219 233.599L580.702 188.571ZM714.556 206.853C715.768 223.897 717.545 242.987 717.922 256.584C718.101 262.75 715.606 264.267 708.946 265.2L705.617 265.667C704.504 265.819 704.028 266.457 704.145 267.291L705.042 273.672C705.231 275.064 705.913 275.818 707.017 275.656C708.955 275.387 723.001 272.56 729.93 271.59C739.094 270.298 754.19 269.023 756.128 268.754C757.789 268.521 758.265 267.893 758.076 266.501L757.143 259.842C757.026 259.007 756.389 258.532 755.276 258.693L748.06 259.698C742.513 260.479 740.736 255.686 739.641 251.881L737.272 222.299L736.688 215.595C738.591 214.868 741.104 214.652 743.895 214.401C755.617 213.378 760.347 219.149 771.907 235.573C774.788 239.54 789.641 262.328 795.026 266.16C799.783 265.792 806.506 265.397 812.941 265.29C815.75 265.245 819.116 265.46 821.638 265.415C824.438 265.64 826.682 265.891 827.247 265.882C828.369 265.864 828.916 265.012 828.898 263.89L828.791 258.289C828.773 256.602 828.477 255.767 827.355 255.794C822.311 255.875 818.658 255.66 814.7 252.931C809.306 249.099 800.582 238.697 796.193 233.455C783.323 218.269 776.987 210.102 770.453 209.267L770.399 208.711C791.768 198.964 801.677 186.848 799.99 167.587C799.433 161.17 795.089 153.389 788.439 148.066C780.927 142.538 767.949 138.894 751.201 140.357C747.575 140.68 725.012 143.902 721.655 144.189C716.629 144.638 697.88 146.397 696.48 146.514C695.358 146.612 694.856 147.223 694.927 148.057L695.52 154.753C695.618 155.866 695.968 156.682 696.803 156.611L699.594 156.368C707.412 155.686 709.934 157.185 710.697 162.741L713.039 189.54L714.556 206.853ZM731.591 159.94C731.151 154.914 735.243 153.433 739.426 153.065C750.591 152.087 758.624 153.918 766.575 158.002C771.889 160.91 776.735 168.081 777.471 176.454C778.099 183.715 775.263 205.893 744.281 208.612C741.483 208.877 738.669 208.934 735.863 208.783L731.591 159.94ZM885.423 273.951C910.661 277.505 926.475 261.61 929.401 240.806C931.349 226.93 928.997 219.526 924.268 212.92C918.344 204.735 908.507 200.238 896.409 193.731C891.41 191.048 882.004 185.483 878.584 179.632C876.044 175.593 875.461 169.571 876.062 165.406C876.762 160.416 882.883 149.116 898.132 151.252C906.174 152.383 911.891 156.018 915.4 161.322C920.292 168.799 921.153 178.824 922.338 182.387C922.499 183.258 922.966 183.886 923.846 183.724L928.997 183.32C929.859 183.159 930.227 182.647 930.326 181.813C930.604 177.89 930.64 159.51 931.923 150.355C932.112 148.973 931.995 147.815 929.787 147.51C927.561 147.196 926.736 147.079 926.054 147.833L924.689 149.619C923.935 150.929 922.589 150.454 920.04 148.398C916.935 146.271 911.379 143.507 900.843 142.026C890.853 140.626 881.627 141.865 873.585 146.693C866.746 151.1 859.719 158.881 858.39 168.314C856.479 181.911 858.57 191.263 864.09 198.255C871.368 206.916 883.969 213.782 889.247 216.51C903.185 224.121 913.013 232.585 910.805 248.399C909.118 260.327 894.838 265.397 885.944 264.141C875.667 262.696 867.312 255.866 864.314 246.954C860.598 237.09 861.424 231.265 861.963 227.379C862.124 226.266 861.083 225.557 860.015 225.126L855.106 223.87C854.002 223.717 853.32 224.462 852.88 225.539C851.982 229.946 846.92 251.863 845.009 259.519C844.533 260.865 845.197 262.095 846.795 262.884C848.931 263.755 850.385 263.396 851.139 262.077L852.278 259.977C853.158 257.84 854.782 258.343 856.524 260.012C862.214 265.882 871.252 271.967 885.423 273.951ZM1007.14 226.069C1007.74 224.202 1018.31 192.583 1019.19 189.917C1021.27 184.406 1024.01 184.119 1031.21 186.462L1035.74 187.934C1037.07 188.373 1037.6 187.655 1037.95 186.587L1040.01 180.197C1040.27 179.398 1039.92 178.689 1038.85 178.339C1036.72 177.648 1022.87 174.031 1015.13 171.518C1002.53 167.713 986.348 161.278 984.751 160.766C983.683 160.416 982.982 160.775 982.632 161.843L980.631 167.973C980.299 169.041 980.299 169.93 981.627 170.36L986.429 171.922C997.612 175.557 999.156 179.003 998.195 181.929C996.984 185.663 988.87 212.48 987.488 216.744L983.665 228.474C980.721 237.53 969.08 272.703 968.03 275.019C965.948 279.641 961.577 278.528 954.917 276.356L949.066 274.453C947.998 274.103 947.208 274.732 946.948 275.539L945.054 281.4C944.614 282.728 944.874 283.707 945.951 284.048C947.549 284.568 963.273 288.787 972.329 291.73C984.32 295.626 997.908 300.921 1000.04 301.621C1001.37 302.052 1001.9 301.343 1002.25 300.284L1004.32 293.884C1004.58 293.086 1004.5 292.466 1003.16 292.036L999.165 290.734C991.437 288.221 989.454 283.455 990.908 277.155C991.94 273.071 1002.29 241.012 1002.81 239.415L1007.14 226.069ZM1083.73 276.123C1075.58 290.833 1068.37 303.811 1062.48 312.723C1061.16 314.545 1058.35 315.55 1054.67 313.513L1044.87 308.083C1043.89 307.535 1043.13 307.76 1042.44 308.989L1039.72 313.89C1038.92 315.362 1038.99 316.358 1040.46 317.184C1042.42 318.27 1058.76 326.356 1065.62 330.162C1073.71 334.649 1088.49 343.804 1090.21 344.746C1091.44 345.428 1092.33 344.962 1092.73 344.226L1095.58 339.074C1096.41 337.602 1096.32 336.606 1095.09 335.915L1085.78 330.754C1081.85 328.582 1082 325.459 1083.68 321.258C1084.53 319.167 1094.71 300.786 1108.96 275.055L1131.78 233.886C1136.2 236.327 1156.65 247.986 1161.54 253.586C1164.12 261.089 1163.8 271.492 1163.33 279.246C1163.15 280.745 1163.75 281.4 1165.48 281.723L1170.34 282.809C1171.58 282.863 1172.36 282.648 1172.65 281.526C1175.09 274.229 1180.69 254.277 1182.12 250.571C1183.96 245.509 1183.87 244.504 1182.89 243.956C1182.15 243.627 1181.33 243.506 1180.52 243.606L1176.51 243.938C1172.87 244.162 1170.52 243.184 1166.45 241.255C1154.64 235.438 1142.94 229.378 1131.38 223.08L1121.56 217.65C1110.84 211.729 1100.32 205.467 1090 198.874C1085.48 196.047 1083.9 194.853 1081.94 190.877L1080.8 188.32C1080.33 187.422 1079.98 186.901 1079.24 186.498C1078.26 185.95 1077.12 186.282 1075.69 187.727C1072.25 191.595 1055.37 208.181 1050.67 212.624C1049.88 213.468 1049.34 214.446 1050.29 215.613L1053.76 219.777C1054.46 220.809 1055.6 220.486 1056.63 219.777C1063.35 215.173 1072.85 210.183 1081.56 208.926C1091.98 211.502 1108.26 220.854 1112.91 223.43L1083.73 276.123ZM1211.08 364.832C1222.43 361.853 1275.31 348.973 1279.87 350.365C1282.64 351.154 1285.42 352.743 1288.58 355.911L1290.59 357.895C1291.38 358.684 1292.16 358.684 1293.14 357.697L1297.32 353.533C1298.49 352.348 1298.49 351.558 1297.51 350.562C1296.31 349.377 1288.79 343.041 1285.22 339.469C1279.28 333.527 1269.97 323.026 1268.78 321.842C1267.8 320.845 1266.79 321.043 1266 321.842L1261.66 326.204C1260.85 326.993 1260.66 327.981 1261.66 328.977L1264.82 332.145C1269.18 336.507 1266.42 338.885 1261.66 340.465C1259.27 341.255 1220.74 352.429 1212.92 354.834C1214.1 346.837 1222.47 303.362 1222.72 300.337C1222.87 298.318 1224.99 296.065 1228.96 299.171L1232.27 301.764C1233.58 302.806 1234.33 302.312 1235.03 301.423L1238.82 296.568C1239.68 295.455 1239.36 294.504 1238.49 293.813C1236.94 292.61 1221.41 281.535 1216.56 277.738C1211.25 273.601 1200.3 263.961 1198.96 262.938C1197.65 261.906 1196.68 262.22 1196.16 262.884L1192.37 267.749C1191.34 269.068 1191.44 269.858 1192.55 270.72L1195.64 273.134C1197.41 274.516 1201.04 278.061 1201.51 281.992C1202.45 288.069 1194.69 347.062 1193.18 352.501L1186.43 359.995C1175.37 372.282 1168.62 379.776 1166.73 381.463C1163.89 384.192 1161.52 384.308 1154.86 378.322L1151.74 375.513C1151.58 375.356 1151.39 375.235 1151.18 375.155C1150.97 375.076 1150.75 375.041 1150.52 375.052C1150.3 375.063 1150.08 375.12 1149.88 375.219C1149.68 375.318 1149.5 375.458 1149.35 375.629L1145.22 380.189C1144.1 381.445 1144.14 382.226 1145.19 383.168C1146.44 384.29 1159.07 394.54 1163.65 398.668C1170.53 404.852 1181.62 415.981 1182.87 417.103C1184.13 418.225 1185.09 417.983 1185.85 417.139L1190.35 412.14C1190.91 411.521 1190.88 410.731 1189.82 409.788L1187.12 407.356C1183.37 403.982 1180.23 400.778 1183.75 396.03C1185.58 393.158 1190.85 387.719 1195.32 382.334L1211.08 364.832ZM1268.87 534.075C1283.74 558.811 1301.23 567.256 1319.67 568.594C1334.1 569.733 1347.3 565.066 1358.83 558.138C1380.44 545.151 1389.86 527.075 1392.77 511.261C1396.11 492.907 1390.49 478.636 1383.86 467.588C1374.33 451.729 1362.27 438.724 1336.69 434.802C1316.07 431.499 1300.66 438.473 1290.82 444.387C1268.24 457.958 1258.93 480.539 1258.51 492.889C1257.71 510.049 1263.83 525.666 1268.87 534.075ZM1277.9 530.602C1270.98 519.078 1268.98 485.296 1307.18 462.356C1319.41 454.996 1337.25 449.844 1352 453.73C1370.06 458.236 1373.72 469.76 1375.01 471.923C1383.53 486.095 1377.4 518.863 1345.95 537.773C1332.98 545.563 1297.68 563.505 1277.9 530.602ZM1369.31 613.891C1370.19 616.547 1373.28 626.142 1374.11 635.018C1374.95 642.117 1370.04 646.057 1365.15 648.238C1364.08 648.588 1363.82 649.558 1364.06 650.356L1366.25 655.248C1366.5 656.047 1367.21 656.415 1368.29 656.065C1373.81 653.748 1379.41 651.631 1385.08 649.719C1387.73 648.849 1401.86 644.262 1404.61 643.67C1405.68 643.32 1405.86 642.97 1405.59 642.171L1404.4 636.669C1404.05 635.601 1403.44 635.512 1401.49 635.853C1395.29 636.687 1388.12 635.485 1385.4 630.764C1382.74 624.274 1380.22 617.726 1377.84 611.126L1428.2 594.756C1429.32 598.22 1437.44 623.629 1437.67 628.52C1437.95 632.523 1437.69 636.687 1434.69 640.457C1430.16 646.531 1425.18 652.247 1419.77 657.554C1418.39 658.829 1418.08 659.789 1418.78 660.175L1421.9 663.945C1422.32 664.411 1423.13 664.169 1424.13 663.595C1427.67 661.71 1449.36 649.944 1454.78 647.511C1453.13 644.774 1433.61 582.388 1432.66 579.462C1430.84 573.862 1425.49 554.682 1425.05 553.354C1424.72 552.286 1423.74 552.017 1422.66 552.358L1416.81 554.26C1415.74 554.61 1415.02 555.14 1415.37 556.199L1418.76 566.592C1420.41 571.654 1416.13 574.813 1413.64 576.213C1411.59 577.174 1392.94 583.232 1385.74 585.565L1373.75 589.461C1344.71 598.902 1327.56 603.605 1324.57 604.404C1322.36 604.907 1319.69 604.09 1318.06 599.62L1315.36 592.252C1314.99 591.193 1314.01 590.95 1313.2 591.247L1307.41 593.356C1306.1 593.831 1305.39 594.379 1305.89 595.698C1306.27 596.748 1311.85 609.628 1314.83 617.786C1318.65 628.314 1322.84 642.288 1323.42 643.876C1323.8 644.927 1324.96 644.81 1326.01 644.424L1331.8 642.324C1332.85 641.938 1333.18 641.22 1332.9 640.43L1330.61 634.112C1329.06 629.902 1328.8 626.716 1333.27 625.083L1369.31 613.891ZM347.098 1061.99C348.723 1061.24 349.064 1060.29 348.166 1058.33C347.251 1056.38 337.046 1037.03 333.402 1029.23C329.462 1020.8 322.112 1002.48 321.349 1000.85C320.747 999.55 319.796 999.2 318.818 999.658L310.704 1003.44C309.726 1003.9 308.9 1004.67 309.511 1005.98L311.027 1009.22C313.002 1013.45 311.602 1017.26 309.25 1021.51C307.06 1025.3 283.51 1051.47 272.04 1064.79L266.367 1070.8C260.857 1077.13 224.624 1118.94 209.95 1136.08C207.967 1138.41 206.638 1141.18 208.029 1143.69C209.421 1146.21 211.225 1147.24 213.316 1147.32C218.773 1147.56 294.459 1139.22 302.6 1138.39C312.49 1137.01 364.303 1132.66 373.817 1134.17C378.323 1134.89 383.008 1137.68 387.01 1143.2L390.376 1147.83C391.22 1148.98 392.799 1148.72 393.957 1147.88L400.042 1143.47C401.496 1142.42 401.649 1141.41 400.805 1140.24C399.54 1138.51 389.191 1126.1 385.404 1120.89C380.557 1114.22 370.478 1098.51 369.213 1096.77C368.369 1095.61 367.077 1095.66 366.215 1096.29L359.538 1101.13C358.084 1102.18 357.931 1103.18 358.775 1104.35L361.09 1107.53C364.671 1112.46 364.268 1115.03 362.616 1115.73C359.385 1117.1 349.45 1116.52 308.066 1123.88C302.492 1124.93 255.122 1131.11 247.493 1132.87L246.972 1131.94C250.939 1127.27 280.862 1095.53 287.315 1088.68C308.945 1065.63 316.529 1053.29 324.005 1049.82C328.224 1047.84 331.15 1052.41 333.115 1056.64L336.597 1064.11C337.199 1065.41 338.303 1066.07 339.604 1065.47L347.098 1061.99ZM413.963 1249.33C415.704 1247.52 443.185 1220.16 445.672 1217.58C451.155 1212.43 454.467 1213.64 461.432 1220.35L465.812 1224.6C467.104 1225.83 468.109 1225.32 469.105 1224.29L475.083 1218.1C475.828 1217.33 475.81 1216.32 474.778 1215.31C472.722 1213.33 458.82 1201.39 451.353 1194.17C438.985 1182.75 424.006 1166.29 422.453 1164.78C421.421 1163.8 420.407 1163.82 419.41 1164.83L413.684 1170.78C412.688 1171.79 412.195 1172.83 413.487 1174.07L418.127 1178.56C428.96 1189 428.789 1193.82 426.052 1196.67C422.561 1200.26 400.59 1223.47 396.614 1227.59L385.655 1238.95C377.192 1247.7 345.321 1280.2 342.826 1282.26C337.836 1286.4 333.456 1282.69 327.012 1276.47L321.34 1270.98C320.308 1270 319.051 1270.27 318.297 1271.04L312.831 1276.72C311.584 1278 311.351 1279.28 312.383 1280.27C313.926 1281.76 329.624 1295.42 338.392 1303.89C349.988 1315.09 362.652 1328.81 364.716 1330.79C366.009 1332.04 367.005 1331.51 368.001 1330.5L373.979 1324.31C374.724 1323.54 374.966 1322.77 373.673 1321.52L369.805 1317.79C362.329 1310.56 362.715 1303.98 367.929 1297.54C371.412 1293.44 400.033 1263.78 401.523 1262.23L413.963 1249.33ZM489.999 1320.97C479.418 1340.1 473.431 1355.53 462.275 1373.83C458.174 1380.56 453.794 1379.62 446.416 1375.17L442.737 1372.95C441.507 1372.23 440.529 1372.46 439.972 1373.39L435.727 1380.45C434.803 1382 434.866 1383.27 436.095 1384.01C438.249 1385.31 454.467 1393.79 462.141 1398.41C472.274 1404.5 488.312 1415.38 490.457 1416.68C492.297 1417.78 493.275 1417.54 494.2 1415.99L498.633 1408.63C499.19 1407.7 498.939 1406.72 497.709 1405.99L489.721 1401.18C483.582 1397.5 483.762 1393.02 485.736 1388.35L503.615 1353.37L507.653 1345.77C510.202 1346.32 513.056 1347.83 516.216 1349.51C529.499 1356.57 530.549 1366.06 531.509 1391.73C531.841 1397.99 532.873 1430.21 537.307 1437.42C543.087 1439.36 551.191 1442.25 558.838 1445.36C562.168 1446.69 566.018 1448.64 569.007 1449.85C572.193 1451.52 574.715 1452.93 575.379 1453.2C576.708 1453.72 577.776 1453.01 578.314 1451.67L580.998 1445.03C581.805 1443.03 581.877 1441.9 580.549 1441.37C574.563 1438.94 570.38 1436.88 567.068 1431.67C562.635 1424.47 560.104 1415.05 559.027 1406.38C555.814 1381.13 554.701 1367.96 548.266 1362.5L548.607 1361.87C578.305 1366.31 597.377 1360.2 608.982 1338.39C612.85 1331.1 613.622 1319.74 610.194 1309.4C605.984 1298.23 594.604 1285.29 575.622 1275.19C571.511 1273 543.473 1259.31 539.677 1257.3C533.986 1254.26 514.869 1242.89 513.29 1242.05C512.024 1241.38 511.046 1241.68 510.543 1242.62L506.514 1250.21C505.84 1251.48 505.652 1252.6 506.594 1253.1L509.763 1254.79C518.621 1259.49 519.617 1264.49 516.566 1270.99L500.419 1301.37L489.999 1320.97ZM542.809 1279.65C545.842 1273.95 551.254 1275.2 556.002 1277.72C568.657 1284.45 576.008 1292.01 581.689 1301.93C585.36 1308.77 585.575 1319.83 580.522 1329.31C576.151 1337.55 557.645 1359.36 522.525 1340.69C519.344 1339.02 516.285 1337.12 513.371 1335.01L542.809 1279.65ZM779.526 1446.41C780.478 1440.4 787.424 1440.05 790.961 1440.61L796.974 1441.57C798.042 1441.73 798.913 1440.78 799.083 1439.71L800.42 1431.23C800.6 1430.17 799.999 1429.36 798.581 1429.13C797.163 1428.91 781.124 1427.1 768.029 1425.01C748.921 1421.98 731.689 1418.54 729.562 1418.19C728.144 1417.97 727.677 1418.63 727.507 1419.68L726.17 1428.18C725.999 1429.23 726.241 1430 727.66 1430.24L736.15 1431.57C745.349 1433.04 753.104 1436.81 751.811 1444.94L749.738 1458.03C748.616 1465.11 747.18 1469.6 742.02 1472.41C735.629 1476.11 723.8 1477.51 711.415 1475.55C701.506 1473.97 688.187 1466.43 679.966 1454.24C668.46 1437.55 663.874 1416.15 668.191 1388.89C670.713 1372.96 681.465 1355.44 693.94 1345.43C709.279 1333.35 723.693 1331.65 734.669 1333.39C750.95 1335.96 759.736 1344.61 767.724 1356.03C774.868 1365.87 779.149 1377.8 780.738 1383.85C781.348 1386.85 782.004 1387.33 783.117 1387.13L790.18 1386.08C791.293 1385.89 791.768 1385.24 792.047 1383.47C792.352 1376.98 792.962 1343.34 793.24 1341.57C793.626 1339.1 793.151 1337.56 789.965 1337.07C787.137 1336.61 785.899 1337.51 784.965 1338.8L782.695 1341.71C781.824 1342.65 780.406 1342.44 777.965 1339.52C772.023 1333.49 756.398 1324.49 739.408 1321.79C714.278 1317.82 691.517 1321.83 672.642 1333.34C653.301 1345.5 640.673 1365.65 637.262 1387.25C632.892 1414.85 636.939 1435.08 648.634 1452.89C662.357 1473.93 689.488 1485.85 707.896 1488.75C730.549 1492.34 750.447 1490.42 770.659 1484.18C773.307 1483.51 774.886 1482.69 775.174 1480.92C775.452 1479.15 774.725 1476.85 775.227 1473.66L779.526 1446.41ZM901.929 1393.84C901.579 1391.36 895.808 1350.75 895.377 1347.2C894.82 1339.68 897.827 1337.86 907.439 1336.68L913.488 1335.94C915.274 1335.72 915.49 1334.62 915.31 1333.19L914.278 1324.65C914.135 1323.59 913.345 1322.97 911.909 1323.13C909.073 1323.48 891.069 1326.77 880.738 1328.04C864.072 1330.46 841.84 1331.74 839.722 1332C838.286 1332.18 837.667 1332.97 837.847 1334.4L838.843 1342.57C839.022 1344 839.507 1345.02 841.275 1344.81L847.674 1344.02C862.627 1342.18 866.253 1345.35 866.728 1349.26C867.357 1354.24 873.298 1388.46 874.106 1394.14L876.296 1409.74C877.992 1421.8 883.925 1465.74 883.96 1468.99C884.05 1475.48 878.387 1476.55 869.502 1477.63L861.684 1478.59C860.266 1478.77 859.683 1479.9 859.809 1480.98L860.769 1488.82C860.975 1490.59 861.819 1491.57 863.255 1491.39C865.373 1491.13 885.881 1487.53 897.962 1486.04C913.982 1484.08 932.596 1482.87 935.442 1482.52C937.228 1482.31 937.461 1481.21 937.281 1479.76L936.231 1471.24C936.088 1470.18 935.657 1469.51 933.88 1469.72L928.531 1470.36C918.227 1471.63 913.336 1467.18 911.631 1459.09C910.616 1453.8 904.711 1413.69 904.406 1411.57L901.929 1393.84ZM1132.85 1314.94C1126.4 1301.74 1116.74 1281.08 1109.85 1263.95C1107.96 1259.25 1108 1256.24 1115.59 1251.48L1118.64 1249.59C1119.85 1248.83 1119.89 1247.53 1119.13 1246.33L1115.14 1239.93C1114 1238.11 1113.02 1237.87 1111.5 1238.84C1109.38 1240.15 1099.32 1247.73 1092.92 1251.71C1083.21 1257.8 1069.57 1265.05 1067.45 1266.37C1065.92 1267.31 1065.7 1268.32 1066.25 1269.22L1070.81 1276.51C1071.76 1278.02 1072.76 1278.26 1074.27 1277.3L1079.44 1274.08C1084.61 1270.86 1090.31 1269.83 1094.11 1272.54C1097.9 1275.22 1107.26 1294.35 1111.03 1302.07C1116.71 1312.06 1121.9 1321.88 1130.86 1340.25L1141.21 1361.5L1139.93 1362.12C1134.02 1359.83 1085.69 1336.74 1076.59 1332.81C1065.9 1328.06 1006.16 1300.04 1004.63 1299.07C1002.53 1297.58 1000.25 1297.68 995.566 1299.47C991.554 1301.01 984.786 1304.38 979.437 1306.44C975.758 1307.84 973.236 1308.78 968.766 1310.11C964.404 1311.77 960.599 1312.86 959.934 1313.1C959.663 1313.2 959.414 1313.34 959.203 1313.54C958.992 1313.73 958.823 1313.97 958.708 1314.23C958.592 1314.49 958.532 1314.77 958.532 1315.06C958.531 1315.35 958.59 1315.63 958.705 1315.89L963.013 1326.17C963.641 1327.45 964.611 1327.79 965.885 1327.15L968.793 1325.75C977.804 1321.35 986.581 1324.87 992.245 1336.47L1008.74 1370.29C1026.48 1406.69 1036.99 1429.86 1038.56 1433.89C1041.2 1441.76 1037.16 1446.53 1033.93 1448.11L1026.51 1451.71C1025.55 1452.19 1025.39 1452.66 1025.7 1453.31L1029.79 1461.68C1030.58 1463.29 1031.21 1463.78 1031.85 1463.46C1034.43 1462.2 1048.46 1454.17 1052.96 1451.98C1062.3 1447.42 1075.64 1442.09 1077.9 1441.01C1079.52 1440.22 1079.2 1439.57 1078.57 1438.29L1074.8 1430.56C1074.17 1429.26 1073.86 1428.61 1072.24 1429.4L1065.49 1432.71C1062.27 1434.28 1056.99 1432.47 1052.41 1425.52C1050.36 1422.93 1033.36 1391.36 1023.93 1372.04L1002.42 1327.92L1003.05 1327.61C1011.05 1330.88 1054.1 1352.95 1066.21 1358.19C1071.8 1360.64 1093.66 1370.33 1117.11 1380.81C1138.01 1390.15 1155.4 1398.03 1158.77 1399.17C1160.52 1399.52 1164.85 1400.2 1167.74 1398.78C1171.62 1396.9 1171 1393.21 1169.58 1390.32L1132.85 1314.94ZM1238.6 1216.41C1236.8 1214.67 1207.47 1186.02 1204.93 1183.5C1199.87 1177.93 1201.12 1174.64 1207.98 1167.8L1212.28 1163.49C1213.56 1162.22 1213.05 1161.21 1212.04 1160.19L1205.95 1154.11C1205.2 1153.36 1204.18 1153.36 1203.16 1154.37C1201.12 1156.39 1188.98 1170.08 1181.62 1177.42C1169.98 1189.58 1153.26 1204.27 1151.73 1205.8C1150.72 1206.81 1150.72 1207.83 1151.73 1208.83L1157.55 1214.66C1158.56 1215.68 1159.59 1216.17 1160.84 1214.91L1165.4 1210.35C1176.05 1199.7 1180.87 1199.95 1183.65 1202.74C1187.19 1206.29 1212.73 1229.77 1216.86 1233.75L1228.21 1244.7C1236.98 1253.17 1268.76 1284.72 1270.79 1287.25C1274.83 1292.33 1271.03 1296.62 1264.7 1302.97L1259.13 1308.54C1258.11 1309.56 1258.37 1310.82 1259.13 1311.58L1264.7 1317.15C1265.98 1318.42 1267.24 1318.68 1268.25 1317.66C1269.77 1316.14 1283.71 1300.67 1292.34 1292.07C1303.73 1280.67 1317.66 1268.25 1319.7 1266.23C1320.97 1264.96 1320.45 1263.95 1319.44 1262.93L1313.36 1256.85C1312.6 1256.09 1311.85 1255.83 1310.56 1257.09L1306.76 1260.9C1299.42 1268.24 1292.82 1267.75 1286.49 1262.42C1282.44 1258.88 1253.04 1230.33 1251.49 1228.84L1238.6 1216.41ZM1361.03 1096.74C1369.62 1098.23 1397.96 1104.8 1405.03 1106.65C1407.62 1107.91 1409.88 1110.61 1407.99 1114.48L1405.48 1119.64C1404.86 1120.92 1405.66 1121.7 1406.62 1122.18L1413.39 1125.47C1414.69 1126.1 1416.46 1126.57 1417.55 1124.31C1419.6 1120.12 1427.89 1100.65 1430.88 1094.53C1434.49 1087.14 1443.79 1070.53 1445.66 1066.67C1446.6 1064.74 1444.83 1063.48 1443.87 1063L1437.1 1059.71C1436.14 1059.23 1435.02 1059.08 1434.38 1060.37L1431.4 1066.49C1428.72 1071.96 1423.15 1076.03 1415.31 1077.4C1411 1078.08 1369.35 1070.65 1351.07 1066.66C1336.28 1063.8 1282.6 1054.93 1267.63 1052.37C1265.09 1051.78 1263.49 1051.72 1262.46 1053.6C1261.99 1054.35 1261.75 1055.22 1261.77 1056.1C1261.79 1056.99 1262.06 1057.85 1262.57 1058.58C1263.51 1062.79 1264.28 1074.69 1261.92 1081.16C1260.99 1084.34 1261.59 1085.49 1262.38 1085.5C1263.15 1086.35 1265.23 1086.28 1266.22 1086C1268.37 1084.33 1270.78 1088.12 1272.3 1089.79C1276.6 1094.62 1308.98 1136.74 1312.14 1141.36C1323.64 1157.57 1349.94 1191.51 1350.84 1195.21C1352.42 1199.82 1352.07 1206.57 1348.58 1211.56L1345.71 1215.66C1344.88 1216.84 1345.47 1217.26 1346.64 1218.08L1352.82 1222.39C1353.99 1223.22 1355.47 1224.23 1356.27 1223.06C1358.13 1220.41 1367.53 1205.12 1371.43 1199.55C1374.73 1194.86 1386.49 1179.91 1388.14 1177.57C1389.15 1176.1 1388.49 1175.18 1387.31 1174.37L1380.86 1169.84C1379.68 1169.02 1378.59 1168.7 1377.35 1170.45L1372.21 1177.79C1367.91 1183.97 1363.46 1182.16 1358.84 1176.3C1356.14 1172.66 1336.12 1150.56 1333.06 1147.23L1361.03 1096.74ZM1325.63 1136.95C1323.35 1133.64 1286.02 1087.94 1284.02 1085.6C1282.03 1083.27 1281.44 1082.13 1281.96 1081.19C1282.49 1080.25 1283.91 1080.63 1286.13 1081.04C1288.99 1081.82 1344.18 1093.14 1349.24 1094.32L1325.63 1136.95Z" fill="#1D5A98"/>
<path fill-rule="evenodd" clip-rule="evenodd" d="M720.273 1181.02C720.273 1187.62 720.273 1199.15 719.716 1201.35C718.9 1205.21 715.866 1206.6 712.303 1206.6H708.731C707.905 1206.6 707.627 1206.6 707.627 1207.42V1210.58C707.627 1211.41 707.905 1211.68 708.453 1211.68C709.557 1211.68 722.472 1211.26 727.695 1211.26C732.371 1211.26 745.017 1211.68 746.112 1211.68C746.669 1211.68 746.938 1211.41 746.938 1210.58V1207.42C746.938 1206.86 746.66 1206.6 746.112 1206.6H741.167C736.491 1206.6 734.014 1204.94 733.735 1200.55V1178.28C733.735 1171.53 734.014 1165.76 734.292 1164.12C734.57 1159.72 736.213 1158.61 739.794 1158.61H745.834C746.66 1158.61 746.938 1158.35 746.938 1157.53V1154.35C746.938 1153.8 746.66 1153.53 745.834 1153.53C744.461 1153.53 732.919 1153.95 727.695 1153.95C723.297 1153.95 710.104 1153.53 708.731 1153.53C707.905 1153.53 707.627 1154.08 707.627 1154.63V1157.92C707.627 1158.35 707.905 1158.61 708.174 1158.61H713.676C718.352 1158.61 719.716 1160.26 719.995 1163.83C720.273 1165.48 720.273 1170.7 720.273 1175.1V1181.02ZM778.539 1212.9C791.732 1212.9 803.562 1202.2 803.562 1190.36C803.283 1178 798.069 1171.95 787.065 1165.62C792.567 1161.23 801.91 1151.88 801.91 1144.73C801.91 1131.12 788.439 1125.9 779.912 1125.9C766.171 1125.9 754.082 1138.28 754.082 1148.72C754.351 1159.31 758.202 1164.25 770.3 1171.13C762.878 1176.07 755.455 1182.12 755.455 1192.28C755.455 1205.2 765.076 1212.9 778.539 1212.9ZM782.398 1163.16C770.578 1157.38 767.006 1153.81 767.006 1146.66C767.006 1136.07 772.777 1130.59 778.826 1130.59C785.97 1130.59 790.646 1137.17 790.646 1146.8C790.646 1152.45 787.344 1158.47 782.398 1163.16ZM774.419 1173.6C784.319 1178.83 790.646 1182.4 790.916 1191.19C791.194 1202.74 785.97 1207.68 778.548 1207.68C771.404 1207.68 765.902 1198.08 765.902 1191.75C765.902 1182.4 771.673 1175.79 774.419 1173.6ZM825.272 1181.02C825.272 1187.62 825.272 1199.15 824.716 1201.35C823.89 1205.21 820.874 1206.6 817.302 1206.6H813.73C812.905 1206.6 812.626 1206.6 812.626 1207.42V1210.58C812.626 1211.41 812.905 1211.68 813.452 1211.68C814.556 1211.68 827.471 1211.26 832.695 1211.26C837.371 1211.26 850.017 1211.68 851.12 1211.68C851.668 1211.68 851.946 1211.41 851.946 1210.58V1207.42C851.946 1206.86 851.668 1206.6 851.12 1206.6H846.175C841.499 1206.6 839.022 1204.94 838.744 1200.55V1178.28C838.744 1171.53 839.022 1165.76 839.291 1164.12C839.57 1159.72 841.221 1158.61 844.793 1158.61H850.842C851.668 1158.61 851.946 1158.35 851.946 1157.53V1154.35C851.946 1153.8 851.668 1153.53 850.842 1153.53C849.478 1153.53 837.927 1153.95 832.704 1153.95C828.306 1153.95 815.103 1153.53 813.739 1153.53C812.914 1153.53 812.635 1154.08 812.635 1154.63V1157.92C812.635 1158.35 812.914 1158.61 813.192 1158.61H818.685C823.361 1158.61 824.734 1160.26 825.012 1163.83C825.29 1165.48 825.29 1170.7 825.29 1175.1V1181.02H825.272ZM895.08 1201.63C890.961 1220.34 883 1231.87 868.433 1237.64C866.226 1238.48 865.678 1239.02 865.678 1240.13C865.678 1241.49 866.226 1242.32 867.59 1242.32C868.694 1242.32 868.694 1242.04 870.076 1241.77C886.294 1238.47 912.133 1218.12 912.133 1184.31C912.133 1170.99 903.876 1152.31 885.468 1152.31C869.798 1152.31 857.161 1166.32 857.161 1181.44C857.161 1198.89 871.171 1206.31 881.07 1206.31C886.841 1206.31 892.882 1203.27 894.533 1201.34L895.08 1201.63ZM883.547 1201.08C878.871 1201.08 871.736 1196.14 871.736 1182.95C871.736 1171.82 874.204 1157.25 885.477 1157.25C893.716 1157.25 896.75 1166.32 896.75 1175.94C896.75 1185.98 896.193 1192.03 893.994 1195.58C892.343 1198.34 889.309 1201.08 883.547 1201.08Z" fill="#CE8B2C"/>
</g>
<defs>
<clipPath id="clip0_184_623">
<rect width="1618" height="1618" fill="white"/>
</clipPath>
</defs>
</svg>
