<svg width="24" height="24" viewBox="0 0 24 24" fill="none" xmlns="http://www.w3.org/2000/svg">
<g clip-path="url(#clip0_146_761)">
<path d="M13.5938 24C14.2649 23.9993 14.9083 23.7323 15.3828 23.2578C15.8573 22.7833 16.1243 22.1399 16.125 21.4688V2.53125C16.1243 1.86015 15.8573 1.21675 15.3828 0.742208C14.9083 0.267668 14.2649 0.000744427 13.5938 0L4.03125 0C3.36015 0.000744427 2.71675 0.267668 2.24221 0.742208C1.76767 1.21675 1.50074 1.86015 1.5 2.53125V21.4688C1.50074 22.1399 1.76767 22.7833 2.24221 23.2578C2.71675 23.7323 3.36015 23.9993 4.03125 24H13.5938ZM12.0563 0.5625L11.6063 1.40231C11.5102 1.59537 11.3635 1.75874 11.1819 1.875C11.0003 1.99127 10.7905 2.05607 10.575 2.0625H7.05C6.83481 2.0557 6.62549 1.99073 6.44427 1.87448C6.26305 1.75824 6.11672 1.59507 6.02081 1.40231L5.56969 0.5625H12.0563ZM2.0625 21.4688V2.53125C2.0631 2.00929 2.27071 1.50887 2.63979 1.13979C3.00887 0.770708 3.50929 0.563096 4.03125 0.5625H4.93125L5.5245 1.66875C5.6685 1.95123 5.88642 2.18935 6.15507 2.35774C6.42371 2.52614 6.73301 2.61851 7.05 2.625H10.575C10.8919 2.61841 11.2011 2.52599 11.4696 2.3576C11.7381 2.18921 11.956 1.95114 12.0999 1.66875L12.6937 0.5625H13.5938C14.1157 0.563096 14.6161 0.770708 14.9852 1.13979C15.3543 1.50887 15.5619 2.00929 15.5625 2.53125V21.4688C15.5619 21.9907 15.3543 22.4911 14.9852 22.8602C14.6161 23.2293 14.1157 23.4369 13.5938 23.4375H4.03125C3.50929 23.4369 3.00887 23.2293 2.63979 22.8602C2.27071 22.4911 2.0631 21.9907 2.0625 21.4688Z" fill="white"/>
<path d="M10.7812 21H6.84375C6.76916 21 6.69762 21.0296 6.64488 21.0824C6.59213 21.1351 6.5625 21.2067 6.5625 21.2812C6.5625 21.3558 6.59213 21.4274 6.64488 21.4801C6.69762 21.5329 6.76916 21.5625 6.84375 21.5625H10.7812C10.8558 21.5625 10.9274 21.5329 10.9801 21.4801C11.0329 21.4274 11.0625 21.3558 11.0625 21.2812C11.0625 21.2067 11.0329 21.1351 10.9801 21.0824C10.9274 21.0296 10.8558 21 10.7812 21Z" fill="white"/>
<path d="M3.84375 12.1875H13.7812C14.0044 12.1855 14.2179 12.096 14.3757 11.9382C14.5335 11.7804 14.623 11.5669 14.625 11.3438V5.34375C14.6248 5.12005 14.5358 4.90558 14.3776 4.7474C14.2194 4.58922 14.005 4.50025 13.7812 4.5H3.84375C3.62053 4.50181 3.40698 4.59129 3.24913 4.74913C3.09129 4.90698 3.00181 5.12053 3 5.34375V11.3438C3.00025 11.5675 3.08922 11.7819 3.2474 11.9401C3.40558 12.0983 3.62005 12.1873 3.84375 12.1875ZM4.236 11.625L8.8125 8.67825L13.389 11.625H4.236ZM14.0582 5.30044C14.0608 5.31474 14.0622 5.32922 14.0625 5.34375V11.3438C14.0622 11.3583 14.0608 11.3728 14.0582 11.3871L9.33188 8.34375L14.0582 5.30044ZM13.389 5.0625L8.8125 8.00925L4.236 5.0625H13.389ZM3.5625 5.34375C3.56279 5.32922 3.56424 5.31474 3.56681 5.30044L8.29312 8.34375L3.56681 11.3871C3.56424 11.3728 3.56279 11.3583 3.5625 11.3438V5.34375Z" fill="white"/>
<path d="M8.4375 18.0938V13.5938C8.4375 13.4197 8.36836 13.2528 8.24529 13.1297C8.12222 13.0066 7.9553 12.9375 7.78125 12.9375H3.65625C3.4822 12.9375 3.31528 13.0066 3.19221 13.1297C3.06914 13.2528 3 13.4197 3 13.5938V18.0938C3 18.2678 3.06914 18.4347 3.19221 18.5578C3.31528 18.6809 3.4822 18.75 3.65625 18.75H7.78125C7.9553 18.75 8.12222 18.6809 8.24529 18.5578C8.36836 18.4347 8.4375 18.2678 8.4375 18.0938ZM7.875 13.9344V17.7531L6.10256 15.8438L7.875 13.9344ZM7.51087 13.5L5.71875 15.4313L3.92662 13.5H7.51087ZM3.5625 17.7531V13.9344L5.33494 15.8438L3.5625 17.7531ZM3.92662 18.1875L5.71875 16.2562L7.51087 18.1875H3.92662Z" fill="white"/>
<path d="M13.9688 12.9375H9.84375C9.6697 12.9375 9.50278 13.0066 9.37971 13.1297C9.25664 13.2528 9.1875 13.4197 9.1875 13.5938V18.0938C9.1875 18.2678 9.25664 18.4347 9.37971 18.5578C9.50278 18.6809 9.6697 18.75 9.84375 18.75H13.9688C14.1428 18.75 14.3097 18.6809 14.4328 18.5578C14.5559 18.4347 14.625 18.2678 14.625 18.0938V13.5938C14.625 13.4197 14.5559 13.2528 14.4328 13.1297C14.3097 13.0066 14.1428 12.9375 13.9688 12.9375ZM13.6984 13.5L11.9062 15.4313L10.1141 13.5H13.6984ZM9.75 17.7531V13.9344L11.5224 15.8438L9.75 17.7531ZM10.1141 18.1875L11.9062 16.2562L13.6984 18.1875H10.1141ZM14.0625 17.7531L12.2901 15.8438L14.0625 13.9344V17.7531Z" fill="white"/>
<path d="M20.4954 23.7092L22.0789 21.9754C22.3497 21.6943 22.5007 21.3189 22.5 20.9286V2.625C22.5 1.92881 22.2234 1.26113 21.7312 0.768845C21.2389 0.276562 20.5712 0 19.875 0C19.1788 0 18.5111 0.276562 18.0188 0.768845C17.5266 1.26113 17.25 1.92881 17.25 2.625V20.9591C17.2503 21.3292 17.3861 21.6864 17.6318 21.9632L19.2536 23.7137C19.3334 23.7986 19.4298 23.8661 19.5367 23.9122C19.6437 23.9582 19.759 23.9817 19.8755 23.9813C19.992 23.9809 20.1071 23.9565 20.2138 23.9097C20.3204 23.8629 20.4163 23.7946 20.4954 23.7092ZM20.0801 23.3299C20.0539 23.3586 20.022 23.3816 19.9864 23.3974C19.9508 23.4131 19.9124 23.4213 19.8735 23.4215C19.8345 23.4216 19.796 23.4137 19.7603 23.3982C19.7247 23.3827 19.6926 23.3599 19.6661 23.3314L19.3901 23.0334C19.451 22.966 19.5252 22.9119 19.6082 22.8748C19.6911 22.8376 19.7809 22.8182 19.8717 22.8177C19.9626 22.8172 20.0526 22.8357 20.1359 22.872C20.2192 22.9083 20.294 22.9615 20.3556 23.0284L20.0801 23.3299ZM21.9375 20.9286C21.9375 20.9447 21.9337 20.9599 21.933 20.9758L21.2812 20.5134V4.6875H21.9375V20.9286ZM19.875 0.5625C20.4218 0.563145 20.946 0.780651 21.3327 1.1673C21.7193 1.55396 21.9369 2.07819 21.9375 2.625H17.8125C17.8131 2.07819 18.0307 1.55396 18.4173 1.1673C18.804 0.780651 19.3282 0.563145 19.875 0.5625ZM17.8125 3.1875H21.9375V4.125H17.8125V3.1875ZM20.7188 4.6875V20.517L19.875 21.1369L19.0312 20.5164V4.6875H20.7188ZM17.8125 20.9591V4.6875H18.4688V20.5157L17.8151 20.9874C17.8147 20.9779 17.8125 20.9687 17.8125 20.9591ZM18.0491 21.5861C18.0358 21.5709 18.0259 21.5535 18.0137 21.5377L18.75 21.0069L19.7098 21.7127C19.7581 21.7482 19.8165 21.7673 19.8764 21.7673C19.9363 21.7673 19.9947 21.7482 20.043 21.7127L21.0043 21.006L21.7267 21.5186C21.708 21.5428 21.6909 21.5683 21.6692 21.5908L20.7354 22.6134C20.622 22.4998 20.4872 22.4097 20.3388 22.3485C20.1903 22.2873 20.0312 22.2562 19.8707 22.2569C19.7101 22.2576 19.5513 22.2902 19.4034 22.3527C19.2555 22.4152 19.1215 22.5065 19.0091 22.6211L18.0491 21.5861Z" fill="white"/>
</g>
<defs>
<clipPath id="clip0_146_761">
<rect width="24" height="24" fill="white"/>
</clipPath>
</defs>
</svg>
