<svg width="128" height="128" viewBox="0 0 128 128" fill="none" xmlns="http://www.w3.org/2000/svg">
<g clip-path="url(#clip0_197_295)">
<path d="M86.1316 41.8691L85.9716 41.7091C80.7416 36.4773 73.8164 33.2834 66.4418 32.7017C59.0671 32.12 51.7268 34.1888 45.7413 38.536C39.7557 42.8831 35.5177 49.2233 33.7895 56.4162C32.0612 63.6091 32.9562 71.1826 36.3134 77.7745L37.6807 80.4654L35.1353 92.8291L35.0989 92.9891L47.3825 90.08L50.1825 91.4982C56.0085 94.3924 62.5951 95.3876 69.0161 94.344C75.4371 93.3003 81.3694 90.2703 85.9789 85.68C91.7769 79.8813 95.0473 72.0257 95.0773 63.8257C95.1073 55.6257 91.8943 47.7463 86.1389 41.9054L86.1316 41.8691ZM84.8807 76.5745C83.3753 78.9454 80.9971 81.84 78.008 82.56C72.7716 83.8327 64.7353 82.6036 54.7353 73.2872L54.6116 73.1709C45.8189 65.0254 43.5353 58.24 44.088 52.8582C44.3934 49.7963 46.9389 47.04 49.0843 45.2291C49.4241 44.9411 49.8264 44.7362 50.2591 44.6309C50.6919 44.5255 51.1433 44.5224 51.5775 44.622C52.0116 44.7215 52.4166 44.9209 52.7602 45.2043C53.1038 45.4877 53.3767 45.8473 53.5571 46.2545L56.7934 53.5709C57.0053 54.0421 57.0841 54.5623 57.0213 55.0752C56.9585 55.588 56.7564 56.0738 56.4371 56.48L54.8007 58.6036C54.4581 59.0391 54.2512 59.5658 54.2059 60.118C54.1607 60.6703 54.279 61.2236 54.5462 61.7091C55.4625 63.3091 57.6589 65.6727 60.0953 67.8691C62.8298 70.3345 65.8625 72.5963 67.7825 73.3745C68.2975 73.5806 68.862 73.629 69.4045 73.5138C69.947 73.3986 70.4431 73.1248 70.8298 72.7273L72.728 70.8145C73.0942 70.4534 73.5497 70.1958 74.048 70.068C74.5463 69.9403 75.0695 69.9469 75.5643 70.0873L83.2516 72.2691C83.6767 72.3989 84.0665 72.6243 84.3909 72.9282C84.7153 73.232 84.9658 73.6062 85.1231 74.0219C85.2804 74.4376 85.3403 74.8839 85.2983 75.3264C85.2563 75.7688 85.1134 76.1958 84.8807 76.5745Z" fill="#F9F9F9"/>
<path d="M110.545 0H17.4545C12.8253 0 8.38568 1.83896 5.11232 5.11232C1.83896 8.38568 0 12.8253 0 17.4545L0 110.545C0 115.175 1.83896 119.614 5.11232 122.888C8.38568 126.161 12.8253 128 17.4545 128H110.545C115.175 128 119.614 126.161 122.888 122.888C126.161 119.614 128 115.175 128 110.545V17.4545C128 12.8253 126.161 8.38568 122.888 5.11232C119.614 1.83896 115.175 0 110.545 0ZM103.658 64.9455C103.444 71.5898 101.563 78.0737 98.1902 83.8022C94.817 89.5306 90.0589 94.3199 84.3527 97.7304C78.6464 101.141 72.1749 103.064 65.5321 103.322C58.8893 103.58 52.2882 102.165 46.3345 99.2073L26.2982 103.956C25.9945 104.027 25.6765 104.005 25.3859 103.892C25.0952 103.779 24.8454 103.581 24.6691 103.324C24.5501 103.153 24.4674 102.96 24.4261 102.756C24.3848 102.552 24.3858 102.342 24.4291 102.138L28.64 81.6945C25.8934 76.3013 24.4169 70.3511 24.3235 64.2994C24.2302 58.2477 25.5225 52.2549 28.1014 46.7794C30.6804 41.304 34.4778 36.4911 39.203 32.7089C43.9281 28.9268 49.4559 26.2757 55.3632 24.9585C61.2705 23.6413 67.4009 23.6929 73.2852 25.1094C79.1696 26.5259 84.6519 29.2696 89.3127 33.1308C93.9735 36.9919 97.6893 41.8681 100.176 47.3862C102.662 52.9043 103.853 58.918 103.658 64.9673V64.9455Z" fill="#F9F9F9"/>
</g>
<defs>
<clipPath id="clip0_197_295">
<path d="M0 24C0 15.5992 0 11.3988 1.6349 8.19014C3.073 5.36771 5.36771 3.073 8.19014 1.6349C11.3988 0 15.5992 0 24 0H104C112.401 0 116.601 0 119.81 1.6349C122.632 3.073 124.927 5.36771 126.365 8.19014C128 11.3988 128 15.5992 128 24V104C128 112.401 128 116.601 126.365 119.81C124.927 122.632 122.632 124.927 119.81 126.365C116.601 128 112.401 128 104 128H24C15.5992 128 11.3988 128 8.19014 126.365C5.36771 124.927 3.073 122.632 1.6349 119.81C0 116.601 0 112.401 0 104V24Z" fill="white"/>
</clipPath>
</defs>
</svg>
