<svg width="24" height="24" viewBox="0 0 24 24" fill="none" xmlns="http://www.w3.org/2000/svg">
<path d="M19.3125 1.125H4.6875C2.51288 1.125 0.75 2.88788 0.75 5.0625V18.9375C0.75 21.1121 2.51288 22.875 4.6875 22.875H19.3125C21.4871 22.875 23.25 21.1121 23.25 18.9375V5.0625C23.25 2.88788 21.4871 1.125 19.3125 1.125Z" fill="#470137"/>
<path d="M12.3161 7.2788L9.5486 12.0338L12.5308 17.0963C12.5917 17.1994 12.5655 17.25 12.4539 17.25H10.5939C10.5479 17.2549 10.5014 17.2458 10.4606 17.2239C10.4198 17.202 10.3866 17.1683 10.3652 17.1272L8.2661 13.2769H8.25017L6.20641 17.1272C6.18762 17.1639 6.15918 17.1947 6.12415 17.2163C6.08912 17.238 6.04884 17.2496 6.00767 17.25H4.21892C4.11673 17.25 4.09704 17.1994 4.15798 17.0963L7.09048 12.1725L4.29673 7.24786C4.23579 7.1663 4.25642 7.12505 4.35767 7.12505H6.22142C6.26138 7.12219 6.30132 7.13082 6.33654 7.14992C6.37176 7.16902 6.40077 7.1978 6.42017 7.23286L8.38892 11.0372H8.40392L10.3624 7.23286C10.3817 7.19795 10.4105 7.16928 10.4456 7.15018C10.4806 7.13109 10.5204 7.12237 10.5602 7.12505H12.2552C12.3677 7.12505 12.3874 7.17661 12.3161 7.2788Z" fill="#FF61F6"/>
<path d="M16.8628 17.4377C15.7753 17.4377 14.9381 17.1292 14.2884 16.5133C13.6388 15.8974 13.3125 14.9871 13.3125 13.7814C13.3125 12.6858 13.6619 11.7858 14.3606 11.0814C14.7182 10.7114 15.1481 10.4188 15.6235 10.2221C16.099 10.0253 16.6099 9.9285 17.1244 9.93768C17.3547 9.93358 17.5845 9.95814 17.8088 10.0108V6.8383C17.8071 6.82642 17.8081 6.8143 17.8119 6.8029C17.8157 6.7915 17.822 6.78113 17.8305 6.7726C17.8389 6.76406 17.8492 6.7576 17.8606 6.75371C17.8719 6.74982 17.884 6.74861 17.8959 6.75018H19.6097C19.6575 6.75018 19.6819 6.77924 19.6819 6.8383V15.7211C19.6819 16.0961 19.8441 16.4158 19.8694 16.6896C19.8745 16.7167 19.8701 16.7447 19.8567 16.7689C19.8433 16.793 19.822 16.8117 19.7963 16.8217C18.9553 17.2324 17.8528 17.4377 16.8628 17.4377ZM17.8125 15.9855V11.4508C17.7516 11.3439 17.4291 11.2502 17.0991 11.2502C16.8259 11.2431 16.5547 11.2971 16.3051 11.4082C16.0555 11.5193 15.8338 11.6847 15.6562 11.8924C15.2239 12.3988 14.9906 13.0453 15 13.7111C15 14.5324 15.2813 15.0949 15.6478 15.4858C15.8211 15.6845 16.0345 15.8442 16.274 15.9544C16.5135 16.0646 16.7736 16.1228 17.0372 16.1252C17.3869 16.1252 17.7291 16.0727 17.8125 15.9855Z" fill="#FF61F6"/>
</svg>
