<svg width="24" height="24" viewBox="0 0 24 24" fill="none" xmlns="http://www.w3.org/2000/svg">
<path d="M19.3125 1.125H4.6875C2.51288 1.125 0.75 2.88788 0.75 5.0625V18.9375C0.75 21.1121 2.51288 22.875 4.6875 22.875H19.3125C21.4871 22.875 23.25 21.1121 23.25 18.9375V5.0625C23.25 2.88788 21.4871 1.125 19.3125 1.125Z" fill="#330000"/>
<path d="M12.0739 14.6248H8.71863L7.85238 17.126C7.84238 17.2085 7.7902 17.2498 7.69582 17.2498H6.12082C6.01582 17.2498 5.97926 17.1982 6.01113 17.0951L9.05051 8.06788C9.13635 7.79302 9.17873 7.50645 9.17613 7.21851C9.17444 7.2058 9.17569 7.19286 9.1798 7.18072C9.18391 7.16857 9.19077 7.15753 9.19984 7.14846C9.20891 7.13939 9.21994 7.13254 9.23209 7.12843C9.24424 7.12431 9.25717 7.12306 9.26988 7.12476H11.4749C11.5386 7.12476 11.5752 7.15101 11.5855 7.20163L14.9868 17.111C15.0186 17.2048 14.9924 17.2498 14.908 17.2498H13.1446C13.1119 17.2517 13.0795 17.2438 13.0514 17.2271C13.0233 17.2104 13.0009 17.1856 12.9871 17.156L12.0739 14.6248ZM9.09363 12.9373H11.7074C11.6446 12.7994 10.4689 9.00632 10.3846 8.68663H10.3696L9.09363 12.9373Z" fill="#FF9A00"/>
<path d="M16.8666 9C16.7187 9.00632 16.5711 8.98294 16.4325 8.93126C16.2939 8.87957 16.167 8.80062 16.0594 8.69906C15.9541 8.592 15.8722 8.4642 15.8189 8.32378C15.7657 8.18337 15.7422 8.03341 15.75 7.88344C15.743 7.73156 15.7677 7.57989 15.8224 7.43804C15.8771 7.29618 15.9607 7.16724 16.0678 7.05938C16.1763 6.9561 16.3044 6.87554 16.4444 6.82242C16.5845 6.76929 16.7337 6.74467 16.8834 6.75C17.0334 6.74219 17.1834 6.76566 17.3238 6.81892C17.4642 6.87218 17.592 6.95407 17.6991 7.05938C17.8016 7.16979 17.881 7.29955 17.9326 7.44106C17.9843 7.58256 18.0072 7.73296 18 7.88344C18.0078 8.03341 17.9843 8.18337 17.9311 8.32378C17.8778 8.4642 17.7959 8.592 17.6906 8.69906C17.5802 8.80155 17.4505 8.88097 17.3089 8.93264C17.1674 8.98432 17.017 9.00722 16.8666 9Z" fill="#FF9A00"/>
<path d="M15.9372 17.1096V9.87584C15.9347 9.85876 15.9362 9.84132 15.9416 9.82493C15.947 9.80853 15.9562 9.79363 15.9684 9.78142C15.9806 9.76922 15.9955 9.76003 16.0119 9.75461C16.0283 9.74919 16.0458 9.74769 16.0629 9.75021H17.6866C17.7036 9.74789 17.721 9.74953 17.7373 9.75503C17.7536 9.76052 17.7684 9.7697 17.7806 9.78187C17.7927 9.79403 17.8019 9.80884 17.8074 9.82514C17.8129 9.84144 17.8146 9.8588 17.8122 9.87584V17.1246C17.8148 17.1417 17.8132 17.1591 17.8078 17.1755C17.8024 17.1919 17.7932 17.2068 17.781 17.219C17.7688 17.2312 17.7539 17.2404 17.7375 17.2458C17.7211 17.2512 17.7037 17.2527 17.6866 17.2502H16.0779C16.0588 17.2529 16.0393 17.251 16.0211 17.2449C16.0028 17.2388 15.9862 17.2285 15.9726 17.2149C15.9589 17.2013 15.9487 17.1847 15.9425 17.1664C15.9364 17.1481 15.9346 17.1287 15.9372 17.1096Z" fill="#FF9A00"/>
</svg>
