<svg width="24" height="24" viewBox="0 0 24 24" fill="none" xmlns="http://www.w3.org/2000/svg">
<g clip-path="url(#clip0_172_410)">
<path d="M20.3713 5.16402C20.2766 5.05963 20.1422 5.0001 20.0013 5H4.00125C3.72511 4.99879 3.50025 5.22163 3.49903 5.49777C3.49894 5.51422 3.49969 5.53063 3.50123 5.54699L5.00123 21.547C5.02059 21.7522 5.16394 21.9246 5.36222 21.981L12.3622 23.981C12.4074 23.9938 12.4542 24.0002 12.5012 24C12.5548 23.9999 12.6082 23.9915 12.6592 23.975L18.6592 21.975C18.8474 21.9124 18.9808 21.7445 18.9992 21.547L20.4992 5.54699C20.5124 5.40707 20.4659 5.26804 20.3713 5.16402Z" fill="#2196F3"/>
<path d="M12.5011 20.0001C12.4547 19.9998 12.4086 19.9931 12.3641 19.9801L8.86407 18.9801C8.69227 18.9312 8.55962 18.7943 8.51607 18.6211L8.01605 16.6211C7.94302 16.3548 8.09973 16.0797 8.36602 16.0066C8.63232 15.9336 8.90743 16.0903 8.98046 16.3566C8.98252 16.3641 8.98435 16.3715 8.98604 16.3791L9.41602 18.099L12.501 18.981L15.541 18.112L16.441 10.001H7.50099C7.22485 10.001 7.00098 9.77714 7.00098 9.501C7.00098 9.22486 7.22485 9.00099 7.50099 9.00099H17.001C17.2771 8.9993 17.5023 9.22181 17.504 9.49796C17.5041 9.51736 17.5031 9.53672 17.501 9.55599L16.501 18.556C16.4783 18.7575 16.3361 18.9255 16.141 18.981L12.641 19.981C12.5956 19.994 12.5484 20.0004 12.5011 20.0001Z" fill="#FAFAFA"/>
<path d="M16.501 14H8.00099C7.72485 14 7.50098 13.7762 7.50098 13.5C7.50098 13.2239 7.72485 13 8.00099 13H16.501C16.7771 13 17.001 13.2239 17.001 13.5C17.001 13.7762 16.7771 14 16.501 14Z" fill="#FAFAFA"/>
<path d="M9.00101 3H7.00099C6.72485 3 6.50098 2.77612 6.50098 2.49998V0.500016C6.50102 0.223875 6.72485 0 7.00099 0H9.00101C9.27715 0 9.50102 0.223875 9.50102 0.500016C9.50102 0.776156 9.27715 1.00003 9.00101 1.00003H7.50101V2.00002H9.00101C9.27715 2.00002 9.50102 2.22389 9.50102 2.50003C9.50102 2.77617 9.27715 3 9.00101 3Z" fill="white"/>
<path d="M13.0009 3.00005H11.0009C10.7247 3.00005 10.5009 2.77617 10.5009 2.50003C10.5009 2.22389 10.7247 2.00002 11.0009 2.00002H11.7939L10.6469 0.854016C10.4514 0.659016 10.451 0.342423 10.646 0.146907C10.74 0.0526414 10.8678 -0.000233599 11.0009 7.7586e-07H13.0009C13.277 7.7586e-07 13.5009 0.223876 13.5009 0.500016C13.5009 0.776157 13.277 1.00003 13.0009 1.00003H12.2079L13.3539 2.14603C13.5494 2.34103 13.5498 2.65763 13.3548 2.85314C13.261 2.94717 13.1337 3 13.0009 3.00005Z" fill="white"/>
<path d="M17.0009 3H15.0009C14.7247 3 14.5009 2.77613 14.5009 2.49999C14.5009 2.22384 14.7247 1.99997 15.0009 1.99997H15.7939L14.6469 0.854016C14.4514 0.659016 14.451 0.342423 14.646 0.146907C14.74 0.0526414 14.8678 -0.000233599 15.0009 7.75859e-07H17.0009C17.277 7.75859e-07 17.5009 0.223876 17.5009 0.500016C17.5009 0.776157 17.277 1.00003 17.0009 1.00003H16.2079L17.3539 2.14603C17.5494 2.34103 17.5498 2.65763 17.3548 2.85314C17.261 2.94713 17.1337 2.99995 17.0009 3Z" fill="white"/>
</g>
<defs>
<clipPath id="clip0_172_410">
<rect width="24" height="24" fill="white"/>
</clipPath>
</defs>
</svg>
