<svg width="48" height="48" viewBox="0 0 48 48" fill="none" xmlns="http://www.w3.org/2000/svg">
<g clip-path="url(#clip0_144_559)">
<path d="M18.9383 33.5762C18.757 33.5762 18.5744 33.5139 18.4253 33.3872L13.2974 29.0288C13.1205 28.8783 13.0188 28.6584 13.0188 28.4263C13.0188 28.1945 13.121 27.9747 13.2974 27.8242L18.4253 23.4657C18.7583 23.1823 19.2585 23.2225 19.5424 23.5549C19.8258 23.8877 19.786 24.3869 19.4526 24.6699L15.0335 28.4263L19.4526 32.1826C19.786 32.466 19.8258 32.9652 19.5424 33.2976C19.3854 33.4817 19.1625 33.5762 18.9383 33.5762Z" fill="white"/>
<path d="M29.0616 33.5762C28.8374 33.5762 28.6146 33.4817 28.458 33.2976C28.1741 32.9652 28.2144 32.466 28.5473 32.1826L32.9664 28.4263L28.5473 24.6699C28.2144 24.3869 28.1741 23.8877 28.458 23.5549C28.7415 23.2225 29.2421 23.1823 29.5746 23.4657L34.7026 27.8242C34.8794 27.9747 34.9812 28.1945 34.9812 28.4263C34.9812 28.6584 34.8794 28.8783 34.7026 29.0288L29.5746 33.3872C29.4256 33.5139 29.243 33.5762 29.0616 33.5762Z" fill="white"/>
<path d="M22.1848 36.8451C22.1304 36.8451 22.0756 36.8393 22.0203 36.8279C21.5922 36.7378 21.3181 36.318 21.4083 35.8907L24.6042 20.7447C24.6944 20.3175 25.1145 20.0438 25.543 20.1338C25.9711 20.2239 26.2453 20.6432 26.155 21.0709L22.9591 36.2169C22.8804 36.5895 22.5514 36.8451 22.1848 36.8451Z" fill="white"/>
<path d="M42.6792 45.097H5.32076C2.38709 45.097 0 42.7147 0 39.786V8.13621C0 5.20791 2.38709 2.8252 5.32076 2.8252H42.6792C45.6129 2.8252 48 5.20791 48 8.13621V39.786C48 42.7147 45.6129 45.097 42.6792 45.097ZM5.32076 4.4072C3.26091 4.4072 1.58491 6.08013 1.58491 8.13621V39.786C1.58491 41.842 3.26091 43.515 5.32076 43.515H42.6792C44.7391 43.515 46.4151 41.842 46.4151 39.786V8.13621C46.4151 6.08013 44.7391 4.4072 42.6792 4.4072H5.32076Z" fill="white"/>
<path d="M47.2076 15.4912H0.792453C0.354658 15.4912 0 15.1372 0 14.7002C0 14.2636 0.354658 13.9092 0.792453 13.9092H47.2076C47.6453 13.9092 48 14.2636 48 14.7002C48 15.1372 47.6453 15.4912 47.2076 15.4912Z" fill="white"/>
<path d="M13.5398 11.7061C12.1574 11.7061 11.032 10.5828 11.032 9.20293C11.032 7.82265 12.1574 6.69971 13.5398 6.69971C14.9226 6.69971 16.0476 7.82265 16.0476 9.20293C16.0476 10.5828 14.9226 11.7061 13.5398 11.7061ZM13.5398 8.28171C13.0312 8.28171 12.6169 8.69487 12.6169 9.20293C12.6169 9.71099 13.0312 10.1241 13.5398 10.1241C14.0488 10.1241 14.4627 9.71099 14.4627 9.20293C14.4627 8.69487 14.0488 8.28171 13.5398 8.28171Z" fill="white"/>
<path d="M5.83472 11.6817C4.4519 11.6817 3.3269 10.5588 3.3269 9.17851C3.3269 7.79823 4.4519 6.67529 5.83472 6.67529C7.21753 6.67529 8.34253 7.79823 8.34253 9.17851C8.34253 10.5588 7.21753 11.6817 5.83472 11.6817ZM5.83472 8.2573C5.32617 8.2573 4.91181 8.67089 4.91181 9.17851C4.91181 9.68657 5.32617 10.0997 5.83472 10.0997C6.34371 10.0997 6.75762 9.68657 6.75762 9.17851C6.75762 8.67089 6.34371 8.2573 5.83472 8.2573Z" fill="white"/>
<path d="M21.2449 11.7301C19.8625 11.7301 18.7375 10.6072 18.7375 9.2269C18.7375 7.84706 19.8625 6.72412 21.2449 6.72412C22.6277 6.72412 23.7527 7.84706 23.7527 9.2269C23.7527 10.6072 22.6277 11.7301 21.2449 11.7301ZM21.2449 8.30568C20.7364 8.30568 20.3225 8.71884 20.3225 9.2269C20.3225 9.73496 20.7364 10.1481 21.2449 10.1481C21.7539 10.1481 22.1678 9.73496 22.1678 9.2269C22.1678 8.71884 21.7539 8.30568 21.2449 8.30568Z" fill="white"/>
</g>
<defs>
<clipPath id="clip0_144_559">
<rect width="48" height="47.9121" fill="white"/>
</clipPath>
</defs>
</svg>
