<svg width="24" height="24" viewBox="0 0 24 24" fill="none" xmlns="http://www.w3.org/2000/svg">
<path d="M12.0278 12C12.0278 9.79086 13.8187 8 16.0278 8C18.2369 8 20.0278 9.79091 20.0278 12C20.0278 14.2092 18.2369 16 16.0278 16C13.8186 16 12.0278 14.2091 12.0278 12Z" fill="#00BCFF"/>
<path d="M4.02783 19.9999C4.02783 17.7908 5.81869 15.9999 8.02782 15.9999L10.1595 14.8745L12.0278 15.9999V19.9999C12.0278 22.2091 10.2369 23.9999 8.02782 23.9999C5.81869 23.9999 4.02783 22.209 4.02783 19.9999Z" fill="#00CF7F"/>
<path d="M12.0277 0L9.85107 3.78141L12.0277 7.99997H15.9715C18.1807 7.99997 19.9715 6.20911 19.9715 3.99998C19.9715 1.79086 18.1807 0 15.9715 0H12.0277Z" fill="#FF7361"/>
<path d="M3.97168 3.99998C3.97168 6.20911 5.76254 7.99997 7.97166 7.99997L10.0936 8.81953L12.0278 7.99997V0H7.97162C5.76254 0 3.97168 1.79086 3.97168 3.99998Z" fill="#FF4D12"/>
<path d="M4.02783 12C4.02783 14.2092 5.81869 16 8.02782 16H12.0278V8H8.02782C5.81869 8 4.02783 9.79091 4.02783 12Z" fill="#B659FF"/>
</svg>
