<svg width="24" height="24" viewBox="0 0 24 24" fill="none" xmlns="http://www.w3.org/2000/svg">
<path d="M5.08154 0H6.15967V1.06875H7.15342V0H8.23154V3.23438H7.15342V2.15625H6.16904V3.23438H5.08154V0ZM9.65654 1.07812H8.70498V0H11.6909V1.07812H10.7347V3.23438H9.65654V1.07812ZM12.1644 0H13.294L13.9878 1.13906L14.6815 0H15.8112V3.23438H14.7331V1.63125L13.9784 2.79375L13.2237 1.63125V3.23438H12.1644V0ZM16.3456 0H17.4237V2.16563H18.9519V3.23438H16.3456V0Z" fill="white"/>
<path d="M5.04395 22.0783L3.49707 4.71582H20.5033L18.9564 22.0689L11.9861 24.0002" fill="#FF4C1E"/>
<path d="M12 22.5234V6.14062H18.9516L17.625 20.9531L12 22.5234Z" fill="#FF651E"/>
<path d="M6.65625 8.26416H12L12.7946 9.32822L12 10.3923H8.99063L9.1875 12.572H12L12.7946 13.6758L12 14.6954H7.2375L6.65625 8.26416ZM7.33125 15.7642H9.46875L9.61875 17.4657L12 18.1032L12.8966 19.1654L12 20.3251L7.63125 19.1063L7.33125 15.7642Z" fill="#EBEBEB"/>
<path d="M17.3251 8.26416H11.9907V10.3923H17.1282L17.3251 8.26416ZM16.936 12.572H11.9907V14.7001H14.6157L14.3673 17.4657L11.9907 18.1032V20.3157L16.3501 19.1063L16.936 12.572Z" fill="white"/>
</svg>
