<svg width="48" height="48" viewBox="0 0 48 48" fill="none" xmlns="http://www.w3.org/2000/svg">
<g clip-path="url(#clip0_144_568)">
<path d="M44.4001 26.6251C43.2001 35.8501 35.9251 43.2001 26.6251 44.4001C26.5501 42.9751 25.3501 41.9251 24.0001 41.9251C22.5751 41.9251 21.4501 43.0501 21.3751 44.4001C12.0751 43.2001 4.8001 35.9251 3.6001 26.6251C5.0251 26.5501 6.0751 25.3501 6.0751 24.0001C6.0751 22.6501 4.9501 21.4501 3.6001 21.3751C4.8001 12.0751 12.0751 4.8001 21.3751 3.6001C21.4501 5.0251 22.6501 6.0751 24.0001 6.0751C25.4251 6.0751 26.5501 4.9501 26.6251 3.6001C35.8501 4.8001 43.2001 12.0751 44.4001 21.3751C42.9751 21.4501 41.9251 22.6501 41.9251 24.0001C41.9251 25.3501 43.0501 26.5501 44.4001 26.6251Z" stroke="white" stroke-miterlimit="10"/>
<path d="M47.25 24.0002C47.25 25.5002 46.05 26.7002 44.55 26.7002C44.475 26.7002 44.4 26.7002 44.4 26.7002C42.975 26.6252 41.925 25.4252 41.925 24.0752C41.925 22.7252 43.05 21.5252 44.4 21.4502H44.55C46.05 21.3002 47.25 22.5002 47.25 24.0002Z" stroke="white" stroke-miterlimit="10"/>
<path d="M6.075 23.9998C6.075 25.4248 4.95 26.5498 3.6 26.6248C3.525 26.6248 3.45 26.6248 3.45 26.6248C1.95 26.6998 0.75 25.4998 0.75 23.9998C0.75 22.4998 1.95 21.2998 3.45 21.2998H3.6C4.95 21.4498 6.075 22.5748 6.075 23.9998Z" stroke="white" stroke-miterlimit="10"/>
<path d="M26.7 44.5498C26.7 46.0498 25.5 47.2498 24 47.2498C22.5 47.2498 21.3 46.0498 21.3 44.5498C21.3 44.4748 21.3 44.3998 21.3 44.3998C21.375 42.9748 22.575 41.9248 23.925 41.9248C25.35 41.9248 26.4751 43.0498 26.5501 44.3998C26.7001 44.4748 26.7 44.5498 26.7 44.5498Z" stroke="white" stroke-miterlimit="10"/>
<path d="M26.6999 3.45V3.6C26.6249 5.025 25.4249 6.075 24.0749 6.075C22.6499 6.075 21.5249 4.95 21.4499 3.6C21.4499 3.525 21.4499 3.45 21.4499 3.45C21.2999 1.95 22.4999 0.75 23.9999 0.75C25.4999 0.75 26.6999 1.95 26.6999 3.45Z" stroke="white" stroke-miterlimit="10"/>
<path d="M26.625 3.6001H38.325" stroke="white" stroke-miterlimit="10"/>
<path d="M39.75 5.1749C40.6199 5.1749 41.325 4.46975 41.325 3.5999C41.325 2.73005 40.6199 2.0249 39.75 2.0249C38.8802 2.0249 38.175 2.73005 38.175 3.5999C38.175 4.46975 38.8802 5.1749 39.75 5.1749Z" stroke="white" stroke-miterlimit="10"/>
<path d="M21.3 3.6001H9.67505" stroke="white" stroke-miterlimit="10"/>
<path d="M8.25005 5.1749C9.1199 5.1749 9.82505 4.46975 9.82505 3.5999C9.82505 2.73005 9.1199 2.0249 8.25005 2.0249C7.3802 2.0249 6.67505 2.73005 6.67505 3.5999C6.67505 4.46975 7.3802 5.1749 8.25005 5.1749Z" stroke="white" stroke-miterlimit="10"/>
<path d="M26.625 44.5498H38.325" stroke="white" stroke-miterlimit="10"/>
<path d="M39.75 46.1251C40.6199 46.1251 41.325 45.4199 41.325 44.5501C41.325 43.6803 40.6199 42.9751 39.75 42.9751C38.8802 42.9751 38.175 43.6803 38.175 44.5501C38.175 45.4199 38.8802 46.1251 39.75 46.1251Z" stroke="white" stroke-miterlimit="10"/>
<path d="M21.3 44.5498H9.67505" stroke="white" stroke-miterlimit="10"/>
<path d="M8.25005 46.1251C9.1199 46.1251 9.82505 45.4199 9.82505 44.5501C9.82505 43.6803 9.1199 42.9751 8.25005 42.9751C7.3802 42.9751 6.67505 43.6803 6.67505 44.5501C6.67505 45.4199 7.3802 46.1251 8.25005 46.1251Z" stroke="white" stroke-miterlimit="10"/>
<path d="M44.4751 26.7749V38.3999" stroke="white" stroke-miterlimit="10"/>
<path d="M44.4749 41.4752C45.3447 41.4752 46.0499 40.77 46.0499 39.9002C46.0499 39.0303 45.3447 38.3252 44.4749 38.3252C43.6051 38.3252 42.8999 39.0303 42.8999 39.9002C42.8999 40.77 43.6051 41.4752 44.4749 41.4752Z" stroke="white" stroke-miterlimit="10"/>
<path d="M44.4751 21.45V9.75" stroke="white" stroke-miterlimit="10"/>
<path d="M44.4749 9.9C45.3447 9.9 46.0499 9.19485 46.0499 8.325C46.0499 7.45515 45.3447 6.75 44.4749 6.75C43.6051 6.75 42.8999 7.45515 42.8999 8.325C42.8999 9.19485 43.6051 9.9 44.4749 9.9Z" stroke="white" stroke-miterlimit="10"/>
<path d="M3.5249 26.7749V38.3999" stroke="white" stroke-miterlimit="10"/>
<path d="M3.52495 41.4752C4.3948 41.4752 5.09995 40.77 5.09995 39.9002C5.09995 39.0303 4.3948 38.3252 3.52495 38.3252C2.6551 38.3252 1.94995 39.0303 1.94995 39.9002C1.94995 40.77 2.6551 41.4752 3.52495 41.4752Z" stroke="white" stroke-miterlimit="10"/>
<path d="M3.5249 21.45V9.75" stroke="white" stroke-miterlimit="10"/>
<path d="M3.52495 9.9C4.3948 9.9 5.09995 9.19485 5.09995 8.325C5.09995 7.45515 4.3948 6.75 3.52495 6.75C2.6551 6.75 1.94995 7.45515 1.94995 8.325C1.94995 9.19485 2.6551 9.9 3.52495 9.9Z" stroke="white" stroke-miterlimit="10"/>
<path d="M24 11.3252C23.25 11.3252 22.5 11.7752 22.2 12.5252L17.4 23.6252C17.175 24.1502 17.175 24.6752 17.4 25.2002L18.6 28.0502C18.9 28.8002 19.65 29.2502 20.4 29.2502H27.4499C28.1999 29.2502 28.95 28.8002 29.25 28.0502L30.4499 25.2002C30.6749 24.6752 30.6749 24.1502 30.4499 23.6252L25.65 12.5252C25.5 11.7752 24.75 11.3252 24 11.3252Z" stroke="white" stroke-miterlimit="10"/>
<path d="M24.0001 25.425C24.7043 25.425 25.2751 24.8542 25.2751 24.15C25.2751 23.4458 24.7043 22.875 24.0001 22.875C23.2959 22.875 22.7251 23.4458 22.7251 24.15C22.7251 24.8542 23.2959 25.425 24.0001 25.425Z" stroke="white" stroke-miterlimit="10"/>
<path d="M24 22.8002V11.3252" stroke="white" stroke-miterlimit="10"/>
<path d="M28.0499 36.6751H20.1749C19.3499 36.6751 18.7499 35.9251 18.8249 35.1001L19.1999 32.4751C19.2749 31.8001 19.8749 31.3501 20.5499 31.3501H27.5999C28.2749 31.3501 28.7999 31.8001 28.9499 32.4751L29.3249 35.1001C29.4749 36.0001 28.8749 36.6751 28.0499 36.6751Z" stroke="white" stroke-miterlimit="10"/>
</g>
<defs>
<clipPath id="clip0_144_568">
<rect width="48" height="48" fill="white"/>
</clipPath>
</defs>
</svg>
