<svg width="24" height="24" viewBox="0 0 24 24" fill="none" xmlns="http://www.w3.org/2000/svg">
<g clip-path="url(#clip0_172_343)">
<path d="M4.25002 0.299805H19.75C22.1 0.299805 24 2.19979 24 4.54982V19.4498C24 21.7998 22.1 23.6999 19.75 23.6999H4.25002C1.89998 23.6998 0 21.7998 0 19.4498V4.54982C0 2.19979 1.89998 0.299805 4.25002 0.299805Z" fill="#001834"/>
<path d="M5.3999 16.71V6.42002C5.3999 6.35003 5.4299 6.31 5.49989 6.31C5.6699 6.31 5.82989 6.31 6.0599 6.30002C6.2999 6.29003 6.54989 6.29003 6.81989 6.28C7.08989 6.26997 7.3799 6.27002 7.68989 6.25998C7.99987 6.25 8.29987 6.25 8.59987 6.25C9.41986 6.25 10.0999 6.34998 10.6599 6.55998C11.1599 6.73 11.6199 7.00998 11.9999 7.37997C12.3199 7.69998 12.5699 8.08998 12.7299 8.51997C12.8799 8.93997 12.9599 9.36995 12.9599 9.81995C12.9599 10.68 12.7599 11.3899 12.3599 11.95C11.9599 12.51 11.3999 12.93 10.7499 13.17C10.0699 13.42 9.31987 13.51 8.49989 13.51C8.25989 13.51 8.0999 13.51 7.99987 13.5C7.89989 13.49 7.75987 13.49 7.56989 13.49V16.7C7.57987 16.77 7.5299 16.83 7.45987 16.84C7.44989 16.84 7.43986 16.84 7.41989 16.84H5.5199C5.43989 16.84 5.3999 16.8 5.3999 16.71ZM7.57992 8.24003V11.6C7.71993 11.61 7.84992 11.62 7.96992 11.62H8.49993C9.19045 11.62 9.98793 11.4578 10.4699 10.9101C10.8847 10.4387 10.8859 9.50392 10.5499 8.99008C10.1511 8.38009 9.35357 8.20337 8.6699 8.22006C8.40989 8.22006 8.17992 8.22006 7.98989 8.23005C7.78992 8.22002 7.6499 8.23 7.57992 8.24003Z" fill="#00A9FF"/>
<path d="M19.2001 10.99C18.9001 10.83 18.58 10.72 18.2401 10.65C17.8701 10.57 17.5 10.52 17.1201 10.52C16.9201 10.51 16.7101 10.54 16.5201 10.59C16.3901 10.62 16.2801 10.69 16.2101 10.79C16.1601 10.87 16.1301 10.97 16.1301 11.06C16.1301 11.15 16.1701 11.24 16.2301 11.32C16.3201 11.43 16.4401 11.52 16.57 11.59C16.8001 11.71 17.0401 11.82 17.2801 11.92C17.8201 12.1 18.34 12.35 18.82 12.65C19.15 12.86 19.42 13.14 19.61 13.48C19.77 13.8 19.85 14.15 19.84 14.51C19.85 14.98 19.7101 15.45 19.45 15.84C19.1701 16.24 18.7801 16.55 18.3301 16.73C17.8401 16.94 17.2401 17.05 16.5201 17.05C16.0601 17.05 15.6101 17.01 15.1601 16.92C14.8101 16.86 14.4601 16.75 14.1401 16.6C14.0701 16.56 14.0201 16.49 14.0301 16.41V14.67C14.0301 14.64 14.0401 14.6 14.0701 14.58C14.1001 14.56 14.1301 14.57 14.1601 14.59C14.5501 14.82 14.9601 14.98 15.4 15.08C15.7801 15.18 16.18 15.23 16.58 15.23C16.96 15.23 17.23 15.18 17.41 15.09C17.57 15.02 17.68 14.85 17.68 14.67C17.68 14.53 17.6 14.4 17.44 14.27C17.2801 14.14 16.9501 13.99 16.46 13.8C15.95 13.62 15.48 13.38 15.04 13.08C14.7301 12.86 14.47 12.57 14.2801 12.23C14.1201 11.91 14.0401 11.56 14.05 11.21C14.05 10.78 14.17 10.37 14.39 10C14.64 9.60003 15.01 9.28001 15.44 9.08C15.91 8.84 16.5 8.72998 17.21 8.72998C17.62 8.72998 18.04 8.75998 18.45 8.81998C18.75 8.85996 19.04 8.93998 19.31 9.05C19.35 9.05998 19.39 9.10001 19.41 9.14C19.42 9.17998 19.43 9.22001 19.43 9.26V10.89C19.43 10.93 19.41 10.97 19.38 10.99C19.2901 11.01 19.24 11.01 19.2001 10.99Z" fill="#00A9FF"/>
</g>
<defs>
<clipPath id="clip0_172_343">
<rect width="24" height="24" fill="white"/>
</clipPath>
</defs>
</svg>
