<svg width="24" height="24" viewBox="0 0 24 24" fill="none" xmlns="http://www.w3.org/2000/svg">
<g clip-path="url(#clip0_136_345)">
<path d="M19.5 24H4.5C2.0145 24 0 21.9855 0 19.5V4.5C0 2.0145 2.0145 0 4.5 0H19.5C21.9855 0 24 2.0145 24 4.5V19.5C24 21.9855 21.9855 24 19.5 24Z" fill="white" fill-opacity="0.1"/>
<path d="M17.9809 10.5347C17.9359 10.4012 17.8204 10.3044 17.6816 10.2834L13.9924 9.71944L12.3394 6.19744C12.2156 5.93419 11.7844 5.93419 11.6606 6.19744L10.0076 9.71944L6.3184 10.2834C6.17965 10.3044 6.06415 10.4019 6.01915 10.5347C5.9749 10.6682 6.00865 10.8152 6.1069 10.9157L8.7874 13.6629L8.15365 17.5464C8.1304 17.6882 8.1904 17.8307 8.3074 17.9132C8.4244 17.9957 8.5789 18.0047 8.7049 17.9349L12.0004 16.1132L15.2959 17.9342C15.3529 17.9657 15.4151 17.9814 15.4774 17.9814C15.5531 17.9814 15.6289 17.9582 15.6934 17.9132C15.8111 17.8307 15.8704 17.6882 15.8471 17.5464L15.2134 13.6629L17.8939 10.9157C17.9921 10.8152 18.0259 10.6674 17.9809 10.5347Z" fill="#14B1A8"/>
</g>
<defs>
<clipPath id="clip0_136_345">
<rect width="24" height="24" fill="white"/>
</clipPath>
</defs>
</svg>
