<svg width="512" height="512" viewBox="0 0 512 512" fill="none" xmlns="http://www.w3.org/2000/svg">
<g clip-path="url(#clip0_135_318)">
<path d="M428.801 453.059V503.467C428.801 508.179 424.98 512 420.268 512C415.555 512 411.734 508.179 411.734 503.467V453.059C411.734 413.812 379.974 382.049 340.723 382.05C322.151 382.05 305.301 372.589 295.648 356.74C293.196 352.716 294.471 347.466 298.496 345.013C302.519 342.56 307.771 343.837 310.223 347.861C316.754 358.582 328.156 364.982 340.723 364.982C389.403 364.982 428.801 404.374 428.801 453.059ZM286.433 386.981L256.001 410.541L204.259 370.482C215.428 361.51 222.651 348.461 223.821 333.639C234.032 336.645 244.831 338.266 256.002 338.266C318.935 338.266 370.135 287.066 370.135 224.132C370.135 223.469 370.15 164.386 370.108 163.725C369.818 159.108 365.968 155.732 361.602 155.732C360.141 155.732 349.627 157.812 339.334 151.62C323.283 141.964 323.201 120.797 323.202 120.585C323.244 113.651 315.404 109.559 309.739 113.567C274.59 138.449 233.434 155.322 188.743 161.578C184.077 162.231 180.822 166.544 181.476 171.212C182.074 175.478 185.728 178.563 189.917 178.563C191.261 178.563 218.93 175.177 250.383 163.753C270.647 156.393 290.064 146.788 308.269 135.131C314.559 158.732 332.198 171.861 353.07 173.046V224.132C353.07 277.655 309.526 321.199 256.003 321.199C202.48 321.199 158.937 277.655 158.937 224.132V164.267C158.937 159.554 155.116 155.733 150.403 155.733C145.691 155.733 141.87 159.554 141.87 164.267V224.133C141.87 269.511 168.492 308.786 206.937 327.168V329.419C206.937 349.089 190.996 364.982 171.281 364.982C160.485 364.982 149.849 366.935 139.787 370.782L134.277 366.397C91.0442 331.987 82.9472 271.243 112.431 226.986C124.996 208.124 132.27 185.564 132.27 161.426V115.204C132.27 61.0912 176.292 17.0667 230.403 17.0667H281.603C335.714 17.0667 379.737 61.0891 379.737 115.2V161.422C379.737 184.9 386.564 207.524 399.482 226.847C423.106 262.187 423.059 308.569 398.649 343.99C395.974 347.871 396.951 353.185 400.832 355.859C404.713 358.532 410.026 357.555 412.7 353.675C441.117 312.443 441.15 258.47 413.669 217.362C402.635 200.855 396.802 181.513 396.802 161.422V115.2C396.802 51.6789 345.123 0 281.602 0H230.402C166.881 0 115.202 51.6811 115.202 115.204V161.422C115.202 181.454 109.332 200.853 98.225 217.525C63.8197 269.175 73.5701 339.422 123.107 379.308C98.7722 395.272 83.2021 422.382 83.2021 453.059V503.467C83.2021 508.179 87.0229 512 91.7354 512C96.448 512 100.269 508.179 100.269 503.467V453.059C100.269 413.811 132.029 382.049 171.28 382.05C176.935 382.05 182.523 381.153 187.881 379.386L250.778 428.08C253.854 430.461 258.15 430.461 261.226 428.08L296.881 400.476C300.608 397.59 301.29 392.231 298.404 388.505C295.52 384.78 290.161 384.096 286.433 386.981Z" fill="white"/>
</g>
<defs>
<clipPath id="clip0_135_318">
<rect width="512" height="512" fill="white"/>
</clipPath>
</defs>
</svg>
