<svg width="24" height="24" viewBox="0 0 24 24" fill="none" xmlns="http://www.w3.org/2000/svg">
<g clip-path="url(#clip0_172_336)">
<path d="M21.6 0.47998H2.39998C1.34398 0.47998 0.47998 1.34398 0.47998 2.39998V21.6C0.47998 22.656 1.34398 23.52 2.39998 23.52H21.6C22.656 23.52 23.52 22.656 23.52 21.6V2.39998C23.52 1.34398 22.656 0.47998 21.6 0.47998Z" fill="#12A5D7"/>
<path d="M4.7998 11.9998C4.7998 14.8318 6.4798 17.3278 8.8798 18.4798L5.4238 9.07178C5.0398 9.98378 4.7998 10.9438 4.7998 11.9998Z" fill="white"/>
<path d="M16.848 11.6158C16.848 10.7038 16.512 10.1278 16.272 9.6478C15.888 9.0718 15.552 8.5438 15.552 7.9678C15.552 7.2958 16.032 6.6718 16.752 6.6718H16.848C15.6 5.5198 13.872 4.7998 12 4.7998C9.504 4.7998 7.248 6.0958 6 8.0638H6.48C7.248 8.0638 8.4 7.9678 8.4 7.9678C8.784 7.9678 8.832 8.4958 8.448 8.5438C8.448 8.5438 8.064 8.5918 7.632 8.5918L10.272 16.3678L11.856 11.6638L10.656 8.6398C10.272 8.6398 9.888 8.5918 9.888 8.5918C9.504 8.5918 9.552 7.9678 9.936 8.0158C9.936 8.0158 11.136 8.1118 11.856 8.1118C12.624 8.1118 13.776 8.0158 13.776 8.0158C14.16 8.0158 14.208 8.5438 13.824 8.5918C13.824 8.5918 13.44 8.6398 13.008 8.6398L15.6 16.3678L16.32 13.9678C16.608 12.9598 16.848 12.2398 16.848 11.6158Z" fill="white"/>
<path d="M12.1439 12.624L9.98389 18.912C10.6079 19.104 11.3279 19.2 11.9999 19.2C12.8159 19.2 13.6319 19.056 14.3999 18.768C14.3999 18.72 14.3519 18.72 14.3519 18.672L12.1439 12.624Z" fill="white"/>
<path d="M18.3356 8.54395C18.3836 8.78395 18.3836 9.02395 18.3836 9.26395C18.3836 9.98395 18.2396 10.7999 17.8556 11.8559L15.5996 18.2399C17.7596 16.9919 19.1996 14.6399 19.1996 11.9999C19.1996 10.7519 18.8636 9.55195 18.3356 8.54395Z" fill="white"/>
</g>
<defs>
<clipPath id="clip0_172_336">
<rect width="24" height="24" fill="white"/>
</clipPath>
</defs>
</svg>
