<svg width="154" height="217" viewBox="0 0 154 217" fill="none" xmlns="http://www.w3.org/2000/svg">
<g clip-path="url(#clip0_2008_79464)">
<path d="M86.8889 44.1192H120.07C120.334 44.1182 120.598 44.1411 120.859 44.1877C127.953 45.4197 134.588 48.5361 140.074 53.2124C142.852 55.6197 145.271 58.4137 147.259 61.5093C151.35 67.7596 153.563 75.0575 153.634 82.5335C154.008 110.415 146.849 136.365 146.849 136.365C141.22 149.958 137.307 162.152 120.469 181.309C107.845 195.683 91.9806 207.366 83.9853 213.252C82.5177 214.333 81.1764 215.298 79.9982 216.137C79.2276 216.684 78.3052 216.974 77.3613 216.966C76.4174 216.959 75.4998 216.654 74.7381 216.095C73.3757 215.098 71.7977 213.922 70.0618 212.598C63.392 207.503 47.1804 195.134 34.5562 180.982C27.7181 173.308 14.8414 158.592 6.95125 135.769C-0.360276 114.613 1.01787 96.7378 1.07047 82.5335C0.769844 75.1396 2.66459 67.8225 6.51467 61.5093C15.3358 47.3155 30.9478 44.6308 34.2354 44.1614C34.4429 44.1342 34.652 44.1201 34.8613 44.1192C45.9075 44.1192 56.4277 44.2669 67.4739 44.2827C67.7378 44.2841 67.9983 44.3419 68.2382 44.4522C68.4781 44.5625 68.6918 44.7228 68.865 44.9225C69.0382 45.1221 69.167 45.3565 69.2427 45.61C69.3185 45.8635 69.3395 46.1302 69.3044 46.3925C68.3102 53.2494 61.4826 60.9238 57.4113 60.9238C49.3371 61.2508 42.7883 60.8921 34.6614 60.9713H32.2313C29.9536 60.9713 28.8122 63.6085 29.5013 65.7711C31.0793 70.7555 36.2815 78.4299 39.4954 82.5124C47.1752 92.3388 54.0975 98.5628 58.7737 105.72C69.3307 121.86 70.0987 129.118 70.0987 135.094C70.0987 137.568 50.9467 125.03 34.6088 105.646C23.4259 92.4549 20.7958 81.7898 18.534 82.5177C16.4299 83.1823 17.5977 111.923 25.1512 135.753C29.4908 149.467 43.4405 173.313 74.1542 195.435C74.9367 196.006 75.8796 196.313 76.8474 196.313C77.8152 196.313 78.7581 196.006 79.5405 195.435C109.318 173.609 122.047 149.894 127.823 135.775C137.628 111.786 140.295 83.8363 136.318 82.5388C133.956 81.7687 130.043 92.534 119.77 105.673C104.515 125.189 84.0011 137.847 84.0011 134.957C84.0011 131.349 85.9578 119.698 95.7837 105.799C101.975 97.0384 112.153 87.4494 115.42 82.5388C118.465 77.9605 123.499 70.5181 125.461 65.7975C126.334 63.6876 124.672 60.697 122.531 61.0504C122.195 61.082 121.857 61.082 121.521 61.0504H95.4891C92.3909 61.0504 86.4365 54.626 85.1057 46.2026C85.0681 45.9451 85.086 45.6826 85.1582 45.4326C85.2304 45.1827 85.3552 44.9512 85.5242 44.7537C85.6932 44.5563 85.9024 44.3974 86.1379 44.288C86.3733 44.1785 86.6294 44.1209 86.8889 44.1192V44.1192Z" fill="#25A0D9"/>
<path d="M136.955 33.1004C145.888 33.1004 153.129 25.8389 153.129 16.8813C153.129 7.92367 145.888 0.662109 136.955 0.662109C128.021 0.662109 120.78 7.92367 120.78 16.8813C120.78 25.8389 128.021 33.1004 136.955 33.1004Z" fill="#25A0D9"/>
<path d="M17.7029 33.1004C26.6359 33.1004 33.8776 25.8389 33.8776 16.8813C33.8776 7.92367 26.6359 0.662109 17.7029 0.662109C8.76977 0.662109 1.52808 7.92367 1.52808 16.8813C1.52808 25.8389 8.76977 33.1004 17.7029 33.1004Z" fill="#25A0D9"/>
</g>
<defs>
<clipPath id="clip0_2008_79464">
<rect width="154" height="217" fill="white"/>
</clipPath>
</defs>
</svg>
